<?xml version="1.0" encoding="UTF-8" standalone="no"?>
<!-- Created with Inkscape (http://www.inkscape.org/) -->

<svg
   xmlns:dc="http://purl.org/dc/elements/1.1/"
   xmlns:cc="http://creativecommons.org/ns#"
   xmlns:rdf="http://www.w3.org/1999/02/22-rdf-syntax-ns#"
   xmlns:svg="http://www.w3.org/2000/svg"
   xmlns="http://www.w3.org/2000/svg"
   xmlns:sodipodi="http://sodipodi.sourceforge.net/DTD/sodipodi-0.dtd"
   xmlns:inkscape="http://www.inkscape.org/namespaces/inkscape"
   id="svg2"
   version="1.1"
   inkscape:version="0.91 r13725"
   width="40"
   height="41"
   viewBox="0 0 40 41"
   sodipodi:docname="icon-advantage-4.svg">
  <metadata
     id="metadata8">
    <rdf:RDF>
      <cc:Work
         rdf:about="">
        <dc:format>image/svg+xml</dc:format>
        <dc:type
           rdf:resource="http://purl.org/dc/dcmitype/StillImage" />
        <dc:title></dc:title>
      </cc:Work>
    </rdf:RDF>
  </metadata>
  <defs
     id="defs6" />
  <sodipodi:namedview
     pagecolor="#ffffff"
     bordercolor="#666666"
     borderopacity="1"
     objecttolerance="10"
     gridtolerance="10"
     guidetolerance="10"
     inkscape:pageopacity="0"
     inkscape:pageshadow="2"
     inkscape:window-width="689"
     inkscape:window-height="480"
     id="namedview4"
     showgrid="false"
     inkscape:zoom="5.7560976"
     inkscape:cx="20"
     inkscape:cy="20.5"
     inkscape:window-x="0"
     inkscape:window-y="0"
     inkscape:window-maximized="0"
     inkscape:current-layer="svg2" />
  <path
     style="fill:#000000"
     d="M 12.218407,39.266697 C 10.501588,38.06419 10.14091,37.113022 10.643069,35.112263 11.257682,32.663449 11.123515,32.551569 8.2592456,33.124423 6.0572586,33.56482 4.7816542,33.242484 3.6120772,31.950116 1.5386358,29.658989 1.5749423,27.963422 3.75,25.508913 4.8615303,24.254574 5.0956882,23.391799 4.3918102,23.144109 1.0920196,21.982937 -0.12600395,20.176493 0.55671934,17.456307 0.94206986,15.920948 1.8744514,14.476089 2.6286783,14.245509 3.3829052,14.014929 4.6699662,13.617327 5.4888137,13.361949 6.6694221,12.993748 6.7670455,12.343754 5.9603922,10.222095 4.2600336,5.7498128 9.5243869,1.7506581 12.8,5.0262712 c 1.406766,1.406766 2.832036,0.2637156 3.36663,-2.7 C 16.445639,0.77948648 17.31431,0.32627118 20,0.32627118 c 2.68569,0 3.554361,0.4532153 3.83337,2.00000002 0.534594,2.9637156 1.959864,4.106766 3.36663,2.7 1.740662,-1.7406618 4.242881,-1.4730911 6.173434,0.6601461 1.331835,1.4716612 1.470963,2.4189212 0.666174,4.5356777 -0.806653,2.121659 -0.70903,2.771653 0.471578,3.139854 0.818848,0.255378 2.105909,0.65298 2.860136,0.88356 0.754227,0.23058 1.686608,1.675439 2.071959,3.210798 0.682723,2.720186 -0.535301,4.52663 -3.835091,5.687802 -0.703878,0.24769 -0.46972,1.110465 0.64181,2.364804 2.175058,2.454509 2.211364,4.150076 0.137923,6.441203 -1.152549,1.273552 -2.452195,1.613302 -4.559304,1.19188 -2.753205,-0.550641 -2.926865,-0.403684 -2.637923,2.2323 0.242916,2.216096 -0.289316,3.157677 -2.479688,4.386861 -2.66521,1.495652 -2.877773,1.45416 -4.789392,-0.934885 l -2.000401,-2.5 -1.58258,2.25 c -1.868746,2.656852 -3.11245,2.797155 -6.120228,0.690425 z m 4.419967,-2.940425 c 0.774002,-2.017019 5.342242,-1.908768 6.856776,0.16248 1.724976,2.359045 4.508351,1.066913 3.771491,-1.750847 -0.722653,-2.763427 2.141516,-5.09828 5.285952,-4.309077 2.912432,0.730974 4.073733,-1.252993 2.045368,-3.49431 -1.897098,-2.09627 -2.124706,-6.101793 -0.347961,-6.123559 2.294638,-0.02811 3.825228,-1.62507 3.176881,-3.314637 -0.352472,-0.918527 -1.687389,-1.67005 -2.966482,-1.67005 -2.750013,0 -4.056769,-3.017156 -2.536811,-5.8572223 C 33.504833,7.0144653 30.64132,4.9359095 28.12586,7.2123693 25.679222,9.4265467 23.041592,8.2842304 22.324745,4.6999979 c -0.777848,-3.88924402 -3.871642,-3.88924402 -4.64949,0 C 16.958408,8.2842304 14.320778,9.4265467 11.87414,7.2123693 9.3586801,4.9359095 6.4951671,7.0144653 8.0764124,9.9690497 c 1.5199572,2.8400663 0.213202,5.8572223 -2.5368113,5.8572223 -1.2790929,0 -2.6140098,0.751523 -2.966482,1.67005 -0.6483475,1.689567 0.8822432,3.286527 3.1768809,3.314637 1.7767448,0.02177 1.5491374,4.027289 -0.3479613,6.123559 -1.977833,2.185481 -0.8824313,4.250642 1.8724934,3.530213 2.9595849,-0.773949 5.8807259,1.119615 5.6773439,3.68021 -0.260455,3.279147 -0.08789,3.681331 1.579509,3.681331 0.842261,0 1.790406,-0.675 2.106989,-1.5 z m -1.003515,-10.57258 c -3.643879,-2.866276 -3.643879,-7.988564 0,-10.85484 3.323934,-2.614607 5.406348,-2.614607 8.730282,0 C 26.276167,16.402065 27,17.893054 27,20.326272 c 0,3.593604 -3.64597,7.5 -7,7.5 -0.951655,0 -2.915969,-0.932661 -4.365141,-2.07258 z m 7.5364,-1.582408 c 2.274233,-2.058152 2.344947,-5.117129 0.173753,-7.516271 -2.053585,-2.269186 -4.139388,-2.324803 -6.516271,-0.173753 -2.274233,2.058152 -2.344947,5.117129 -0.173753,7.516271 2.053585,2.269186 4.139388,2.324803 6.516271,0.173753 z"
     id="path4138"
     inkscape:connector-curvature="0" />
</svg>
