<?xml version="1.0" encoding="UTF-8" standalone="no"?>
<!-- Created with Inkscape (http://www.inkscape.org/) -->

<svg
   xmlns:dc="http://purl.org/dc/elements/1.1/"
   xmlns:cc="http://creativecommons.org/ns#"
   xmlns:rdf="http://www.w3.org/1999/02/22-rdf-syntax-ns#"
   xmlns:svg="http://www.w3.org/2000/svg"
   xmlns="http://www.w3.org/2000/svg"
   xmlns:sodipodi="http://sodipodi.sourceforge.net/DTD/sodipodi-0.dtd"
   xmlns:inkscape="http://www.inkscape.org/namespaces/inkscape"
   id="svg2"
   version="1.1"
   inkscape:version="0.91 r13725"
   width="45"
   height="46"
   viewBox="0 0 45 46"
   sodipodi:docname="icon-advantage-2.svg">
  <metadata
     id="metadata8">
    <rdf:RDF>
      <cc:Work
         rdf:about="">
        <dc:format>image/svg+xml</dc:format>
        <dc:type
           rdf:resource="http://purl.org/dc/dcmitype/StillImage" />
        <dc:title></dc:title>
      </cc:Work>
    </rdf:RDF>
  </metadata>
  <defs
     id="defs6" />
  <sodipodi:namedview
     pagecolor="#ffffff"
     bordercolor="#666666"
     borderopacity="1"
     objecttolerance="10"
     gridtolerance="10"
     guidetolerance="10"
     inkscape:pageopacity="0"
     inkscape:pageshadow="2"
     inkscape:window-width="689"
     inkscape:window-height="480"
     id="namedview4"
     showgrid="false"
     inkscape:zoom="5.1304348"
     inkscape:cx="22.5"
     inkscape:cy="23"
     inkscape:window-x="0"
     inkscape:window-y="0"
     inkscape:window-maximized="0"
     inkscape:current-layer="svg2" />
  <path
     style="fill:#000000"
     d="M 13.694915,40.771109 C 7.0949152,38.53206 1.364306,36.205087 0.96022803,35.600056 c -0.40407797,-0.605031 -0.74157797,-6.172467 -0.75,-12.37208 L 0.19491526,11.955952 4.5201122,9.2279754 C 6.8989706,7.7275894 11.625464,5.1790452 15.023431,3.5645449 l 6.178123,-2.93545518 9.74668,2.81036148 C 46.830235,8.0188734 45.194915,6.188616 45.194915,19.384394 l 0,11.433897 -7.75,7.068244 c -4.390659,4.004419 -8.616927,7.043824 -9.75,7.011907 -1.1,-0.03099 -7.4,-1.888285 -14,-4.127333 z m 13.5,-9.639334 0,-11.868224 -5.75,-1.622104 c -3.1625,-0.892158 -8.7875,-2.494694 -12.4999998,-3.561192 l -6.75,-1.939088 0,11.346083 0,11.346083 11.7499998,4.004386 c 6.4625,2.202413 12.0875,4.039913 12.5,4.083334 0.4125,0.04342 0.75,-5.261754 0.75,-11.789278 z m -14,-7.877389 c -2.475,-0.873246 -3.9709465,-1.76407 -3.3243258,-1.979611 1.7585958,-0.586198 9.3243258,1.656315 9.3243258,2.763769 0,1.218827 -0.513088,1.15177 -6,-0.784158 z m 23.908888,12.515791 6.161524,-5.729822 -0.285206,-10.030132 -0.285206,-10.0301316 -6.75,4.5310176 -6.75,4.531018 0,11.56227 c 0,6.359248 0.393157,11.41227 0.873682,11.228936 C 30.549123,41.65 33.714965,38.92158 37.103803,35.770177 Z M 31.56926,15.091853 34.443606,13.196884 25.887292,10.587049 C 13.340234,6.7599604 11.892423,6.5879444 8.2185116,8.4877974 c -1.78937,0.92532 -2.8641942,2.0515886 -2.3884982,2.5028206 1.0358153,0.982546 18.0176556,5.79539 20.8649016,5.913347 1.1,0.04557 3.293455,-0.769879 4.874345,-1.812112 z m 7.61913,-5.052044 C 42.052794,7.8391084 42.728606,8.2342274 29.838817,4.5735124 21.600686,2.2338739 20.774302,2.1661474 17.995887,3.6029216 c -1.642758,0.8495031 -2.69666,1.8347242 -2.342004,2.1893802 0.773368,0.7733676 17.403947,5.9404452 19.541032,6.0713472 0.825,0.05053 2.622064,-0.770194 3.993475,-1.82384 z"
     id="path4138"
     inkscape:connector-curvature="0" />
</svg>
