<?xml version="1.0" encoding="UTF-8" standalone="no"?>
<!-- Created with Inkscape (http://www.inkscape.org/) -->

<svg
   xmlns:dc="http://purl.org/dc/elements/1.1/"
   xmlns:cc="http://creativecommons.org/ns#"
   xmlns:rdf="http://www.w3.org/1999/02/22-rdf-syntax-ns#"
   xmlns:svg="http://www.w3.org/2000/svg"
   xmlns="http://www.w3.org/2000/svg"
   xmlns:sodipodi="http://sodipodi.sourceforge.net/DTD/sodipodi-0.dtd"
   xmlns:inkscape="http://www.inkscape.org/namespaces/inkscape"
   id="svg2"
   version="1.1"
   inkscape:version="0.91 r13725"
   width="36"
   height="42"
   viewBox="0 0 36 42"
   sodipodi:docname="icon-advantage-1.svg">
  <metadata
     id="metadata8">
    <rdf:RDF>
      <cc:Work
         rdf:about="">
        <dc:format>image/svg+xml</dc:format>
        <dc:type
           rdf:resource="http://purl.org/dc/dcmitype/StillImage" />
        <dc:title></dc:title>
      </cc:Work>
    </rdf:RDF>
  </metadata>
  <defs
     id="defs6" />
  <sodipodi:namedview
     pagecolor="#ffffff"
     bordercolor="#666666"
     borderopacity="1"
     objecttolerance="10"
     gridtolerance="10"
     guidetolerance="10"
     inkscape:pageopacity="0"
     inkscape:pageshadow="2"
     inkscape:window-width="689"
     inkscape:window-height="480"
     id="namedview4"
     showgrid="false"
     inkscape:zoom="5.6190476"
     inkscape:cx="18"
     inkscape:cy="21"
     inkscape:window-x="0"
     inkscape:window-y="0"
     inkscape:window-maximized="0"
     inkscape:current-layer="svg2" />
  <path
     style="fill:#000000"
     d="M 15.322034,41.310943 C 12.695789,40.63151 9.8220339,38.036807 9.8220339,36.345012 9.8220339,35.605256 8.8924502,35 7.7562924,35 5.4035897,35 1.6775369,33.233007 0.58734667,31.600296 0.1832687,30.995133 -0.1542313,24.547874 -0.16265333,17.273053 -0.17784283,4.1525793 -0.15720733,4.0325043 2.400872,2.3563863 c 3.3144843,-2.17173346 10.52784,-2.17173346 13.842324,0 2.20402,1.44413 2.578838,2.418201 2.578838,6.70185 0,4.6454697 0.1415,4.9364027 1.934259,3.9769477 4.015031,-2.14878 12.189293,-0.797198 14.300428,2.36452 0.404078,0.605163 0.741578,4.293052 0.75,8.195308 0.01619,7.501565 -1.165435,9.777043 -5.484687,10.561966 -1.163126,0.211371 -2.133832,1.301579 -2.319838,2.60543 -0.175911,1.233088 -1.084196,2.651049 -2.01841,3.151025 -2.335551,1.249949 -8.240391,2.023937 -10.661752,1.39751 z m 10.387583,-3.800045 c 1.490847,-1.51867 1.38623,-1.582802 -1.387583,-0.850609 -3.778542,0.997407 -7.209769,1.005554 -10.833789,0.02572 -1.981923,-0.535855 -2.627535,-0.43245 -2.147673,0.343984 1.994076,3.226482 11.365855,3.540136 14.369045,0.480902 z m 0,-4 c 1.490847,-1.51867 1.38623,-1.582802 -1.387583,-0.850609 -3.778542,0.997407 -7.209769,1.005554 -10.833789,0.02572 -1.981923,-0.535855 -2.627535,-0.43245 -2.147673,0.343984 1.994076,3.226482 11.365855,3.540136 14.369045,0.480902 z M 9.8220339,32 c 0,-0.55 -0.9295837,-1 -2.0657415,-1 -1.1361578,0 -2.9361578,-0.465833 -4,-1.035184 C 1.6076702,28.814908 1.15881,29.936776 3.0220339,31.8 c 1.4492621,1.449262 6.8,1.606637 6.8,0.2 z M 31.887775,31.96482 c 2.274725,-1.217395 2.613212,-3.114158 0.434259,-2.433431 -0.825,0.257738 -2.203522,0.690437 -3.063382,0.961552 -0.85986,0.271116 -1.283303,0.946116 -0.940983,1.5 0.778651,1.259884 1.169195,1.256808 3.570106,-0.02812 z m -6.178158,-2.449231 c 1.484235,-1.50762 1.458103,-1.752208 -0.328713,-3.076703 -4.169421,-3.090626 -16.1179282,-0.770508 -13.965734,2.711815 1.923727,3.112656 11.352352,3.353336 14.294447,0.364888 z M 9.8220339,28 c 0,-0.55 -0.9295837,-1 -2.0657415,-1 -1.1361578,0 -2.9361578,-0.465833 -4,-1.035184 C 1.6076702,24.814908 1.15881,25.936776 3.0220339,27.8 c 1.4492621,1.449262 6.8,1.606637 6.8,0.2 z M 31.887775,27.96482 c 2.274725,-1.217395 2.613212,-3.114158 0.434259,-2.433431 -0.825,0.257738 -2.203522,0.690437 -3.063382,0.961552 -0.85986,0.271116 -1.283303,0.946116 -0.940983,1.5 0.778651,1.259884 1.169195,1.256808 3.570106,-0.02812 z M 13.501036,23.799112 c 1.826549,-0.660489 3.320998,-1.576322 3.320998,-2.035184 0,-0.458863 -0.870416,-0.368463 -1.934259,0.200888 C 13.823933,22.534167 11.31935,23 9.3220339,23 7.3247183,23 4.8201346,22.534167 3.7562924,21.964816 1.6076702,20.814908 1.15881,21.936776 3.0220339,23.8 c 1.5359336,1.535934 6.2300969,1.535536 10.4790021,-8.88e-4 z m 18.386739,0.165704 c 3.233839,-1.730698 2.172598,-2.86941 -1.682236,-1.805039 -3.40196,0.939326 -5.683144,0.754198 -10.040604,-0.814842 -1.031439,-0.371401 -1.491313,-0.278544 -1.044415,0.210888 1.004203,1.099778 6.609757,3.166674 9.017255,3.324867 0.998658,0.06562 2.686158,-0.346523 3.75,-0.915874 z M 15.622034,19.8 C 17.485258,17.936776 17.036398,16.814908 14.887775,17.964816 13.823933,18.534167 11.31935,19 9.3220339,19 7.3247183,19 4.8201346,18.534167 3.7562924,17.964816 1.6076702,16.814908 1.15881,17.936776 3.0220339,19.8 c 1.5570249,1.557025 11.0429751,1.557025 12.6000001,0 z m 16.265741,0.164816 C 36.252902,17.628671 32.867006,14 26.322034,14 c -4.195054,0 -7.5,1.490473 -7.5,3.382369 0,2.944509 9.047767,4.732802 13.065741,2.582447 z M 15.622034,15.8 c 1.863224,-1.863224 1.414364,-2.985092 -0.734259,-1.835184 -2.488788,1.331959 -8.6426939,1.331959 -11.1314826,0 C 1.6076702,12.814908 1.15881,13.936776 3.0220339,15.8 c 1.5570249,1.557025 11.0429751,1.557025 12.6000001,0 z m 0,-4 c 1.863224,-1.8632237 1.414364,-2.9850917 -0.734259,-1.8351837 -2.488788,1.3319587 -8.6426939,1.3319587 -11.1314826,0 C 1.6076702,8.8149083 1.15881,9.9367763 3.0220339,11.8 c 1.5570249,1.557025 11.0429751,1.557025 12.6000001,0 z m 0,-3.9999997 c 1.867136,-1.867136 1.42951,-3.374399 -1.347053,-4.6394853 -3.238993,-1.4757837 -6.6669016,-1.4757837 -9.9058941,0 -2.7765625,1.2650863 -3.2141891,2.7723493 -1.347053,4.6394853 1.5570249,1.557025 11.0429751,1.557025 12.6000001,0 z"
     id="path4138"
     inkscape:connector-curvature="0" />
</svg>
