<?xml version="1.0" encoding="UTF-8" standalone="no"?>
<!-- Created with Inkscape (http://www.inkscape.org/) -->

<svg
   xmlns:dc="http://purl.org/dc/elements/1.1/"
   xmlns:cc="http://creativecommons.org/ns#"
   xmlns:rdf="http://www.w3.org/1999/02/22-rdf-syntax-ns#"
   xmlns:svg="http://www.w3.org/2000/svg"
   xmlns="http://www.w3.org/2000/svg"
   xmlns:sodipodi="http://sodipodi.sourceforge.net/DTD/sodipodi-0.dtd"
   xmlns:inkscape="http://www.inkscape.org/namespaces/inkscape"
   id="svg2"
   version="1.1"
   inkscape:version="0.91 r13725"
   width="39"
   height="39"
   viewBox="0 0 39 39"
   sodipodi:docname="icon-advantage-8.svg">
  <metadata
     id="metadata8">
    <rdf:RDF>
      <cc:Work
         rdf:about="">
        <dc:format>image/svg+xml</dc:format>
        <dc:type
           rdf:resource="http://purl.org/dc/dcmitype/StillImage" />
        <dc:title></dc:title>
      </cc:Work>
    </rdf:RDF>
  </metadata>
  <defs
     id="defs6" />
  <sodipodi:namedview
     pagecolor="#ffffff"
     bordercolor="#666666"
     borderopacity="1"
     objecttolerance="10"
     gridtolerance="10"
     guidetolerance="10"
     inkscape:pageopacity="0"
     inkscape:pageshadow="2"
     inkscape:window-width="689"
     inkscape:window-height="480"
     id="namedview4"
     showgrid="false"
     inkscape:zoom="6.0512821"
     inkscape:cx="19.5"
     inkscape:cy="19.5"
     inkscape:window-x="0"
     inkscape:window-y="0"
     inkscape:window-maximized="0"
     inkscape:current-layer="svg2" />
  <path
     style="fill:#000000"
     d="M 6.7786055,37.945732 C 0.38499736,36.874128 -0.74189853,35.7165 1.1996672,32.214651 2.2329019,30.351087 4.1877847,29.052831 7.4350165,28.073696 12.716421,26.481199 13.264296,25.025993 10.554988,19.78677 8.0878783,15.015904 9.0836484,6.6270604 12.525638,3.1850704 c 3.801264,-3.80126396 10.477968,-3.80126396 14.279232,0 3.44199,3.44199 4.43776,11.8308336 1.97065,16.6016996 -2.709308,5.239223 -2.161433,6.694429 3.119972,8.286926 5.116224,1.54269 8.749468,5.846598 6.681372,7.914694 -2.595783,2.595783 -21.168162,3.739007 -31.7982585,1.957342 z M 34.464346,35.441747 c 3.161261,-1.218405 1.410341,-3.869478 -3.606105,-5.460013 -2.633683,-0.835046 -5.10452,-1.994582 -5.490751,-2.576746 -1.013221,-1.527227 -10.964929,-1.465783 -11.554779,0.07134 -0.262415,0.683842 -2.55883,1.767529 -5.1031449,2.408195 -4.2853694,1.079069 -6.6704473,3.322673 -5.1492778,4.843842 2.0339892,2.03399 26.0398407,2.588133 30.9040577,0.71338 z M 26.004372,19.899974 c 2.960205,-4.302742 2.621625,-11.8836746 -0.678121,-15.1834216 -2.832502,-2.832502 -8.489492,-2.832502 -11.321994,0 -3.116224,3.116224 -3.5691,10.7978146 -0.88835,15.0680096 3.787424,6.033029 8.786459,6.077794 12.888465,0.115412 z"
     id="path4138"
     inkscape:connector-curvature="0" />
</svg>
