<?xml version="1.0" encoding="UTF-8" standalone="no"?>
<!-- Created with Inkscape (http://www.inkscape.org/) -->

<svg
   xmlns:dc="http://purl.org/dc/elements/1.1/"
   xmlns:cc="http://creativecommons.org/ns#"
   xmlns:rdf="http://www.w3.org/1999/02/22-rdf-syntax-ns#"
   xmlns:svg="http://www.w3.org/2000/svg"
   xmlns="http://www.w3.org/2000/svg"
   xmlns:sodipodi="http://sodipodi.sourceforge.net/DTD/sodipodi-0.dtd"
   xmlns:inkscape="http://www.inkscape.org/namespaces/inkscape"
   id="svg2"
   version="1.1"
   inkscape:version="0.91 r13725"
   width="59"
   height="35"
   viewBox="0 0 59 35"
   sodipodi:docname="icon-advantage-6.svg">
  <metadata
     id="metadata8">
    <rdf:RDF>
      <cc:Work
         rdf:about="">
        <dc:format>image/svg+xml</dc:format>
        <dc:type
           rdf:resource="http://purl.org/dc/dcmitype/StillImage" />
        <dc:title></dc:title>
      </cc:Work>
    </rdf:RDF>
  </metadata>
  <defs
     id="defs6" />
  <sodipodi:namedview
     pagecolor="#ffffff"
     bordercolor="#666666"
     borderopacity="1"
     objecttolerance="10"
     gridtolerance="10"
     guidetolerance="10"
     inkscape:pageopacity="0"
     inkscape:pageshadow="2"
     inkscape:window-width="915"
     inkscape:window-height="480"
     id="namedview4"
     showgrid="false"
     inkscape:zoom="6.440678"
     inkscape:cx="29.344737"
     inkscape:cy="17.5"
     inkscape:window-x="0"
     inkscape:window-y="0"
     inkscape:window-maximized="0"
     inkscape:current-layer="svg2" />
  <path
     style="fill:#000000"
     d="m 42.698901,33.219783 c -3.809909,-4.209902 -0.629467,-10.688492 4.931122,-10.044739 1.821476,0.210874 3.34457,1.290399 4.338434,3.074956 1.375273,2.469406 1.375309,3.030594 3.47e-4,5.5 -1.932372,3.470502 -6.765739,4.236854 -9.269903,1.469783 z m 6.72967,-1.791212 C 50.292857,30.564286 51,29.471429 51,29 c 0,-0.912701 -2.807258,-4 -3.63717,-4 -0.271872,0 -1.364729,0.465833 -2.428571,1.035184 -2.410468,1.290043 -2.511885,4.529 -0.184259,5.884717 2.371348,1.381184 2.857067,1.330175 4.678571,-0.49133 z M 18.606266,29.171943 c -0.281472,-0.455432 1.830799,-7.092932 4.693934,-14.75 l 5.205702,-13.92194304 6.951129,0 6.951129,0 3.953111,6.88140624 c 2.568034,4.4703238 5.474728,7.9539408 8.29592,9.9424998 C 58.441489,19.991326 59,20.858921 59,24.070056 c 0,2.081621 -0.663192,4.235455 -1.524166,4.95 -1.84833,1.533977 -3.327393,0.431503 -1.659167,-1.236723 2.580945,-2.580945 1.346689,-6.283188 -3.151782,-9.454003 -2.841907,-2.003161 -5.540539,-5.255582 -7.834726,-9.4425008 L 41.330549,2.5 35.754795,2.2027672 30.179042,1.9055345 28.186069,7.2027672 C 27.089934,10.116245 25.024649,15.591077 23.596548,19.369059 22.168447,23.147042 21,26.634542 21,27.119059 21,27.603577 24.825,28 29.5,28 c 5,0 8.5,0.411765 8.5,1 0,1.213393 -18.647902,1.378723 -19.393734,0.171943 z M 4,19.54569 C 4,18.296913 5.3606458,18 11.083333,18 c 5.220283,0 6.974699,0.328774 6.670303,1.25 -0.261502,0.791414 -2.860154,1.358479 -7.083333,1.54569 C 5.1926467,21.038511 4,20.81501 4,19.54569 Z M 27.63948,19.306147 C 26.513296,18.179963 26.95359,17 28.5,17 c 0.825,0 1.5,0.423442 1.5,0.940983 0,1.260978 -1.561589,2.164095 -2.36052,1.365164 z M 28.552402,11.75 C 30.94131,3.9280808 31.724051,3 35.932127,3 39.765052,3 40.091868,3.2477804 42.483154,7.9667562 43.867419,10.698472 45,13.173472 45,13.466756 45,13.76004 41.144676,14 36.432612,14 28.010973,14 27.876915,13.96172 28.552402,11.75 Z M 40.298609,8.5000002 C 38.995969,5.7683364 38.033135,5 35.912613,5 33.764224,5 32.96591,5.6590325 32.097825,8.1492232 31.494021,9.8812962 31,11.456296 31,11.649223 31,11.84215 33.46772,12 36.483821,12 l 5.483822,0 -1.669034,-3.4999998 z M 2,12 c 0,-0.596491 3.8333333,-1 9.5,-1 5.666667,0 9.5,0.403509 9.5,1 0,0.596491 -3.833333,1 -9.5,1 C 5.8333333,13 2,12.596491 2,12 Z M 0,5 C 0,4.3866667 4.8333333,4 12.5,4 20.166667,4 25,4.3866667 25,5 25,5.6133333 20.166667,6 12.5,6 4.8333333,6 0,5.6133333 0,5 Z"
     id="path4140"
     inkscape:connector-curvature="0" />
</svg>
