<?xml version="1.0" encoding="UTF-8" standalone="no"?>
<!-- Created with Inkscape (http://www.inkscape.org/) -->

<svg
   xmlns:dc="http://purl.org/dc/elements/1.1/"
   xmlns:cc="http://creativecommons.org/ns#"
   xmlns:rdf="http://www.w3.org/1999/02/22-rdf-syntax-ns#"
   xmlns:svg="http://www.w3.org/2000/svg"
   xmlns="http://www.w3.org/2000/svg"
   xmlns:sodipodi="http://sodipodi.sourceforge.net/DTD/sodipodi-0.dtd"
   xmlns:inkscape="http://www.inkscape.org/namespaces/inkscape"
   id="svg2"
   version="1.1"
   inkscape:version="0.91 r13725"
   width="29"
   height="29"
   viewBox="0 0 29 29"
   sodipodi:docname="key.svg">
  <metadata
     id="metadata8">
    <rdf:RDF>
      <cc:Work
         rdf:about="">
        <dc:format>image/svg+xml</dc:format>
        <dc:type
           rdf:resource="http://purl.org/dc/dcmitype/StillImage" />
        <dc:title></dc:title>
      </cc:Work>
    </rdf:RDF>
  </metadata>
  <defs
     id="defs6" />
  <sodipodi:namedview
     pagecolor="#ffffff"
     bordercolor="#666666"
     borderopacity="1"
     objecttolerance="10"
     gridtolerance="10"
     guidetolerance="10"
     inkscape:pageopacity="0"
     inkscape:pageshadow="2"
     inkscape:window-width="689"
     inkscape:window-height="480"
     id="namedview4"
     showgrid="false"
     inkscape:zoom="8.137931"
     inkscape:cx="14.5"
     inkscape:cy="14.5"
     inkscape:window-x="0"
     inkscape:window-y="0"
     inkscape:window-maximized="0"
     inkscape:current-layer="svg2" />
  <path
     style="fill:#db0b2d;fill-opacity:1"
     d="M 0.66666667,28.333333 C -1.0810476,26.585619 0.62650687,23.830247 8,16.5 13.321939,11.209275 16,7.785862 16,6.27346 16,3.3991427 19.334951,-3.3898306e-8 22.154988,-3.3898306e-8 24.218878,-3.3898306e-8 24.236309,0.08139997 22.567335,1.9255962 18.943139,5.9302876 23.069712,10.056861 27.074404,6.432666 28.9186,4.7636912 29,4.7811223 29,6.845012 29,9.665049 25.600857,13 22.72654,13 21.214138,13 17.790725,15.678061 12.5,21 5.1697527,28.373493 2.4143809,30.081048 0.66666667,28.333333 Z M 4,26 c 0,-0.55 -0.45,-1 -1,-1 -0.55,0 -1,0.45 -1,1 0,0.55 0.45,1 1,1 0.55,0 1,-0.45 1,-1 z"
     id="path4162"
     inkscape:connector-curvature="0" />
</svg>
