<?xml version="1.0" encoding="UTF-8" standalone="no"?>
<!-- Created with Inkscape (http://www.inkscape.org/) -->

<svg
   xmlns:dc="http://purl.org/dc/elements/1.1/"
   xmlns:cc="http://creativecommons.org/ns#"
   xmlns:rdf="http://www.w3.org/1999/02/22-rdf-syntax-ns#"
   xmlns:svg="http://www.w3.org/2000/svg"
   xmlns="http://www.w3.org/2000/svg"
   xmlns:sodipodi="http://sodipodi.sourceforge.net/DTD/sodipodi-0.dtd"
   xmlns:inkscape="http://www.inkscape.org/namespaces/inkscape"
   id="svg2"
   version="1.1"
   inkscape:version="0.91 r13725"
   width="46"
   height="36"
   viewBox="0 0 46 36"
   sodipodi:docname="reviews-bg.svg">
  <metadata
     id="metadata8">
    <rdf:RDF>
      <cc:Work
         rdf:about="">
        <dc:format>image/svg+xml</dc:format>
        <dc:type
           rdf:resource="http://purl.org/dc/dcmitype/StillImage" />
        <dc:title></dc:title>
      </cc:Work>
    </rdf:RDF>
  </metadata>
  <defs
     id="defs6" />
  <sodipodi:namedview
     pagecolor="#ffffff"
     bordercolor="#666666"
     borderopacity="1"
     objecttolerance="10"
     gridtolerance="10"
     guidetolerance="10"
     inkscape:pageopacity="0"
     inkscape:pageshadow="2"
     inkscape:window-width="933"
     inkscape:window-height="480"
     id="namedview4"
     showgrid="false"
     inkscape:zoom="6.5555556"
     inkscape:cx="22.847458"
     inkscape:cy="25.20226"
     inkscape:window-x="0"
     inkscape:window-y="0"
     inkscape:window-maximized="0"
     inkscape:current-layer="svg2" />
  <path
     style="fill:#b6b6b6;fill-opacity:1"
     d="M 1,24.93549 C 1,14.658984 2.7805866,8.9197413 6.8729072,6.0057523 9.480839,4.148741 17.834123,1.4160442 18.590525,2.172446 c 0.213753,0.2137528 0.670258,1.7967224 1.014455,3.51771 0.554807,2.7740343 0.327268,3.2039993 -2.005399,3.7894613 C 14.84738,10.170375 11,14.253564 11,16.48369 c 0,0.714296 1.2375,1.441109 2.75,1.615142 2.706936,0.311467 2.754574,0.437783 3.042064,8.066422 l 0.292065,7.75 -8.0420647,0 -8.0420643,0 0,-8.979764 z m 25,1.422584 C 26,12.009008 29.648902,5.4332433 39.009943,2.9125767 c 4.84361,-1.3042487 5.626301,-0.9291124 6.198714,2.9709867 0.388075,2.6441299 0.06133,3.1175139 -2.804713,4.0633919 -3.602094,1.1887977 -4.827678,2.3870067 -5.848943,5.7182987 -0.611367,1.994234 -0.341095,2.25 2.377611,2.25 l 3.067388,0 0,8 0,8 -8,0 -8,0 0,-7.55718 z"
     id="path4140"
     inkscape:connector-curvature="0" />
</svg>
