<?xml version="1.0" encoding="UTF-8" standalone="no"?>
<!-- Created with Inkscape (http://www.inkscape.org/) -->

<svg
   xmlns:dc="http://purl.org/dc/elements/1.1/"
   xmlns:cc="http://creativecommons.org/ns#"
   xmlns:rdf="http://www.w3.org/1999/02/22-rdf-syntax-ns#"
   xmlns:svg="http://www.w3.org/2000/svg"
   xmlns="http://www.w3.org/2000/svg"
   xmlns:sodipodi="http://sodipodi.sourceforge.net/DTD/sodipodi-0.dtd"
   xmlns:inkscape="http://www.inkscape.org/namespaces/inkscape"
   id="svg2"
   version="1.1"
   inkscape:version="0.91 r13725"
   width="52"
   height="62"
   viewBox="0 0 52 62"
   sodipodi:docname="advantages_icon_1.svg">
  <metadata
     id="metadata8">
    <rdf:RDF>
      <cc:Work
         rdf:about="">
        <dc:format>image/svg+xml</dc:format>
        <dc:type
           rdf:resource="http://purl.org/dc/dcmitype/StillImage" />
        <dc:title></dc:title>
      </cc:Work>
    </rdf:RDF>
  </metadata>
  <defs
     id="defs6" />
  <sodipodi:namedview
     pagecolor="#ffffff"
     bordercolor="#666666"
     borderopacity="1"
     objecttolerance="10"
     gridtolerance="10"
     guidetolerance="10"
     inkscape:pageopacity="0"
     inkscape:pageshadow="2"
     inkscape:window-width="1600"
     inkscape:window-height="837"
     id="namedview4"
     showgrid="false"
     inkscape:zoom="8.1379307"
     inkscape:cx="21.51135"
     inkscape:cy="24.7148"
     inkscape:window-x="-8"
     inkscape:window-y="-8"
     inkscape:window-maximized="1"
     inkscape:current-layer="svg2" />
  <path
     style="fill:#1d1d1d;fill-opacity:1"
     d="m 35.544466,59.124036 c -0.825,-0.300197 -2.7375,-1.698861 -4.25,-3.108144 -2.086911,-1.944493 -2.75,-3.497565 -2.75,-6.440982 0,-4.919946 1.301983,-7.334848 4.979984,-9.236817 9.965736,-5.153482 20.738397,3.047887 16.699746,12.713738 -2.099699,5.025287 -9.333559,8.017542 -14.67973,6.072205 z m 8.431113,-8.225746 c 2.454414,-2.513548 3.619845,-4.49537 3.234332,-5.5 -0.910456,-2.372611 -2.146113,-1.926063 -5.620657,2.031224 -3.062656,3.488172 -3.224366,3.545688 -5.127221,1.823628 -1.566076,-1.417279 -2.213709,-1.525287 -3.191196,-0.532206 -0.971675,0.987177 -0.643664,1.750694 1.579393,3.676371 1.54317,1.33674 3.364343,2.430436 4.047052,2.430436 0.682709,0 2.967942,-1.768254 5.078297,-3.929453 z M 0.99253764,52.553016 C 0.72350049,51.851917 0.62512359,41.614417 0.77392239,29.803016 L 1.0444657,8.3277439 5.2101366,8.0243669 c 3.4687885,-0.2526254 4.2745745,0.03975 4.8166504,1.7476764 0.83253,2.6230687 3.388506,3.2295707 12.038596,2.8566117 6.129177,-0.264267 7.099295,-0.574915 7.966211,-2.550911 0.757948,-1.7276181 1.81432,-2.2500005 4.55,-2.2500005 5.583187,0 5.962872,0.9678584 5.962872,15.1999995 0,12.133333 -0.104167,12.8 -2,12.8 -1.859649,0 -2,-0.666667 -2,-9.5 l 0,-9.5 -16,0 -16.0000004,0 0,16.465017 0,16.465017 10.2382734,0.284983 c 8.822133,0.245565 10.284618,0.52704 10.573325,2.034983 0.304176,1.588738 -0.780393,1.75 -11.769659,1.75 -8.8865038,0 -12.2347586,-0.338904 -12.59386736,-1.274727 z M 7.5444656,43.827743 c 0,-0.596924 3.8530064,-1 9.5590174,-1 6.118034,0 9.336542,0.359972 8.940983,1 -0.339919,0.55 -4.641476,1 -9.559017,1 -5.293989,0 -8.9409834,-0.407896 -8.9409834,-1 z m 0,-7.5 c 0,-1.233333 1.7777778,-1.5 10.0000004,-1.5 8.222222,0 10,0.266667 10,1.5 0,1.233333 -1.777778,1.5 -10,1.5 -8.2222226,0 -10.0000004,-0.266667 -10.0000004,-1.5 z m 0,-6.5 c 0,-0.613333 4.8333334,-1 12.5000004,-1 7.666667,0 12.5,0.386667 12.5,1 0,0.613333 -4.833333,1 -12.5,1 -7.666667,0 -12.5000004,-0.386667 -12.5000004,-1 z m 0,-8 c 0,-0.610837 4.6469944,-1 11.9409834,-1 6.881966,0 12.202824,0.423668 12.559017,1 0.399492,0.646391 -3.822949,1 -11.940983,1 -7.706011,0 -12.5590174,-0.386416 -12.5590174,-1 z M 12.042455,9.8244903 c -0.902796,-1.4607534 1.322969,-3.9967468 3.507824,-3.9967468 0.968509,0 1.99628,-0.9 2.283936,-1.9999996 0.656567,-2.5107179 3.185309,-2.5846994 4.903547,-0.1434593 0.718687,1.0210969 2.344796,2.1845439 3.613574,2.5854379 1.420402,0.448801 2.184781,1.368544 1.989156,2.3934594 -0.257389,1.3485041 -1.77122,1.7197311 -7.972792,1.9551131 -4.728835,0.179484 -7.911256,-0.123957 -8.325245,-0.7938047 z m 9.502011,-4.9967468 c 0,-0.5499996 -0.675,-0.9999996 -1.5,-0.9999996 -0.825,0 -1.5,0.45 -1.5,0.9999996 0,0.55 0.675,1 1.5,1 0.825,0 1.5,-0.45 1.5,-1 z"
     id="path4138"
     inkscape:connector-curvature="0" />
</svg>
