<?xml version="1.0" encoding="UTF-8" standalone="no"?>
<!-- Created with Inkscape (http://www.inkscape.org/) -->

<svg
   xmlns:dc="http://purl.org/dc/elements/1.1/"
   xmlns:cc="http://creativecommons.org/ns#"
   xmlns:rdf="http://www.w3.org/1999/02/22-rdf-syntax-ns#"
   xmlns:svg="http://www.w3.org/2000/svg"
   xmlns="http://www.w3.org/2000/svg"
   xmlns:sodipodi="http://sodipodi.sourceforge.net/DTD/sodipodi-0.dtd"
   xmlns:inkscape="http://www.inkscape.org/namespaces/inkscape"
   id="svg2"
   version="1.1"
   inkscape:version="0.91 r13725"
   width="55"
   height="62"
   viewBox="0 0 55 62"
   sodipodi:docname="advantages_icon_5.svg">
  <metadata
     id="metadata8">
    <rdf:RDF>
      <cc:Work
         rdf:about="">
        <dc:format>image/svg+xml</dc:format>
        <dc:type
           rdf:resource="http://purl.org/dc/dcmitype/StillImage" />
        <dc:title></dc:title>
      </cc:Work>
    </rdf:RDF>
  </metadata>
  <defs
     id="defs6" />
  <sodipodi:namedview
     pagecolor="#ffffff"
     bordercolor="#666666"
     borderopacity="1"
     objecttolerance="10"
     gridtolerance="10"
     guidetolerance="10"
     inkscape:pageopacity="0"
     inkscape:pageshadow="2"
     inkscape:window-width="1600"
     inkscape:window-height="837"
     id="namedview4"
     showgrid="false"
     inkscape:zoom="8.5818182"
     inkscape:cx="28.046055"
     inkscape:cy="30.976543"
     inkscape:window-x="-8"
     inkscape:window-y="-8"
     inkscape:window-maximized="1"
     inkscape:current-layer="svg2" />
  <path
     style="fill:#1d1d1d;fill-opacity:1"
     d="M 13.5,47.295989 C 6.35,41.235318 0.49999996,35.739091 0.49999996,35.08215 0.49999996,34.39183 2.2937336,33.757931 4.75,33.580214 L 9,33.272716 9.015313,19.580214 C 9.023733,12.049338 9.3945697,5.3142453 9.8393912,4.6133423 c 0.6159658,-0.970574 4.9629048,-1.2089622 18.2346878,-1 l 17.425922,0.27437 0.276411,14.6937927 0.276411,14.693792 4.145869,0.306208 c 2.280227,0.168414 4.294413,0.759418 4.475967,1.313342 C 55.020135,35.9489 28.861139,58.414486 27.361602,58.351551 26.887721,58.331661 20.650001,53.35666 13.500001,47.295989 Z m 24.825025,-2.908277 c 6.927019,-5.820466 7.497342,-6.556863 5.455358,-7.043921 -2.229626,-0.531814 -2.286543,-0.87125 -2.557116,-15.25 l -0.276733,-14.7060791 -13.446534,0 -13.446534,0 -0.276733,14.7060791 c -0.270386,14.368777 -0.328923,14.718554 -2.552165,15.25 -2.0123383,0.481031 -1.212578,1.433044 6.916914,8.233714 7.730923,6.46725 9.451126,7.500637 10.820073,6.5 0.89525,-0.654386 5.108812,-4.114793 9.36347,-7.689793 z M 25,38.109953 c 0,-0.702768 -0.9,-2.048363 -2,-2.990213 -3.248019,-2.78104 -2.5044,-4.068301 1.939644,-3.35767 5.324658,0.851447 6.18014,-1.009937 1.382325,-3.007705 C 24.219886,27.879076 22.169391,26.651007 21.765313,26.025321 20.398116,23.908317 20.989758,20.376907 23,18.655684 c 1.1,-0.94185 2,-2.287445 2,-2.990213 0,-0.702767 1.125,-1.277759 2.5,-1.277759 1.375,0 2.5,0.566754 2.5,1.259453 0,0.692699 0.9,1.821513 2,2.508474 1.1,0.686961 2,1.920208 2,2.740547 0,1.701883 -3.084239,2.007287 -4.632783,0.458743 -1.253735,-1.253735 -4.595082,-0.150811 -4.094321,1.35147 0.196583,0.58975 1.594372,1.403083 3.106197,1.807408 1.511825,0.404324 3.395003,1.271458 4.18484,1.926965 2.140313,1.776302 1.800672,6.702293 -0.563933,8.179013 -1.1,0.686961 -2,2.040775 -2,3.008474 0,1.210083 -0.780597,1.759453 -2.5,1.759453 -1.375,0 -2.5,-0.574992 -2.5,-1.277759 z"
     id="path4138"
     inkscape:connector-curvature="0" />
</svg>
