<?xml version="1.0" encoding="UTF-8" standalone="no"?>
<!-- Created with Inkscape (http://www.inkscape.org/) -->

<svg
   xmlns:dc="http://purl.org/dc/elements/1.1/"
   xmlns:cc="http://creativecommons.org/ns#"
   xmlns:rdf="http://www.w3.org/1999/02/22-rdf-syntax-ns#"
   xmlns:svg="http://www.w3.org/2000/svg"
   xmlns="http://www.w3.org/2000/svg"
   xmlns:sodipodi="http://sodipodi.sourceforge.net/DTD/sodipodi-0.dtd"
   xmlns:inkscape="http://www.inkscape.org/namespaces/inkscape"
   id="svg2"
   version="1.1"
   inkscape:version="0.91 r13725"
   width="80"
   height="62"
   viewBox="0 0 80 62"
   sodipodi:docname="advantages_icon_2.svg">
  <metadata
     id="metadata8">
    <rdf:RDF>
      <cc:Work
         rdf:about="">
        <dc:format>image/svg+xml</dc:format>
        <dc:type
           rdf:resource="http://purl.org/dc/dcmitype/StillImage" />
        <dc:title></dc:title>
      </cc:Work>
    </rdf:RDF>
  </metadata>
  <defs
     id="defs6" />
  <sodipodi:namedview
     pagecolor="#ffffff"
     bordercolor="#666666"
     borderopacity="1"
     objecttolerance="10"
     gridtolerance="10"
     guidetolerance="10"
     inkscape:pageopacity="0"
     inkscape:pageshadow="2"
     inkscape:window-width="1600"
     inkscape:window-height="837"
     id="namedview4"
     showgrid="false"
     inkscape:zoom="4.75"
     inkscape:cx="8.6315793"
     inkscape:cy="21"
     inkscape:window-x="-8"
     inkscape:window-y="-8"
     inkscape:window-maximized="1"
     inkscape:current-layer="svg2" />
  <path
     style="fill:#1d1d1d;fill-opacity:1"
     d="m 68.232539,47.876775 c 0.502704,-2.513521 0.33009,-2.913007 -1.03272,-2.390048 -0.899972,0.345351 -2.742006,-0.09657 -4.093409,-0.98204 -3.411315,-2.235179 -6.527463,-2.090935 -6.527463,0.302151 0,2.925552 -7.155838,3.822347 -12.44003,1.559029 -1.256777,-0.538301 -2.077608,-0.418217 -2.33067,0.340969 -0.27365,0.820949 -0.943754,0.875903 -2.237528,0.183497 -1.015788,-0.543634 -2.530641,-0.726044 -3.366341,-0.405356 -1.729537,0.663686 -6.546496,-2.47368 -6.594006,-4.294786 -0.04645,-1.78039 -4.499351,-5.923052 -7.096717,-6.602278 -1.24193,-0.324772 -3.053552,-0.164757 -4.025827,0.355588 -1.35235,0.723756 -2.195822,0.401907 -3.589275,-1.369581 -2.56167,-3.256636 -6.3880911,-4.133299 -7.0467792,-1.614472 -0.278349,1.064408 -1.1062445,1.935288 -1.8397677,1.935288 -0.7335231,0 -1.7722877,0.783751 -2.3083657,1.74167 -1.2948734,2.31381 -1.8981568,1.527204 -2.70671028,-3.529212 -0.6479644,-4.052147 -0.573594,-4.212458 1.95420908,-4.212458 2.2531202,0 2.6278082,-0.427757 2.6278082,-3 0,-1.65 -0.04032,-3.297047 -0.0896,-3.660105 -0.04928,-0.363059 0.6257202,-1.060419 1.5,-1.549691 0.8742802,-0.489271 1.5896,-1.494078 1.5896,-2.232905 0,-1.480024 2.1305456,-2.557299 5.0576176,-2.557299 1.041723,0 3.335625,-0.876678 5.097559,-1.948174 3.556472,-2.16282 4.844823,-1.894984 4.844823,1.007191 0,2.114732 -1.593143,2.661554 -2.225684,0.763932 -0.399676,-1.199029 -2.774316,-0.312981 -2.774316,1.03518 0,0.407052 1.6875,1.322246 3.75,2.033766 6.305815,2.175373 9.25,3.560642 9.25,4.352216 0,0.415739 0.45,0.755889 1,0.755889 0.55,0 1,-0.675 1,-1.5 0,-0.825 0.435877,-1.5 0.968615,-1.5 1.326656,0 0.10496,3.21566 -1.806601,4.755206 -1.335581,1.07566 -1.172807,1.223284 1.137947,1.03204 2.087567,-0.172772 2.56874,-0.625571 2.130861,-2.005206 -0.652531,-2.055943 2.089483,-2.557805 2.906897,-0.53204 0.384786,0.953599 0.523106,0.936662 0.583334,-0.07143 0.117125,-1.960459 2.241225,-3.7515 5.384839,-4.540497 3.551802,-0.891445 5.206614,0.03947 3.571791,2.009309 -1.047837,1.262566 -0.641282,1.39964 2.889151,0.974099 2.525309,-0.304387 4.250359,-0.0699 4.476488,0.608483 0.214947,0.644841 1.176284,0.251274 2.31229,-0.946641 1.069414,-1.127693 3.493896,-2.382634 5.387739,-2.788759 3.525776,-0.756084 6.056649,-2.573761 6.056649,-4.349893 0,-1.262999 6.122586,-4.373839 6.91233,-3.512102 0.323219,0.352682 0.02517,0.842134 -0.66233,1.087669 -1.413978,0.504992 -1.724112,3.279762 -0.366577,3.279762 1.343395,0 2.078017,5.33221 0.926467,6.724705 -0.705789,0.853465 -0.375789,2.54058 1.088658,5.565724 2.715723,5.609934 2.653639,6.576952 -0.247284,3.851676 -1.422257,-1.336141 -2.383557,-3.431238 -2.437012,-5.311326 -0.04855,-1.707642 -0.632638,-3.605648 -1.297969,-4.217791 -0.895222,-0.823657 -1.037335,-0.806002 -0.546676,0.06791 0.364659,0.649496 0.205676,1.463553 -0.353295,1.809017 -0.558972,0.345467 -1.016312,1.464028 -1.016312,2.485695 0,1.021668 -1.06913,2.68261 -2.375844,3.690983 -1.306714,1.008374 -2.645464,3.295907 -2.975,5.083407 -0.54188,2.939318 -0.366892,3.25 1.830531,3.25 1.951042,0 2.550182,0.642296 3.041343,3.260406 0.655629,3.494802 -0.827431,8.739594 -2.471279,8.739594 -0.578823,0 -0.745619,-1.27066 -0.396159,-3.017961 z"
     id="path4138"
     inkscape:connector-curvature="0" />
</svg>
