<?xml version="1.0" encoding="UTF-8" standalone="no"?>
<!-- Created with Inkscape (http://www.inkscape.org/) -->

<svg
   xmlns:dc="http://purl.org/dc/elements/1.1/"
   xmlns:cc="http://creativecommons.org/ns#"
   xmlns:rdf="http://www.w3.org/1999/02/22-rdf-syntax-ns#"
   xmlns:svg="http://www.w3.org/2000/svg"
   xmlns="http://www.w3.org/2000/svg"
   xmlns:sodipodi="http://sodipodi.sourceforge.net/DTD/sodipodi-0.dtd"
   xmlns:inkscape="http://www.inkscape.org/namespaces/inkscape"
   id="svg2"
   version="1.1"
   inkscape:version="0.91 r13725"
   width="72"
   height="62"
   viewBox="0 0 72 62"
   sodipodi:docname="advantages_icon_4.svg">
  <metadata
     id="metadata8">
    <rdf:RDF>
      <cc:Work
         rdf:about="">
        <dc:format>image/svg+xml</dc:format>
        <dc:type
           rdf:resource="http://purl.org/dc/dcmitype/StillImage" />
        <dc:title></dc:title>
      </cc:Work>
    </rdf:RDF>
  </metadata>
  <defs
     id="defs6" />
  <sodipodi:namedview
     pagecolor="#ffffff"
     bordercolor="#666666"
     borderopacity="1"
     objecttolerance="10"
     gridtolerance="10"
     guidetolerance="10"
     inkscape:pageopacity="0"
     inkscape:pageshadow="2"
     inkscape:window-width="1600"
     inkscape:window-height="837"
     id="namedview4"
     showgrid="false"
     inkscape:zoom="7.4639052"
     inkscape:cx="17.962995"
     inkscape:cy="41.887396"
     inkscape:window-x="-8"
     inkscape:window-y="-8"
     inkscape:window-maximized="1"
     inkscape:current-layer="svg2" />
  <path
     style="fill:#1d1d1d;fill-opacity:1"
     d="m 21.435172,46.57846 c -1.96494,-1.964939 -2.005009,-2.579351 -0.318618,-4.885628 2.741897,-3.749767 9.542469,0.236343 7.08673,4.15384 -1.480447,2.36167 -4.78133,2.718571 -6.768112,0.731788 z m 36.575354,0.318212 c -0.66,-0.66 -1.2,-1.92 -1.2,-2.8 0,-3.957668 6.104901,-5.541025 7.964816,-2.065741 1.338794,2.501558 1.322845,2.635223 -0.536245,4.494312 -1.871519,1.87152 -4.567698,2.032302 -6.228571,0.371429 z M 11.477193,44.430005 c -0.366667,-0.366666 -0.666667,-3.49315 -0.666667,-6.94774 l 0,-6.281074 -5.2499997,-0.302259 c -2.8875,-0.166243 -5.25000001,-0.75226 -5.25000001,-1.30226 0,-0.55 2.36250001,-1.136017 5.25000001,-1.30226 5.2951207,-0.304857 7.1644637,-1.786741 3,-2.378189 -1.2375,-0.175753 -2.25,-0.769551 -2.25,-1.319551 0,-0.55 1.0125,-1.143798 2.25,-1.319551 3.8431797,-0.545818 2.4687727,-2.180449 -1.8333333,-2.180449 -5.1757038,0 -4.8813673,-2.36248 0.3496849,-2.806732 3.0851201,-0.262007 3.6570921,-0.699439 3.9227001,-3 l 0.310948,-2.693268 19,0 19,0 0,16 0,16 -9.25,0.287526 c -8.49277,0.263988 -9.25,0.133416 -9.25,-1.595013 0,-2.717248 -3.181371,-5.192513 -6.673753,-5.192513 -3.234094,0 -6.326247,2.60459 -6.326247,5.328741 0,1.168441 -0.852441,1.671259 -2.833333,1.671259 -1.558334,0 -3.133334,-0.3 -3.5,-0.666667 z m 39.333333,-11.833333 0,-11.5 6.951059,0 6.951059,0 3.548941,6.3461 c 2.785313,4.980605 3.548941,7.455069 3.548941,11.5 0,4.487233 -0.258704,5.1539 -2,5.1539 -1.1,0 -2,-0.605256 -2,-1.345012 0,-2.177505 -3.714961,-4.904988 -6.680825,-4.904988 -1.853523,0 -3.595706,1.016497 -5.355962,3.125 -4.393317,5.262485 -4.963213,4.300834 -4.963213,-8.375 z m 14.14614,-4.75 c -1.679995,-2.663066 -2.7813,-3.305533 -6.098201,-3.557498 -4.029635,-0.306107 -4.047939,-0.291412 -4.047939,3.25 l 0,3.557498 6.098201,0 6.098202,0 -2.050263,-3.25 z"
     id="path4138"
     inkscape:connector-curvature="0" />
</svg>
