<?xml version="1.0" encoding="UTF-8" standalone="no"?>
<!-- Created with Inkscape (http://www.inkscape.org/) -->

<svg
   xmlns:dc="http://purl.org/dc/elements/1.1/"
   xmlns:cc="http://creativecommons.org/ns#"
   xmlns:rdf="http://www.w3.org/1999/02/22-rdf-syntax-ns#"
   xmlns:svg="http://www.w3.org/2000/svg"
   xmlns="http://www.w3.org/2000/svg"
   xmlns:sodipodi="http://sodipodi.sourceforge.net/DTD/sodipodi-0.dtd"
   xmlns:inkscape="http://www.inkscape.org/namespaces/inkscape"
   id="svg2"
   version="1.1"
   inkscape:version="0.91 r13725"
   width="64"
   height="46"
   viewBox="0 0 64 46"
   sodipodi:docname="footer_vk.svg">
  <metadata
     id="metadata8">
    <rdf:RDF>
      <cc:Work
         rdf:about="">
        <dc:format>image/svg+xml</dc:format>
        <dc:type
           rdf:resource="http://purl.org/dc/dcmitype/StillImage" />
        <dc:title></dc:title>
      </cc:Work>
    </rdf:RDF>
  </metadata>
  <defs
     id="defs6" />
  <sodipodi:namedview
     pagecolor="#ffffff"
     bordercolor="#666666"
     borderopacity="1"
     objecttolerance="10"
     gridtolerance="10"
     guidetolerance="10"
     inkscape:pageopacity="0"
     inkscape:pageshadow="2"
     inkscape:window-width="1600"
     inkscape:window-height="837"
     id="namedview4"
     showgrid="false"
     inkscape:zoom="11.875"
     inkscape:cx="23.533367"
     inkscape:cy="26.510032"
     inkscape:window-x="-8"
     inkscape:window-y="-8"
     inkscape:window-maximized="1"
     inkscape:current-layer="svg2" />
  <path
     style="fill:#e7e8ef;fill-opacity:0.94117647"
     d="M 21.793393,38.936665 C 19.340657,37.381186 15.40034,33.911912 13.037134,31.227168 7.6726725,25.132818 -0.95797492,8.1841357 0.54020214,6.6859587 1.1133723,6.1127887 3.7774631,5.7835507 6.4604039,5.9543197 l 4.8780741,0.310489 5.244073,8.0000003 c 2.88424,4.4 5.794098,8 6.466352,8 1.514494,0 2.581702,-3.651643 2.712769,-9.282224 0.08295,-3.5633233 -0.274358,-4.4205903 -2.128322,-5.1064163 -2.162411,-0.799928 -2.134434,-0.872577 0.95034,-2.467775 1.748088,-0.903972 5.209856,-1.643585 7.692818,-1.643585 5.547585,0 7.108172,2.165257 6.221745,8.6324423 -0.745874,5.441747 0.192734,10.367558 1.975527,10.367558 0.749336,0 2.954482,-3.161396 4.900326,-7.025325 4.826154,-9.5834633 6.590621,-11.2149323 11.275401,-10.4255113 5.92514,0.998431 7.211845,1.505116 7.211845,2.839918 0,0.689869 -2.471228,4.8046693 -5.491618,9.1440003 l -5.491618,7.889693 4.975192,4.94918 c 8.303623,8.260208 7.750008,11.628045 -1.911453,11.628045 -5.302726,0 -5.930578,-0.262137 -9.580503,-4 -5.631286,-5.76696 -10.5,-4.87007 -10.5,1.934259 0,3.344671 -8.301155,2.894796 -14.067959,-0.762403 z"
     id="path4138"
     inkscape:connector-curvature="0" />
</svg>
