<svg xmlns="http://www.w3.org/2000/svg" viewBox="5742 3057 31.504 31.45"><defs><style>.cls-1{fill:#fff}</style></defs><g id="cake1" transform="translate(5742 3056.595)"><path id="Path_322" data-name="Path 322" class="cls-1" d="M30 17.436h-1.188V6.484A3.188 3.188 0 0 0 25.628 3.3h-.64c-.4-1.125-2.013-1.88-2.22-1.973a.5.5 0 0 0-.411 0c-.207.093-1.824.848-2.22 1.973h-1.06c-.434-1.6-2.823-2.718-3.12-2.851a.5.5 0 0 0-.411 0C15.25.582 12.861 1.7 12.427 3.3h-1.059c-.4-1.125-2.013-1.88-2.22-1.973a.5.5 0 0 0-.411 0c-.207.093-1.824.848-2.22 1.973h-.64a3.188 3.188 0 0 0-3.185 3.184v10.952H1.508a1.508 1.508 0 0 0 0 3.016h9.119a2.518 2.518 0 0 0 2.463 2.011h.886v2.456a3.834 3.834 0 0 0-2.042 2.914h-1.727a2.749 2.749 0 0 0-2.345 1.524L7.2 30.85H6.185a.5.5 0 1 0 0 1.005h19.134a.5.5 0 0 0 0-1.005h-1.014l-.663-1.493a2.749 2.749 0 0 0-2.342-1.524h-1.731a3.834 3.834 0 0 0-2.042-2.914v-2.456h.886a2.518 2.518 0 0 0 2.463-2.011H30a1.508 1.508 0 0 0 0-3.016zM22.562 2.345a4.379 4.379 0 0 1 1.28.956h-2.56a4.375 4.375 0 0 1 1.28-.956zm-6.809-.88A5.625 5.625 0 0 1 18 3.3h-4.5a5.653 5.653 0 0 1 2.252-1.835zm-6.81.88a4.379 4.379 0 0 1 1.28.956H7.662a4.376 4.376 0 0 1 1.28-.956zM5.876 4.306h19.752a2.181 2.181 0 0 1 2.178 2.178v1.542a3.509 3.509 0 0 0-1.914.965 2.434 2.434 0 0 1-3.539 0 3.423 3.423 0 0 0-4.833 0 2.433 2.433 0 0 1-3.538 0 3.422 3.422 0 0 0-4.833 0 3.293 3.293 0 0 1-.942.625.5.5 0 0 0-.324.47v2.767a.5.5 0 0 1-1.005 0v-2.759a.5.5 0 0 0-.324-.478 3.3 3.3 0 0 1-.942-.625A3.508 3.508 0 0 0 3.7 8.026V6.484a2.181 2.181 0 0 1 2.176-2.178zM3.7 9.044a2.679 2.679 0 0 1 1.266.716 5.006 5.006 0 0 0 .908.649v2.444a1.508 1.508 0 1 0 3.016 0V10.41a5.011 5.011 0 0 0 .91-.65 2.433 2.433 0 0 1 3.538 0 3.422 3.422 0 0 0 4.833 0 2.433 2.433 0 0 1 3.538 0 3.423 3.423 0 0 0 4.834 0 2.68 2.68 0 0 1 1.267-.717v8.392H3.7V9.044zM16.833 25.7a2.835 2.835 0 0 1 1.719 2.129h-2.8a.5.5 0 1 0 0 1.005H21.3a1.748 1.748 0 0 1 1.426.926l.482 1.084H8.3l.482-1.084a1.748 1.748 0 0 1 1.426-.926h3.538a.5.5 0 1 0 0-1.005h-.793a2.835 2.835 0 0 1 1.718-2.129.5.5 0 0 0 .311-.465v-2.772h1.539v2.777a.5.5 0 0 0 .312.46zm1.58-4.247h-5.322a1.511 1.511 0 0 1-1.422-1.005h8.166a1.511 1.511 0 0 1-1.421 1.01zM30 19.447H1.508a.5.5 0 0 1 0-1.005H30a.5.5 0 1 1 0 1.005z"/><ellipse id="Ellipse_2" data-name="Ellipse 2" class="cls-1" cx=".503" cy=".503" rx=".503" ry=".503" transform="translate(22.166 14.834)"/><ellipse id="Ellipse_3" data-name="Ellipse 3" class="cls-1" cx=".503" cy=".503" rx=".503" ry=".503" transform="translate(24.177 12.823)"/></g></svg>