<svg xmlns="http://www.w3.org/2000/svg" viewBox="5176 858 35 31.445"><defs><style>.cls-1{fill:#fff}</style></defs><g id="cake" transform="translate(5176 832.001)"><path id="Path_3" data-name="Path 3" class="cls-1" d="M56.191 49.109a2.053 2.053 0 0 0 1.253-1.919v-5.468a2 2 0 0 0-1.937-2.051h-3.19v-4.762a1.383 1.383 0 0 0-.37-.941 2.8 2.8 0 0 0 .186-3.09 10.467 10.467 0 0 0-1.679-2.591.684.684 0 0 0-1.035 0c-2.052 2.377-2.577 4.376-1.5 5.665a1.384 1.384 0 0 0-.384.957v4.762h-3.421v-6.813a1.383 1.383 0 0 0-.37-.941 2.8 2.8 0 0 0 .186-3.09 10.471 10.471 0 0 0-1.679-2.591.684.684 0 0 0-1.035 0c-2.051 2.376-2.577 4.376-1.5 5.665a1.384 1.384 0 0 0-.384.957v6.813h-3.421v-4.762a1.383 1.383 0 0 0-.37-.941 2.8 2.8 0 0 0 .186-3.09 10.466 10.466 0 0 0-1.679-2.591.684.684 0 0 0-1.035 0c-2.052 2.376-2.577 4.376-1.5 5.665a1.384 1.384 0 0 0-.384.957v4.762h-3.19A2 2 0 0 0 26 41.722v5.468a2.053 2.053 0 0 0 1.253 1.919v6.285a2.149 2.149 0 0 0 .111.684h-.478a.684.684 0 1 0 0 1.367h29.672a.684.684 0 0 0 0-1.367h-.478a2.15 2.15 0 0 0 .111-.684zm-6.257-19.283c.822 1.117 1.614 2.634.9 3.329a1.279 1.279 0 0 1-.9.363h-.009a1.252 1.252 0 0 1-.887-.358c-.784-.787.162-2.36.896-3.334zM48.9 34.909a.025.025 0 0 1 .023-.023h2a.025.025 0 0 1 .023.023v4.762H48.9v-4.762zm-7.169-7.133c.822 1.117 1.614 2.634.9 3.329a1.279 1.279 0 0 1-.9.363h-.009a1.252 1.252 0 0 1-.887-.358c-.784-.788.165-2.361.896-3.334zm1.016 5.082v6.813H40.7v-6.813a.025.025 0 0 1 .023-.023h2a.025.025 0 0 1 .024.023zm-9.219-3.032c.822 1.116 1.614 2.634.9 3.329a1.279 1.279 0 0 1-.9.363h-.009a1.252 1.252 0 0 1-.887-.358c-.784-.787.168-2.36.896-3.334zm-1.035 5.082a.025.025 0 0 1 .023-.023h2a.025.025 0 0 1 .023.023v4.762h-2.046v-4.761zm22.331 14.767H52.7a.684.684 0 0 0 0 1.367h2.122v4.352a.643.643 0 0 1-.569.684H29.189a.643.643 0 0 1-.569-.684v-.524h2.122a.684.684 0 0 0 0-1.367h-2.123v-4.394a2.053 2.053 0 0 0 1.253-1.919v-2.034a.718.718 0 1 1 1.418 0v2.807a2.08 2.08 0 1 0 4.152 0v-2.807a.719.719 0 1 1 1.418 0v.175a2.08 2.08 0 1 0 4.152 0v-.175a.719.719 0 1 1 1.418 0V46.6a2.08 2.08 0 1 0 4.152 0v-1.444a.719.719 0 1 1 1.418 0v.175a2.08 2.08 0 1 0 4.152 0v-.175a.719.719 0 1 1 1.418 0v2.034a2.053 2.053 0 0 0 1.253 1.919zm1.253-2.484a.579.579 0 1 1-1.139 0v-2.035a2.08 2.08 0 1 0-4.152 0v.175a.718.718 0 1 1-1.418 0v-.175a2.08 2.08 0 1 0-4.152 0V46.6a.718.718 0 1 1-1.418 0v-1.444a2.08 2.08 0 1 0-4.152 0v.175a.718.718 0 1 1-1.418 0v-.175a2.08 2.08 0 1 0-4.152 0v2.807a.719.719 0 1 1-1.418 0v-2.807a2.08 2.08 0 1 0-4.152 0v2.034a.579.579 0 1 1-1.139 0v-5.468a.643.643 0 0 1 .57-.684h27.571a.643.643 0 0 1 .57.684v5.469z" transform="translate(-24.222)"/><path id="Path_4" data-name="Path 4" class="cls-1" d="M492.464 466h-.016a.684.684 0 0 0 0 1.367h.016a.684.684 0 0 0 0-1.367z" transform="translate(-458.147 -409.923)"/><path id="Path_5" data-name="Path 5" class="cls-1" d="M.7 466H.684a.684.684 0 1 0 0 1.367H.7A.684.684 0 1 0 .7 466z" transform="translate(0 -409.923)"/><path id="Path_6" data-name="Path 6" class="cls-1" d="M114.8 428.342h-.016a.684.684 0 0 0 0 1.367h.016a.684.684 0 0 0 0-1.367z" transform="translate(-106.299 -374.839)"/><path id="Path_7" data-name="Path 7" class="cls-1" d="M378.364 372.343h-.016a.684.684 0 0 0 0 1.367h.016a.684.684 0 0 0 0-1.367z" transform="translate(-351.847 -322.668)"/><path id="Path_8" data-name="Path 8" class="cls-1" d="M227.786 367.345h-1.3a.684.684 0 1 0 0 1.367h1.3a.684.684 0 0 0 0-1.367z" transform="translate(-210.368 -318.012)"/><path id="Path_9" data-name="Path 9" class="cls-1" d="M161.376 395.849h-.889a.684.684 0 0 0 0 1.367h.889a.684.684 0 0 0 0-1.367z" transform="translate(-148.88 -344.567)"/><path id="Path_10" data-name="Path 10" class="cls-1" d="M375.06 428.342h-1.572a.684.684 0 1 0 0 1.367h1.572a.684.684 0 0 0 0-1.367z" transform="translate(-347.319 -374.839)"/><path id="Path_11" data-name="Path 11" class="cls-1" d="M311.876 386.349h-.889a.684.684 0 0 0 0 1.367h.889a.684.684 0 0 0 0-1.367z" transform="translate(-289.092 -335.717)"/><path id="Path_12" data-name="Path 12" class="cls-1" d="M255.876 428.342h-.889a.684.684 0 0 0 0 1.367h.889a.684.684 0 1 0 0-1.367z" transform="translate(-236.92 -374.839)"/></g></svg>