<svg xmlns="http://www.w3.org/2000/svg" viewBox="5933 4049.866 74 295.134"><defs><style>.cls-1,.cls-2{fill:#fff}.cls-2{fill-rule:evenodd}.cls-3{fill:none;stroke:#fff}</style></defs><g id="insta" transform="translate(4782 385)"><g id="instagram" transform="rotate(-90 2518.169 1367.069)"><path id="Path_326" data-name="Path 326" class="cls-1" d="M29.237 1.841a1.019 1.019 0 0 0-.188.376 3.216 3.216 0 0 0-.125 1 5.932 5.932 0 0 0 .25 1.878v23.353a35.188 35.188 0 0 1-.689 6.887 16.488 16.488 0 0 1-2.442 5.885 12.409 12.409 0 0 1-4.7 4.069 17.109 17.109 0 0 1-7.638 1.5h-.939a17.011 17.011 0 0 1-6.511-1.064 10.29 10.29 0 0 1-3.882-2.755A9.016 9.016 0 0 1 .5 39.279 17.379 17.379 0 0 1 0 35.4a12.349 12.349 0 0 1 .376-3.005A8.648 8.648 0 0 1 1.5 29.826a5.393 5.393 0 0 1 1.816-1.753 4.408 4.408 0 0 1 2.384-.689c.876 0 1.377.25 1.628.689A2.681 2.681 0 0 1 7.7 29.45a4.593 4.593 0 0 1-.626 2.567A13.806 13.806 0 0 1 5.7 33.832c-.5.5-.939 1.064-1.377 1.565a2.729 2.729 0 0 0-.626 1.878 5.436 5.436 0 0 0 2.254 4.883 9.944 9.944 0 0 0 5.635 1.5 10.207 10.207 0 0 0 5.134-1.19 12.273 12.273 0 0 0 3.631-3.005 13.034 13.034 0 0 0 2.129-4.007 13.868 13.868 0 0 0 .689-4.069l-1.064.063a7.8 7.8 0 0 1-4.382-1.19 10.778 10.778 0 0 1-3.13-2.942 12.6 12.6 0 0 1-1.821-3.818 14.7 14.7 0 0 1-.626-3.819v-2.439a15.614 15.614 0 0 1 .376-3.13 33.754 33.754 0 0 1 1-3.756 28.782 28.782 0 0 1 1.565-3.819 18.639 18.639 0 0 1 2-3.318 9.173 9.173 0 0 1 2.258-2.38A4 4 0 0 1 21.787-.1a4.209 4.209 0 0 1 1.127.188l4.946.375A6.319 6.319 0 0 1 28.8.9a.988.988 0 0 1 .437.941zm-6.073 8.514c.125-.376.188-.751.313-1.064a5.615 5.615 0 0 0 .123-1.127 2.759 2.759 0 0 0-.438-1.628 1.789 1.789 0 0 0-1.628-.751 3.2 3.2 0 0 0-2.564 1.252 8.482 8.482 0 0 0-1.5 3.005 17.565 17.565 0 0 0-.751 3.694c-.125 1.252-.188 2.316-.188 3.13 0 .626.063 1.5.125 2.629a13.446 13.446 0 0 0 .689 3.443 10.013 10.013 0 0 0 1.5 2.942 2.958 2.958 0 0 0 2.567 1.252 5.813 5.813 0 0 0 .814-.063 7.264 7.264 0 0 0 1-.188V10.355z"/><path id="Path_327" data-name="Path 327" class="cls-1" d="M65.844 38.658a17.956 17.956 0 0 0-1.753 3.255q-.657 1.878-1.127 3.756c-.313 1.315-.626 2.567-.814 3.882s-.438 2.5-.689 3.694c-.063.313-.438.5-1.064.563a6.433 6.433 0 0 1-1.377.125 16.472 16.472 0 0 1-2.066-.125 1.8 1.8 0 0 1-1.254-.688 4.007 4.007 0 0 1-.626-1.628c-.125-.751-.25-1.69-.376-2.942l.939-20.91c0-.626.313-.939 1-.939a8.574 8.574 0 0 1 1 .125 10.007 10.007 0 0 1 1.315.313 4.245 4.245 0 0 1 1.19.5.883.883 0 0 1 .5.751v14.337a1.369 1.369 0 0 0 .188-.563c.313-.876.751-1.878 1.19-3.13a30.709 30.709 0 0 1 1.565-3.569 17.565 17.565 0 0 1 1.816-2.88 2.481 2.481 0 0 1 1.941-1.19 2.591 2.591 0 0 1 1.941.626 3.193 3.193 0 0 1 1 1.5 6.7 6.7 0 0 1 .438 2c.063.689.063 1.377.063 2.066 0 .5-.063 1.252-.125 2.316-.125 1.064-.125 2.692-.125 4.883a13.438 13.438 0 0 0 .376 3.318c.25 1 .689 1.5 1.44 1.5a2.083 2.083 0 0 0 1.44-.689 9.524 9.524 0 0 0 1.19-1.753 12.051 12.051 0 0 0 .876-2.254 10.952 10.952 0 0 0 .438-2.254c.063-.876.376-1.315 1.064-1.315a.887.887 0 0 1 .876.438 2.6 2.6 0 0 1 .188 1v.125a23.657 23.657 0 0 1-.5 3.193 15.274 15.274 0 0 1-1.315 3.318 8.466 8.466 0 0 1-2.307 2.642 5.636 5.636 0 0 1-3.443 1.064c-2.129 0-3.443-.751-4.069-2.316a20.675 20.675 0 0 1-.876-6.824z" transform="translate(-20.455 -10.022)"/><path id="Path_328" data-name="Path 328" class="cls-1" d="M106.154 50.162a3.234 3.234 0 0 1-1.127 2.629 6.68 6.68 0 0 1-2.567 1.315 11.589 11.589 0 0 1-2.88.5c-.939.063-1.628.125-2.066.125a19.651 19.651 0 0 1-2.442-.188 15.4 15.4 0 0 1-2.817-.689 6.41 6.41 0 0 1-2.316-1.315A2.712 2.712 0 0 1 89 50.413a1.047 1.047 0 0 1 .626-1.064 2.808 2.808 0 0 1 1.19-.313 2.5 2.5 0 0 1 1.5.563c.5.376 1 .751 1.565 1.19a13 13 0 0 0 1.816 1.19 4.631 4.631 0 0 0 2.254.563 4.329 4.329 0 0 0 1.5-.376 1.355 1.355 0 0 0 .939-1.377 2.567 2.567 0 0 0-.814-1.878 15.42 15.42 0 0 0-2.066-1.878c-.814-.689-1.69-1.315-2.629-2.066a18.339 18.339 0 0 1-2.629-2.316 14.013 14.013 0 0 1-2.066-2.692 6.449 6.449 0 0 1-.814-3.255 5.768 5.768 0 0 1 1.565-4.132 12.488 12.488 0 0 1 3.763-2.694 18.913 18.913 0 0 1 4.382-1.44 18.088 18.088 0 0 1 3.503-.438 6.232 6.232 0 0 1 2.379.5 1.8 1.8 0 0 1 1.19 1.878 6.029 6.029 0 0 1-.188 1.252 6.661 6.661 0 0 1-.566 1.57 5.56 5.56 0 0 1-1 1.377 2.38 2.38 0 0 1-1.628.626.765.765 0 0 1-.563-.25 5.645 5.645 0 0 0-.626-.563l-.751-.563a1.437 1.437 0 0 0-.876-.25 3.9 3.9 0 0 0-3.443 1.44 5.133 5.133 0 0 0-1 3.068 4.29 4.29 0 0 0 1.628 2.942 48.251 48.251 0 0 0 3.694 3.13c1.315 1.064 2.567 2.066 3.694 3.068a4.29 4.29 0 0 1 1.625 2.937z" transform="translate(-33.281 -10.508)"/><path id="Path_329" data-name="Path 329" class="cls-1" d="M114.787 31.9q.094-3.569.188-7.325c.063-2.5.188-4.821.313-6.887q0-.563-1.127-.751c-.751-.125-1.628-.313-2.567-.438a10.262 10.262 0 0 1-2.567-.689 1.574 1.574 0 0 1-1.127-1.5c0-.626.626-.939 1.816-1.064 1.252-.063 3.005-.125 5.447-.125.188 0 .313-.313.376-.876a18.532 18.532 0 0 0 .125-2.129c0-.876.063-1.816.063-2.755 0-1 .063-1.941.125-2.755a15.347 15.347 0 0 1 .25-2.129c.125-.563.25-.876.438-.876.25 0 .689.063 1.252.125.626.063 1.252.25 1.878.376a9.443 9.443 0 0 1 1.753.626q.751.376.751.751l-.751 9.14c0 .313.25.5.751.626a7.9 7.9 0 0 0 1.878.188c.751 0 1.628.063 2.442.063a14.875 14.875 0 0 1 2.442.188 4.715 4.715 0 0 1 1.878.689 1.5 1.5 0 0 1 .751 1.377 1.593 1.593 0 0 1-.125.438c-.125.188-.188.313-.376.313a.541.541 0 0 1-.376-.188 2.84 2.84 0 0 0-1.315-.188c-.188 0-.689 0-1.565.063s-1.753.125-2.692.188c-.939.125-1.816.188-2.567.313s-1.189.25-1.315.438a6.827 6.827 0 0 0-.188 1.628c-.063 1-.125 2.316-.188 4.007a577.87 577.87 0 0 0-.188 5.7c-.063 2.129-.063 4.382-.063 6.761 0 .876.063 1.753.125 2.629a12.677 12.677 0 0 0 .438 2.316 4.381 4.381 0 0 0 .751 1.628 1.307 1.307 0 0 0 1.064.626 2.336 2.336 0 0 0 1.69-.751 8.387 8.387 0 0 0 1.44-2.129 16.74 16.74 0 0 0 1.127-3.005c.313-1.127.626-2.254.876-3.443a4.609 4.609 0 0 1 .5-1.5.887.887 0 0 1 .876-.438 1.5 1.5 0 0 1 .876.313c.25.188.376.689.376 1.44a3.349 3.349 0 0 1-.063.939c-.125.876-.438 2-.814 3.506a23.167 23.167 0 0 1-1.628 4.382 14.571 14.571 0 0 1-2.5 3.756 4.613 4.613 0 0 1-3.443 1.628 5.526 5.526 0 0 1-3.318-1.064 8.894 8.894 0 0 1-2.379-3.005 17.824 17.824 0 0 1-1.44-4.57 32.157 32.157 0 0 1-.5-5.7V31.9z" transform="translate(-40.348 -.636)"/><path id="Path_330" data-name="Path 330" class="cls-1" d="M169.022 44.414a10.407 10.407 0 0 1-.689 2.316 14.885 14.885 0 0 1-1.44 2.567 8.1 8.1 0 0 1-2.066 2.066 4.24 4.24 0 0 1-2.567.876 5.036 5.036 0 0 1-3.694-1.628 7.693 7.693 0 0 1-1.941-4.57c-.313.751-.626 1.628-1 2.629a14.391 14.391 0 0 1-1.44 2.755 7.969 7.969 0 0 1-1.941 2.129 4.107 4.107 0 0 1-2.567.876 1.571 1.571 0 0 1-.626-.063c-.125-.063-.313-.125-.438-.188l-.563-.188a3.327 3.327 0 0 0-.876-.063 4.305 4.305 0 0 1-2.88-1.064 8.919 8.919 0 0 1-1.878-2.755 13.96 13.96 0 0 1-1-3.694 26.806 26.806 0 0 1-.313-3.756 65.139 65.139 0 0 1 .438-8.014 32.716 32.716 0 0 1 1.5-6.761 12.314 12.314 0 0 1 2.755-4.633 5.642 5.642 0 0 1 4.069-1.753 6.352 6.352 0 0 1 2.129.25c.5.188.939.376 1.377.563s.876.438 1.377.689a6.909 6.909 0 0 0 2.066.563 4.913 4.913 0 0 1 2.066 2 8.31 8.31 0 0 1 .751 2.5 19.834 19.834 0 0 1 .125 2.755 14.8 14.8 0 0 0 .125 2.88c0 .063.125.125.313.188a4.542 4.542 0 0 0 .751.313 3.146 3.146 0 0 1 .751.5 1.19 1.19 0 0 1 .313.814v.25a13.413 13.413 0 0 0-.876 3.255 27.281 27.281 0 0 0-.125 3.381c0 .689.063 1.377.125 2.129a12.318 12.318 0 0 0 .376 2.191 5.291 5.291 0 0 0 .751 1.69 1.523 1.523 0 0 0 1.252.689 1.928 1.928 0 0 0 1.5-.876 8.316 8.316 0 0 0 1.127-1.941 15.12 15.12 0 0 0 .751-2.191q.282-1.127.376-1.69c.063-.563.313-.876.689-.876a.963.963 0 0 1 .689.376 2.33 2.33 0 0 1 .313 1.377v.5a.718.718 0 0 1 .065.637zm-13.084-11.395c0-.5-.063-1.127-.125-1.816a10.425 10.425 0 0 0-.5-2 3.877 3.877 0 0 0-1.064-1.565 2.729 2.729 0 0 0-1.878-.626 3.746 3.746 0 0 0-3.193 1.816 15.7 15.7 0 0 0-1.941 4.257 33.639 33.639 0 0 0-.939 5.008c-.125 1.69-.188 3.068-.188 4.069 0 .751.063 1.628.125 2.692a21.882 21.882 0 0 0 .376 3.005 7.568 7.568 0 0 0 .814 2.379 1.559 1.559 0 0 0 1.377 1 3.544 3.544 0 0 0 3.13-1.565 11.34 11.34 0 0 0 1.628-3.944 39.059 39.059 0 0 0 .814-5.071c.188-1.816.313-3.443.438-4.946.125-.814.313-1.315.626-1.5s.5-.376.5-.438z" transform="translate(-52.763 -8.077)"/><path id="Path_331" data-name="Path 331" class="cls-1" d="M205.677 54.229a.966.966 0 0 1-.626 1 3.061 3.061 0 0 1-1.189.313l-1.44-.125c-.25 0-.376.125-.376.438l-.063.876c.063 1.252.063 2.88.063 4.821v5.572a79.72 79.72 0 0 1-.188 5.509 22.067 22.067 0 0 1-.814 4.883 8.567 8.567 0 0 1-1.816 3.443 3.976 3.976 0 0 1-3.193 1.315c-1.19 0-2.379-.063-3.694-.188a12 12 0 0 1-3.506-.876 7.165 7.165 0 0 1-2.629-2.066 6.01 6.01 0 0 1-1-3.694 20.991 20.991 0 0 1 .563-4.758 29.334 29.334 0 0 1 1.5-4.7 29.672 29.672 0 0 1 2.379-4.382 25.685 25.685 0 0 1 3.005-3.694c.563-.563 1.189-1.127 1.878-1.753a59.82 59.82 0 0 1 1.816-1.44v-.063c.063-1 .188-2 .188-2.942.063-1 .063-2 .063-3.005-.25.438-.5 1-.876 1.753a11.109 11.109 0 0 1-1.189 2.066 8.215 8.215 0 0 1-1.5 1.753 2.8 2.8 0 0 1-1.941.751 2.6 2.6 0 0 1-1-.188 3.155 3.155 0 0 0-1.19-.188 6.721 6.721 0 0 1-3.318-1.064 6.072 6.072 0 0 1-2.066-2.567 13.089 13.089 0 0 1-1-3.819 39.467 39.467 0 0 1-.313-4.946 64.059 64.059 0 0 1 .376-6.824 27.921 27.921 0 0 1 1.372-6.44 15.313 15.313 0 0 1 2.629-4.821 5.385 5.385 0 0 1 4.195-1.878 2.165 2.165 0 0 1 .751.188c.313.125.626.313 1 .438.376.188.689.313 1.064.5a4.952 4.952 0 0 0 .814.313 26.681 26.681 0 0 1 2.629.689 7.987 7.987 0 0 1 2.066 1.064 4.63 4.63 0 0 1 1.315 1.753 6.884 6.884 0 0 1 .5 2.692 10.554 10.554 0 0 1-.185 2.062 11.909 11.909 0 0 0-.188 2.316.757.757 0 0 0 .376.751 7.288 7.288 0 0 0 .939.376c.376.125.626.188.939.313a.709.709 0 0 1 .438.751 2.587 2.587 0 0 1-.313.689c-.188.376-.313.563-.376.689a12.533 12.533 0 0 0-.376 1.816 17.575 17.575 0 0 0-.188 2.692c-.063.939-.063 1.941-.125 2.942 0 1-.063 1.941-.063 2.692v2.442c0 1 0 1.816.063 2.5h.313a.681.681 0 0 0 .313-.063.63.63 0 0 0 .188-.063 5.876 5.876 0 0 1 1.753.376c.876.133 1.253.509 1.253 1.01zm-8.953-21.787c0-.5-.063-1.127-.125-1.753a9.209 9.209 0 0 0-.5-1.878 4.858 4.858 0 0 0-1-1.5 2.544 2.544 0 0 0-1.69-.626 3.737 3.737 0 0 0-2.5 1.064 8.737 8.737 0 0 0-2.066 3.005 24.592 24.592 0 0 0-1.44 4.7 32.072 32.072 0 0 0-.563 6.323c0 1 .063 2 .125 3.068a18.934 18.934 0 0 0 .376 2.88 7.63 7.63 0 0 0 .751 2.129 1.644 1.644 0 0 0 1.377.876 3.511 3.511 0 0 0 2.629-1.252 10.947 10.947 0 0 0 1.878-3.13 21.16 21.16 0 0 0 1.127-3.882 19.783 19.783 0 0 0 .438-3.506 16.24 16.24 0 0 1 .25-2.755 2.575 2.575 0 0 1 .313-.939 2.492 2.492 0 0 0 .563-1.315c-.005-.632.058-1.071.058-1.509zm-.313 24.479a12.522 12.522 0 0 0-3.068 3.193 22 22 0 0 0-2.5 4.445 34.665 34.665 0 0 0-1.69 4.883 20.446 20.446 0 0 0-.626 4.445 14.309 14.309 0 0 0 .125 1.565 6.432 6.432 0 0 0 .438 1.565 3.014 3.014 0 0 0 .939 1.252 2.232 2.232 0 0 0 1.44.5 2.97 2.97 0 0 0 2.442-1.252 10.012 10.012 0 0 0 1.5-2.942 15.989 15.989 0 0 0 .689-3.443q.188-1.784.188-2.817v-.626c0-.25 0-.814.063-1.628 0-.814.063-1.941.063-3.318q-.003-2.254-.003-5.822z" transform="translate(-68.132 -8.376)"/><path id="Path_332" data-name="Path 332" class="cls-1" d="M240.873 43.319c0 .313-.125 1.127-.313 2.379a17.2 17.2 0 0 1-1.127 3.944 12.823 12.823 0 0 1-2.191 3.694 4.455 4.455 0 0 1-3.506 1.628 4.355 4.355 0 0 1-3.569-1.565 11.747 11.747 0 0 1-2.067-3.819 22.518 22.518 0 0 1-.939-4.633c-.125-1.628-.188-2.942-.188-4.069a36.49 36.49 0 0 1 .188-3.694c.125-1.252.25-2.5.313-3.694a.631.631 0 0 0-.563-.689 6.972 6.972 0 0 0-1.064-.125 1.838 1.838 0 0 0-1.064.188 1.363 1.363 0 0 0-.313.5l-.25 2.254c-.188 1.5-.376 2.942-.626 4.32a39.392 39.392 0 0 1-.689 3.694 10.069 10.069 0 0 1-.939 2.567c-.376.626-.751.939-1.252.939h-.063a1.179 1.179 0 0 1-.5-.125c-.188-.063-.25-.313-.25-.689a7.184 7.184 0 0 1 .125-.876 26.177 26.177 0 0 0 .689-4.069c.063-1.064.188-2.066.188-2.88V38a4.761 4.761 0 0 1 .063-.876c0-.313.063-.751.063-1.19v-3.446c0-.563-.063-1.19-.125-1.816l-.188-4.132a.892.892 0 0 1 .376-.751 3.509 3.509 0 0 1 .939-.626 6.675 6.675 0 0 1 1.189-.438 8.8 8.8 0 0 1 1.127-.125c.814 0 1.189.5 1.189 1.565v.376l-.063 1.565v.438a.831.831 0 0 0 .188.626c.125.063.438.125.876.25h.188a11.56 11.56 0 0 0 1.816.125 19.11 19.11 0 0 1 2.567.313 6.94 6.94 0 0 1 2.191.689 1.445 1.445 0 0 1 .939 1.315 6.579 6.579 0 0 1-.125.814 7.2 7.2 0 0 1-.376 1.064 7.287 7.287 0 0 1-.376.939 1.448 1.448 0 0 0-.125.563 41.67 41.67 0 0 0-1.252 10.142c0 .25 0 .814.063 1.565a15.752 15.752 0 0 0 .313 2.316 9.489 9.489 0 0 0 .626 2.129c.313.626.626.939 1.064.939a2.333 2.333 0 0 0 1.878-1.315 16.818 16.818 0 0 0 1.5-3.005 22.444 22.444 0 0 0 1-3.506c.25-1.19.438-2.066.5-2.629a1.313 1.313 0 0 1 .438-.939 1.208 1.208 0 0 1 .626-.188c.689 0 1 .438 1 1.252a5.215 5.215 0 0 1-.063.751c.007.064-.056.377-.056.565z" transform="translate(-82.23 -9.236)"/><path id="Path_333" data-name="Path 333" class="cls-1" d="M278.022 44.414a10.409 10.409 0 0 1-.689 2.316 14.886 14.886 0 0 1-1.44 2.567 8.1 8.1 0 0 1-2.066 2.066 4.24 4.24 0 0 1-2.567.876 5.036 5.036 0 0 1-3.694-1.628 7.693 7.693 0 0 1-1.941-4.57c-.313.751-.626 1.628-1 2.629a14.391 14.391 0 0 1-1.44 2.755 7.969 7.969 0 0 1-1.941 2.129 4.107 4.107 0 0 1-2.567.876 1.57 1.57 0 0 1-.626-.063c-.125-.063-.313-.125-.438-.188l-.563-.188a3.327 3.327 0 0 0-.876-.063 4.305 4.305 0 0 1-2.88-1.064 8.92 8.92 0 0 1-1.878-2.755 13.961 13.961 0 0 1-1-3.694 26.806 26.806 0 0 1-.313-3.756 65.142 65.142 0 0 1 .438-8.014 32.717 32.717 0 0 1 1.5-6.761 12.314 12.314 0 0 1 2.755-4.633 5.642 5.642 0 0 1 4.069-1.753 6.353 6.353 0 0 1 2.129.25c.5.188.939.376 1.377.563s.876.438 1.377.689a6.909 6.909 0 0 0 2.066.563 4.913 4.913 0 0 1 2.066 2 8.311 8.311 0 0 1 .751 2.5 19.832 19.832 0 0 1 .125 2.755 14.8 14.8 0 0 0 .125 2.88c0 .063.125.125.313.188a4.542 4.542 0 0 0 .751.313 3.145 3.145 0 0 1 .751.5 1.19 1.19 0 0 1 .313.814v.25a13.415 13.415 0 0 0-.876 3.255 27.281 27.281 0 0 0-.125 3.381c0 .689.063 1.377.125 2.129a12.316 12.316 0 0 0 .376 2.191 5.29 5.29 0 0 0 .751 1.69 1.523 1.523 0 0 0 1.252.689 1.928 1.928 0 0 0 1.5-.876 8.315 8.315 0 0 0 1.127-1.941 15.12 15.12 0 0 0 .751-2.191q.282-1.127.376-1.69c.063-.563.313-.876.689-.876a.963.963 0 0 1 .689.376 2.33 2.33 0 0 1 .313 1.377v.5c.128.198.065.386.065.637zm-13.084-11.395c0-.5-.063-1.127-.125-1.816a10.424 10.424 0 0 0-.5-2 3.877 3.877 0 0 0-1.064-1.565 2.729 2.729 0 0 0-1.878-.626 3.746 3.746 0 0 0-3.193 1.816 15.7 15.7 0 0 0-1.941 4.257 33.635 33.635 0 0 0-.939 5.008c-.125 1.69-.188 3.068-.188 4.069 0 .751.063 1.628.125 2.692a21.882 21.882 0 0 0 .376 3.005 7.568 7.568 0 0 0 .814 2.379 1.559 1.559 0 0 0 1.377 1 3.544 3.544 0 0 0 3.13-1.565 11.34 11.34 0 0 0 1.628-3.944 39.061 39.061 0 0 0 .814-5.071c.188-1.816.313-3.443.438-4.946a1.877 1.877 0 0 1 .626-1.5c.313-.188.5-.376.5-.438z" transform="translate(-93.523 -8.077)"/><path id="Path_334" data-name="Path 334" class="cls-1" d="M315.488 36.866a38.947 38.947 0 0 0-1.816 4.007c-.563 1.44-1 2.5-1.252 3.318l-.376 1.5c-.188.751-.438 1.565-.689 2.5s-.5 1.816-.689 2.692a11.407 11.407 0 0 0-.313 2.191c0 .25-.188.438-.626.626a3.96 3.96 0 0 1-1.628.313 5.158 5.158 0 0 1-2.442-.438 2.688 2.688 0 0 1-1.377-1.377 6.439 6.439 0 0 1-.563-2.5c-.063-1-.125-2.254-.125-3.756v-5.257a6.8 6.8 0 0 0-.063-1.127c0-.376-.125-.626-.25-.689-.25.125-.5.689-.876 1.816a33.489 33.489 0 0 0-1 4.132c-.313 1.628-.563 3.318-.814 5.134a35.255 35.255 0 0 0-.376 4.821.891.891 0 0 1-.814.939 15.51 15.51 0 0 1-1.816.125c-.188 0-.5-.063-.939-.125a9.72 9.72 0 0 1-1.315-.25 7.317 7.317 0 0 1-1.252-.376c-.376-.188-.626-.376-.689-.626a9.774 9.774 0 0 1-.5-3.005c-.125-1.44-.188-3.569-.188-6.574 0-1.753.063-3.756.125-6.073s.125-5.008.25-8.076a15.874 15.874 0 0 0-.063-1.628c-.063-.689-.063-1.064-.063-1.19 0-.376.125-.626.438-.689a4.088 4.088 0 0 1 .689-.125 11.038 11.038 0 0 1 1.19.125 9.718 9.718 0 0 1 1.315.25c.438.125.876.188 1.252.313a5.422 5.422 0 0 1 .751.313v16.968c.25-.939.5-2 .814-3.255s.689-2.5 1.064-3.694a21.145 21.145 0 0 1 1.315-3.381 5.878 5.878 0 0 1 1.5-2.254 2.693 2.693 0 0 1 1.064-.313 11.955 11.955 0 0 1 1.252-.125 5.836 5.836 0 0 1 .876.125 4.692 4.692 0 0 1 1 .313 3.993 3.993 0 0 1 .876.5.955.955 0 0 1 .438.751v12.02c0 .313.063.438.125.438a7.1 7.1 0 0 0 .814-1.878c.438-1.252.939-2.755 1.565-4.508s1.252-3.506 1.941-5.384a41.369 41.369 0 0 1 1.878-4.382c.063-.188.438-.313.939-.313.563 0 1-.063 1.44-.063a4.783 4.783 0 0 1 1.315.313 5.877 5.877 0 0 1 1.628.876 6.712 6.712 0 0 1 1.377 1.252 2.448 2.448 0 0 1 .626 1.5 2 2 0 0 1-.438.814 3.774 3.774 0 0 0-.563 1.377 29.8 29.8 0 0 0-.689 3.882q-.188 1.878-.188 4.883c0 .876.063 1.69.125 2.567a11.941 11.941 0 0 0 .376 2.316 4.388 4.388 0 0 0 .689 1.628 1.192 1.192 0 0 0 1.127.626 2.691 2.691 0 0 0 1.753-.689 5.91 5.91 0 0 0 1.315-1.816 17.846 17.846 0 0 0 1-2.629 25.261 25.261 0 0 0 .689-3.13c.25-1.127.689-1.69 1.252-1.69a.854.854 0 0 1 .751.313 2.7 2.7 0 0 1 .188 1.252 2.162 2.162 0 0 1-.063.751 17.532 17.532 0 0 1-.626 2.88 24.764 24.764 0 0 1-1.5 3.882 12.147 12.147 0 0 1-2.379 3.381 4.47 4.47 0 0 1-3.25 1.444 5.866 5.866 0 0 1-3.569-1 6.685 6.685 0 0 1-2.129-2.755 14.4 14.4 0 0 1-1.064-4.007 37.74 37.74 0 0 1-.313-4.7v-.5z" transform="translate(-109.453 -10.171)"/></g><path id="instagram-2" data-name="instagram" class="cls-2" d="M24.5 0c-6.655 0-7.488.031-10.1.147a18.066 18.066 0 0 0-5.948 1.139 11.967 11.967 0 0 0-4.34 2.827 11.9 11.9 0 0 0-2.827 4.34A17.987 17.987 0 0 0 .147 14.4C.025 17.012 0 17.845 0 24.5s.031 7.488.147 10.1a18.049 18.049 0 0 0 1.139 5.947 11.967 11.967 0 0 0 2.827 4.34 11.9 11.9 0 0 0 4.34 2.827 17.987 17.987 0 0 0 5.947 1.139c2.612.123 3.445.147 10.1.147s7.488-.031 10.1-.147a18.049 18.049 0 0 0 5.947-1.139 12.536 12.536 0 0 0 7.166-7.166 17.987 17.987 0 0 0 1.14-5.948c.123-2.612.147-3.445.147-10.1s-.031-7.488-.147-10.1a18.049 18.049 0 0 0-1.139-5.947 11.967 11.967 0 0 0-2.827-4.34 11.9 11.9 0 0 0-4.34-2.827A17.987 17.987 0 0 0 34.6.147C31.988.025 31.155 0 24.5 0zm0 4.41c6.541 0 7.319.031 9.9.147a13.532 13.532 0 0 1 4.548.845 7.57 7.57 0 0 1 2.817 1.831 7.57 7.57 0 0 1 1.835 2.818 13.532 13.532 0 0 1 .845 4.548c.116 2.585.144 3.36.144 9.9s-.031 7.319-.153 9.9a13.768 13.768 0 0 1-.858 4.548 7.777 7.777 0 0 1-1.837 2.817 7.669 7.669 0 0 1-2.82 1.836 13.612 13.612 0 0 1-4.563.845c-2.6.116-3.369.144-9.923.144s-7.319-.031-9.922-.153a13.849 13.849 0 0 1-4.563-.858 7.625 7.625 0 0 1-2.818-1.837 7.5 7.5 0 0 1-1.832-2.82 13.849 13.849 0 0 1-.857-4.563c-.092-2.573-.122-3.369-.122-9.892s.031-7.319.122-9.922A13.849 13.849 0 0 1 5.3 9.981a7.263 7.263 0 0 1 1.833-2.818A7.263 7.263 0 0 1 9.95 5.326a13.613 13.613 0 0 1 4.532-.858c2.6-.092 3.369-.122 9.923-.122zm0 7.509A12.581 12.581 0 1 0 37.081 24.5 12.58 12.58 0 0 0 24.5 11.919zm0 20.748a8.168 8.168 0 1 1 8.168-8.167 8.167 8.167 0 0 1-8.168 8.168zm16.017-21.244a2.94 2.94 0 1 1-2.94-2.94 2.941 2.941 0 0 1 2.94 2.94z" transform="rotate(-90 2557.5 1402.5)"/><path id="Line_2" data-name="Line 2" class="cls-3" transform="translate(1155.5 3898.5)" d="M0 0h49"/></g></svg>