<svg xmlns="http://www.w3.org/2000/svg" viewBox="5350 473 100 67.787"><defs><style>.cls-1{fill:#1b1918}</style></defs><g id="logo" transform="translate(5272.1 322)"><g id="Layer1000" transform="translate(77.9 151)"><path id="path10" class="cls-1" d="M176.926 292.477a1.507 1.507 0 0 0-1.426 1.579.745.745 0 0 0 .764.84 1.426 1.426 0 0 0 1.019-.535l-.025-.025a1.042 1.042 0 0 1-.764.433c-.484 0-.586-.382-.586-.738 0-.637.306-1.553 1.019-1.553h.051a.378.378 0 0 0-.025.178.3.3 0 0 0 .28.331.2.2 0 0 0 .2-.2c.025-.153-.127-.306-.509-.306zm3.692 2.343c-.255 0-.331-.357-.331-.713 0-.789.433-1.6.942-1.6a.844.844 0 0 1 .509.229l-.1.407c-.178.815-.662 1.681-1.019 1.681zm-.1.076c.255 0 .688-.306 1.07-1.477-.051.229-.2 1.069-.2 1.248a.214.214 0 0 0 .229.229 1.427 1.427 0 0 0 .662-.484v-.025a2.85 2.85 0 0 1-.509.433 18.523 18.523 0 0 1 .458-2.368h-.028a1.013 1.013 0 0 1-.407.306.884.884 0 0 0-.637-.255c-.815 0-1.248.891-1.248 1.6-.025.56.229.789.611.789zm5.093-1.146c.382 1.2 1.07 2.215 2.165 2.215.815 0 .968-.331.968-.509a.219.219 0 0 0-.2-.2c-.127 0-.229.1-.229.28a.474.474 0 0 0 .1.28 1.067 1.067 0 0 1-.382.1c-1.1 0-1.757-1.3-2.063-2.266.331-.1.968-.356.968-.789a.361.361 0 0 0-.382-.382c-.458 0-.917.433-1.171 1.451.051-.229.127-.56.153-.688l.433-2.241-.815.1c0 .076.433-.076.357.382l-.662 3.387h.407l.1-.509c.2-1.095.586-1.706 1.019-1.706a.235.235 0 0 1 .229.255c-.025.331-.331.637-.993.84zm4.711 1.146a1.34 1.34 0 0 0 .993-.56h-.025a1.087 1.087 0 0 1-.815.458c-.331 0-.509-.28-.509-.789a.632.632 0 0 1 .025-.2c.789-.1 1.477-.382 1.477-.84 0-.306-.229-.484-.56-.484a1.42 1.42 0 0 0-1.324 1.579.739.739 0 0 0 .738.84zm-.331-1.12c.127-.764.357-1.273.815-1.273.178 0 .28.127.28.331-.002.381-.231.866-1.097.942zm5.6-1.12a1.5 1.5 0 0 0-1.553 1.426c0 .535.331 1.019 1.3 1.019a1.754 1.754 0 0 0 1.757-1.6.9.9 0 0 0-.357-.738c.433 0 1.019-.229 1.019-.662a.378.378 0 0 0-.407-.356c-.229 0-.433.1-.433.331a.161.161 0 0 0 .178.178.3.3 0 0 0 .28-.331.323.323 0 0 0-.025-.153c.255 0 .356.153.356.28 0 .764-2.215.076-2.215 1.426a.558.558 0 0 0 .637.56c.178 0 .407-.1.407-.331a.135.135 0 0 0-.153-.153c-.2 0-.28.2-.28.382v.1a.536.536 0 0 1-.586-.535c0-.407.407-.688.891-.688a.721.721 0 0 1 .688.764 1.685 1.685 0 0 1-1.681 1.528.8.8 0 0 1-.866-.891 1.425 1.425 0 0 1 1.273-1.5v-.025a.586.586 0 0 1-.662-.586.835.835 0 0 1 .84-.866 1.279 1.279 0 0 1 .306.051.48.48 0 0 0-.153.382.248.248 0 0 0 .255.28.253.253 0 0 0 .255-.255c0-.306-.357-.484-.789-.484-.637 0-1.2.331-1.2.866 0 .229.2.56.917.586zm4.711 2.292a1.106 1.106 0 0 1 .433-.306.884.884 0 0 0 .637.255c.815 0 1.248-.891 1.248-1.6 0-.586-.255-.815-.611-.815-.255 0-.662.255-1.1 1.477.076-.306.127-.586.178-.84L201.5 291l-.84.1c0 .076.433-.076.356.382zm1.579-2.394c.255 0 .331.357.331.713 0 .764-.433 1.6-.942 1.6a.784.784 0 0 1-.509-.229l.1-.407c.178-.815.688-1.681 1.019-1.681zm4.176 2.266c-.255 0-.331-.357-.331-.713 0-.789.433-1.6.942-1.6a.844.844 0 0 1 .509.229l-.1.407c-.178.815-.662 1.681-1.019 1.681zm-.1.076c.255 0 .688-.306 1.07-1.477-.051.229-.2 1.069-.2 1.248a.214.214 0 0 0 .229.229 1.427 1.427 0 0 0 .662-.484v-.025a2.851 2.851 0 0 1-.509.433 18.513 18.513 0 0 1 .458-2.368h-.025a1.013 1.013 0 0 1-.407.306.884.884 0 0 0-.637-.255c-.815 0-1.248.891-1.248 1.6-.025.56.229.789.611.789zm5.093-1.146c.382 1.2 1.07 2.215 2.164 2.215.815 0 .968-.331.968-.509a.219.219 0 0 0-.2-.2c-.127 0-.229.1-.229.28a.474.474 0 0 0 .1.28 1.067 1.067 0 0 1-.382.1c-1.1 0-1.757-1.3-2.063-2.266.331-.1.968-.356.968-.789a.361.361 0 0 0-.382-.382c-.458 0-.917.433-1.171 1.451.051-.229.127-.56.153-.688l.433-2.241-.815.1c0 .076.433-.076.357.382l-.662 3.387h.407l.1-.509c.2-1.095.586-1.706 1.019-1.706a.235.235 0 0 1 .229.255c-.025.331-.331.637-.993.84zm4.736 1.146a1.34 1.34 0 0 0 .993-.56h-.025a1.087 1.087 0 0 1-.815.458c-.331 0-.509-.28-.509-.789a.633.633 0 0 1 .025-.2c.789-.1 1.477-.382 1.477-.84 0-.306-.229-.484-.56-.484a1.42 1.42 0 0 0-1.324 1.579.715.715 0 0 0 .738.84zm-.331-1.12c.127-.764.357-1.273.815-1.273.178 0 .28.127.28.331-.025.382-.255.866-1.095.942zm4.533 1.07l.051-.306a3.234 3.234 0 0 1 .942-1.986.268.268 0 0 0 .255.357.214.214 0 0 0 .229-.229c0-.153-.153-.229-.306-.229-.357 0-.789.611-1.095 1.783.076-.28.229-.942.306-1.3.051-.28.025-.484-.229-.484-.153 0-.433.229-.662.535h.025a1.84 1.84 0 0 1 .586-.509l-.458 2.317zm4.125-2.368c-.229 0-.458.407-.586.611h.025a1.71 1.71 0 0 1 .433-.56c.076.509.2 1.681.229 2.343a1.671 1.671 0 0 0-.357.84.315.315 0 0 0 .357.331c.178 0 .382-.076.382-.306a.182.182 0 0 0-.2-.178c-.2 0-.306.2-.28.458a.31.31 0 0 1-.229-.331c0-.84 1.884-2.266 1.884-2.979a.222.222 0 0 0-.229-.255c-.178 0-.2.2-.2.255 0 .255.306.306.331.331a8.544 8.544 0 0 1-1.095 1.4 14.849 14.849 0 0 0-.153-1.63c-.025-.153-.076-.331-.306-.331z" transform="translate(-150.646 -255.349)"/><path id="path12" class="cls-1" d="M153.5 409.476l.484-.025a.879.879 0 0 1 .306.025.275.275 0 0 1 .178.076.261.261 0 0 1 .127.153.48.48 0 0 1 .051.2.449.449 0 0 1-.229.382.481.481 0 0 1 .407.509.7.7 0 0 1-.076.331.521.521 0 0 1-.2.2.949.949 0 0 1-.306.051h-.713v-.025c.051 0 .1 0 .1-.025.025-.025.025-.076.025-.178v-1.528a.089.089 0 0 0-.025-.051c-.051-.1-.1-.1-.127-.1zm.357.025v.815h.229a.347.347 0 0 0 .306-.127.491.491 0 0 0 .076-.255.508.508 0 0 0-.051-.229 1.1 1.1 0 0 0-.178-.153 1 1 0 0 0-.331-.051zm.127.866h-.153v.738c0 .025.025.051.051.076a.352.352 0 0 0 .1.076.5.5 0 0 0 .2.025c.153 0 .255-.025.306-.1a.546.546 0 0 0 .1-.306.637.637 0 0 0-.076-.331.342.342 0 0 0-.178-.153 1.157 1.157 0 0 0-.357-.025zm4.049-.917h.28v.025c-.025 0-.076 0-.076.025a.352.352 0 0 0-.076.1l-.458.688v.866c0 .076 0 .127.025.127.025.025.051.025.127.025v.025h-.509v-.025c.1 0 .153-.025.153-.1v-.84l-.458-.764c-.051-.076-.1-.127-.153-.127v-.025h.433v.025c-.051 0-.051.025-.051.051a.093.093 0 0 0 .025.076l.382.611.407-.637.025-.025a.025.025 0 0 1 .025-.025c-.051-.025-.051-.051-.1-.076zm7.945.025l.866-.025a2.416 2.416 0 0 1 .509.051.809.809 0 0 1 .56.433.93.93 0 0 1 .076.382 1.153 1.153 0 0 1-.076.407.775.775 0 0 1-.229.331 1.066 1.066 0 0 1-.306.2 1.348 1.348 0 0 1-.509.051H166v-.025h.025c.051 0 .076-.025.076-.051.025-.025.025-.1.025-.2v-1.35c0-.1 0-.153-.025-.178a.229.229 0 0 0-.123-.025zm.611.025h-.28v1.451a.394.394 0 0 0 .051.2.234.234 0 0 0 .153.1 1.05 1.05 0 0 0 .306.025.9.9 0 0 0 .738-.28.9.9 0 0 0-.076-1.222 1.175 1.175 0 0 0-.891-.28zm4-.051a.094.094 0 0 1-.076.025.055.055 0 0 0-.051.051v1.706c0 .025.025.025.025.051.025 0 .051.025.1.025v.025h-.509v-.025a.191.191 0 0 0 .127-.025c.025-.025.025-.076.025-.153v-1.426c0-.076 0-.153-.025-.178a.1.1 0 0 0-.127-.025v-.025h.509zm3.641 0h.357v.025a.263.263 0 0 0-.1.025.191.191 0 0 0-.025.127v1.706l-1.5-1.579v1.477c0 .025.025.025.025.051a.263.263 0 0 0 .1.025v.025h-.357v-.025c.076 0 .1 0 .127-.025s.025-.076.025-.153v-1.273a.915.915 0 0 0-.051-.28c-.025-.076-.1-.1-.2-.1v-.025h.357l1.4 1.5v-1.324c0-.076 0-.1-.025-.127-.051-.025-.076-.025-.127-.051zm3.412 1.019h-.56l-.28.713a.192.192 0 0 0-.025.1.055.055 0 0 0 .051.051v.025h-.28v-.025a.153.153 0 0 0 .1-.025.415.415 0 0 0 .076-.153l.688-1.706h.025l.662 1.655a1.065 1.065 0 0 1 .051.127.14.14 0 0 0 .153.1v.025h-.433v-.025c.051 0 .051-.025.051-.051a.192.192 0 0 0-.025-.1v-.025zm-.535-.051h.509l-.255-.637zm9.778-.942l.076.229h-.025l-.076-.076a.533.533 0 0 0-.153-.1.48.48 0 0 0-.2-.051.406.406 0 0 0-.306.1.327.327 0 0 0-.1.255.368.368 0 0 0 .051.178.435.435 0 0 0 .229.153.94.94 0 0 1 .382.153.428.428 0 0 1 .2.178.406.406 0 0 1 .1.306.323.323 0 0 1-.025.153.2.2 0 0 1-.051.127.447.447 0 0 1-.1.127c-.025.025-.076.051-.1.076s-.1.025-.178.051a.9.9 0 0 0-.153.025h-.509v-.535h.025a.421.421 0 0 0 .509.484.5.5 0 0 0 .357-.1.365.365 0 0 0 .127-.28.215.215 0 0 0-.051-.153c-.025-.051-.076-.076-.127-.127-.051-.025-.153-.076-.28-.127a2.212 2.212 0 0 1-.306-.127.553.553 0 0 1-.153-.178.378.378 0 0 1-.051-.229.462.462 0 0 1 .153-.357.518.518 0 0 1 .382-.153.633.633 0 0 1 .2.025.448.448 0 0 1 .153-.025zm2.75-.025a.094.094 0 0 1-.076.025.055.055 0 0 0-.051.051v1.706c0 .025.025.025.025.051.025 0 .051.025.1.025v.025h-.509v-.025a.191.191 0 0 0 .127-.025c.025-.025.025-.076.025-.153v-1.426c0-.076 0-.153-.025-.178a.1.1 0 0 0-.127-.025v-.025h.509zm3.591-.051l-.076.229h-.025v-.051c0-.025 0-.025-.025-.025h-.56v1.6c0 .076 0 .1.025.127a.055.055 0 0 0 .051.051h.076v.025h-.509v-.025a1.1 1.1 0 0 0 .127-.025c.025-.025.025-.051.025-.127v-1.63h-.56c-.025 0-.025.025-.025.051v.051h-.025l-.076-.229h.025c.025.025.025.051.051.051h1.451c.025-.025.025-.051.051-.076zm2.037.076l.866-.025a2.416 2.416 0 0 1 .509.051.809.809 0 0 1 .56.433.931.931 0 0 1 .076.382 1.153 1.153 0 0 1-.076.407.775.775 0 0 1-.229.331 1.066 1.066 0 0 1-.306.2 1.348 1.348 0 0 1-.509.051h-.866v-.025h.025c.051 0 .076-.025.076-.051.025-.025.025-.1.025-.2v-1.35c0-.1 0-.153-.025-.178a.191.191 0 0 0-.127-.025zm.637.025h-.28v1.451a.394.394 0 0 0 .051.2.234.234 0 0 0 .153.1 1.05 1.05 0 0 0 .306.025.9.9 0 0 0 .738-.28.9.9 0 0 0-.076-1.222 1.212 1.212 0 0 0-.891-.28zm3.973-.051a.094.094 0 0 1-.076.025.055.055 0 0 0-.051.051v1.706c0 .025.025.025.025.051.025 0 .051.025.1.025v.025h-.509v-.025a.191.191 0 0 0 .127-.025c.025-.025.025-.076.025-.153v-1.426c0-.076 0-.153-.025-.178a.1.1 0 0 0-.127-.025v-.025h.509zm2.114 0h.535v.025a.191.191 0 0 0-.127.025c-.025.025-.025.076-.025.153v.713l1.12-.84c.025-.025.025-.025.025-.051s-.025-.025-.076-.025v-.025h.407v.025a.724.724 0 0 0-.306.1l-.968.713.968.738a3.117 3.117 0 0 0 .306.2.6.6 0 0 0 .2.051v.025h-.637v-.025c.051 0 .076 0 .076-.025l-.076-.076-1.044-.815v.688c0 .076 0 .127.025.153 0 .025.025.025.051.051h.1v.025h-.535v-.025c.076 0 .127 0 .127-.025.025-.025.025-.076.025-.153V409.6c0-.076 0-.127-.025-.153a.162.162 0 0 1-.153 0zm4.864-.025a.888.888 0 0 1 .637.229.737.737 0 0 1 .255.586 1.244 1.244 0 0 1-.28.789 1.036 1.036 0 0 1-.764.306.845.845 0 0 1-.637-.255.94.94 0 0 1-.255-.611 1.142 1.142 0 0 1 .127-.484.926.926 0 0 1 .357-.407.968.968 0 0 1 .56-.153zm0 1.833a.719.719 0 0 0 .382-.1.81.81 0 0 0 .306-.28.719.719 0 0 0 .1-.382.784.784 0 0 0-.153-.484 1.278 1.278 0 0 0-.382-.357 1.034 1.034 0 0 0-.433-.127.809.809 0 0 0-.509.2.641.641 0 0 0-.229.509.984.984 0 0 0 .28.688.8.8 0 0 0 .637.331zm3.769.1l-.688-1.655c-.051-.127-.076-.178-.127-.2-.025-.025-.051-.025-.1-.025v-.025h.433v.025c-.025 0-.051 0-.051.051v.051l.586 1.426.586-1.426v-.051c0-.025-.025-.051-.076-.051v-.025h.28v.025h-.051q-.038 0-.076.076a.079.079 0 0 0-.025.051zm3.692-.891h-.56l-.28.713a.192.192 0 0 0-.025.1.055.055 0 0 0 .051.051v.025h-.28v-.025a.153.153 0 0 0 .1-.025.415.415 0 0 0 .076-.153l.688-1.706h.025l.662 1.655a1.068 1.068 0 0 1 .051.127.14.14 0 0 0 .153.1v.025h-.433v-.025c.051 0 .051-.025.051-.051a.192.192 0 0 0-.025-.1v-.025zm-.535-.051h.509l-.255-.637z" transform="translate(-134.249 -343.599)"/><g id="Layer1001" transform="translate(41.244)"><path id="path14" class="cls-1" d="M241.478 164.869a1.959 1.959 0 0 1-1.07-.255 1 1 0 0 1-.509-.662 1.1 1.1 0 0 1 .153-.866 2.253 2.253 0 0 1 .942-.866 6.191 6.191 0 0 1 2.012-.688 5 5 0 0 1 1.095-.1c.382 0 .789 0 1.2.025a9.407 9.407 0 0 0 .866-2.012 14.946 14.946 0 0 0 .484-2.114 5.568 5.568 0 0 0 .076-.917 4.385 4.385 0 0 0-.051-.84 2.08 2.08 0 0 0-.2-.637.733.733 0 0 0-.382-.357.747.747 0 0 0-.662.178 3.4 3.4 0 0 0-.662.764 11.437 11.437 0 0 0-.662 1.146c-.2.433-.433.891-.637 1.35s-.407.942-.586 1.375c-.178.458-.357.84-.535 1.2a8.159 8.159 0 0 1-.484.866c-.153.2-.28.306-.407.306a.345.345 0 0 1-.28-.178.959.959 0 0 1-.1-.407 4.133 4.133 0 0 1 .025-.535c.025-.2.076-.382.1-.586.051-.178.076-.357.127-.535.051-.153.1-.28.127-.382.1-.28.229-.56.357-.866.153-.28.28-.586.433-.866s.28-.535.433-.815c.153-.255.255-.509.357-.713a3 3 0 0 0 .178-.509 1.267 1.267 0 0 0 .025-.535.828.828 0 0 0-.178-.433.765.765 0 0 0-.84-.178.749.749 0 0 0-.306.255 1.171 1.171 0 0 0-.178.407 1.2 1.2 0 0 0 .051.509c.025.1.051.153.025.229-.025.051-.051.1-.076.1a.153.153 0 0 1-.1-.025.558.558 0 0 1-.076-.2 1.571 1.571 0 0 1 .051-.611 1.293 1.293 0 0 1 .229-.458.917.917 0 0 1 .356-.28.59.59 0 0 1 .407-.076.865.865 0 0 1 .535.229 1.248 1.248 0 0 1 .28.509 2.566 2.566 0 0 1 .076.637 3.244 3.244 0 0 1-.051.56 6.567 6.567 0 0 1-.229.891c-.1.306-.2.611-.306.891s-.229.56-.331.815-.2.458-.28.611a1.675 1.675 0 0 1-.153.306 3.835 3.835 0 0 0-.229.458l-.229.535c-.076.178-.127.357-.2.509a3.167 3.167 0 0 0-.1.407c0 .1 0 .178.051.2.076.025.153-.051.255-.255s.229-.484.382-.84.306-.764.509-1.248c.178-.458.382-.942.586-1.426s.433-.942.662-1.4a9.45 9.45 0 0 1 .713-1.171 2.938 2.938 0 0 1 .764-.738.883.883 0 0 1 .789-.1 1.7 1.7 0 0 1 .713.484 3.572 3.572 0 0 1 .458.815 5.677 5.677 0 0 1 .229.993c.025.357.051.713.051 1.07a7.874 7.874 0 0 1-.306 1.91 8.337 8.337 0 0 1-.713 1.706 8.486 8.486 0 0 0 1.171-.076 2.84 2.84 0 0 0 .993-.28c.051-.025.076 0 .076.051s-.025.076-.076.1a3.315 3.315 0 0 1-1.044.28 9.148 9.148 0 0 1-1.2.076 7.435 7.435 0 0 1-1.808 2.063 5.837 5.837 0 0 1-1.528.891 3.808 3.808 0 0 1-1.63.331zm1.553-3.209a10.527 10.527 0 0 0-1.12.255 3.616 3.616 0 0 0-.891.407 2.616 2.616 0 0 0-.84.84 1.021 1.021 0 0 0-.127.738.86.86 0 0 0 .484.509 1.593 1.593 0 0 0 .942.1 4.086 4.086 0 0 0 1.655-.637 7.414 7.414 0 0 0 2.063-2.317 7.854 7.854 0 0 0-1.095 0c-.382.025-.738.051-1.07.1z" transform="translate(-239.865 -153.283)"/><path id="path16" class="cls-1" d="M276.894 151.917a3.025 3.025 0 0 1 .866-.688 1.724 1.724 0 0 1 .815-.229 1.508 1.508 0 0 1 .688.127 1.079 1.079 0 0 1 .458.433 1.386 1.386 0 0 1 .178.688 1.919 1.919 0 0 1-.153.738 2.969 2.969 0 0 1-.433.713 7.416 7.416 0 0 1-.611.688 8.467 8.467 0 0 1-1.2.942c-.433.28-.815.509-1.146.713-.076.407-.127.789-.178 1.171a7.94 7.94 0 0 1-.229 1.12 14.318 14.318 0 0 0 1.452-.229 6.394 6.394 0 0 0 1.426-.509c.051-.025.076 0 .076.025 0 .051-.025.076-.076.1a7.068 7.068 0 0 1-1.452.535 9.956 9.956 0 0 1-1.477.255c-.1.407-.229.789-.357 1.146a5.911 5.911 0 0 1-.56 1.044 4.4 4.4 0 0 1-.789.891 4.778 4.778 0 0 1-1.095.713 3.828 3.828 0 0 1-.764.255c.051.28.1.56.153.789.025.051 0 .076-.051.076a.132.132 0 0 1-.1-.051c-.025-.153-.051-.28-.076-.407a1.978 1.978 0 0 1-.051-.407 2.1 2.1 0 0 1-1.2-.2 1.7 1.7 0 0 1-.764-.688 1.321 1.321 0 0 1-.178-.56 2.72 2.72 0 0 1 .025-.637 1.865 1.865 0 0 1 .2-.637 2.835 2.835 0 0 1 .407-.611 2.5 2.5 0 0 1 1.095-.688 4.637 4.637 0 0 1 1.324-.2 7.177 7.177 0 0 1 1.986-1.783c.051-.433.127-.84.2-1.273a6.158 6.158 0 0 1 .331-1.222 5.811 5.811 0 0 1 .509-1.146 5.589 5.589 0 0 1 .738-.993zm1.783 2.292a4.171 4.171 0 0 0 .535-.637 4.422 4.422 0 0 0 .382-.662 1.568 1.568 0 0 0 .153-.662 1.38 1.38 0 0 0-.153-.637.8.8 0 0 0-.433-.382.986.986 0 0 0-.611-.025 1.676 1.676 0 0 0-.713.433 3.112 3.112 0 0 0-.688.942 4.507 4.507 0 0 0-.357.993c-.076.382-.153.713-.229 1.044a5.089 5.089 0 0 0-.1.611c-.025.2-.076.407-.1.611.357-.2.738-.433 1.146-.713a6.9 6.9 0 0 0 1.171-.917zm-5.653 4.3a4.72 4.72 0 0 0-1.222.2 1.966 1.966 0 0 0-.993.662 1.9 1.9 0 0 0-.357.56 2.673 2.673 0 0 0-.2.586 2.261 2.261 0 0 0-.025.586 1.662 1.662 0 0 0 .127.509 1.509 1.509 0 0 0 .713.662 1.957 1.957 0 0 0 1.095.153 6.185 6.185 0 0 1 .1-2.063 4.961 4.961 0 0 1 .761-1.852zm-.738 3.871a2.645 2.645 0 0 0 1.426-.891 3.721 3.721 0 0 0 .56-.84 4.178 4.178 0 0 0 .356-.993 7.256 7.256 0 0 0 .229-1.12c-.255 0-.535 0-.815-.025-.28 0-.56-.025-.815 0a4.582 4.582 0 0 0-.535.968 7.4 7.4 0 0 0-.306.993 6.731 6.731 0 0 0-.127.968 5.746 5.746 0 0 0 .026.943zm1.044-4.023h.789c.255 0 .509.025.764.025.051-.255.076-.535.127-.815.025-.28.076-.56.127-.84a5.646 5.646 0 0 0-1.019.789 4.777 4.777 0 0 0-.789.843z" transform="translate(-262.37 -151)"/></g><path id="path19" class="cls-1" d="M181.053 241.249h-2.9l-1.477 3.718a2.141 2.141 0 0 0-.153.484c0 .153.1.229.331.229v.1H175.4v-.1a.734.734 0 0 0 .484-.153 1.964 1.964 0 0 0 .433-.738l3.565-8.989h.178l3.489 8.683a2.525 2.525 0 0 0 .28.637.86.86 0 0 0 .815.56v.1h-2.292v-.1c.2 0 .306-.076.306-.255a1.751 1.751 0 0 0-.153-.535c-.025-.025-.025-.051-.051-.076a.112.112 0 0 0-.025-.076zm-2.8-.28h2.674l-1.324-3.361zm13.318 4.966h-.127l-3.514-8.683a2.839 2.839 0 0 0-.611-1.07.9.9 0 0 0-.484-.153v-.1h2.265v.1c-.2-.025-.306.076-.306.229a.6.6 0 0 0 .051.2l3.056 7.563 3.03-7.563a.5.5 0 0 0 .051-.255c0-.153-.127-.229-.357-.2v-.1h1.475v.1a1.752 1.752 0 0 0-.331.051c-.1.025-.229.153-.357.356a1.4 1.4 0 0 0-.178.331zm8.429-9.906v-.1h6.188v1.35h-.076a2.623 2.623 0 0 0-.331-.891 1.218 1.218 0 0 0-.688-.127h-3.259v4.431h3.03a1.215 1.215 0 0 0 .56-.076.281.281 0 0 0 .127-.255h.1v.942h-.1c-.025-.127-.076-.229-.153-.255a.92.92 0 0 0-.458-.076h-3.107V244a3.009 3.009 0 0 0 .127.993.607.607 0 0 0 .407.382 3.339 3.339 0 0 0 .84.076h1.732a7.845 7.845 0 0 0 1.07-.051.6.6 0 0 0 .382-.229 1.4 1.4 0 0 0 .255-.738h.1v1.35H200v-.1a1.131 1.131 0 0 0 .509-.127c.127-.076.178-.255.178-.56v-7.97a1.882 1.882 0 0 0-.1-.764c-.025-.153-.229-.229-.586-.229zm18.844-.1h1.884v.1a.841.841 0 0 0-.586.178 1.127 1.127 0 0 0-.153.713v8.964l-7.869-8.352v7.283a2.23 2.23 0 0 0 .051.509.371.371 0 0 0 .153.229 1.727 1.727 0 0 0 .484.127v.1h-1.859v-.1c.331 0 .535-.051.637-.178a1.623 1.623 0 0 0 .127-.866v-6.672a3.25 3.25 0 0 0-.255-1.426c-.153-.382-.535-.535-1.12-.509v-.1h1.833l7.385 7.843v-6.952c0-.382-.076-.611-.2-.688a1 1 0 0 0-.509-.127zm15.381 9.855h-1.859v-1.528a4.363 4.363 0 0 1-3.387 1.579 3.253 3.253 0 0 1-2.317-.815 3.051 3.051 0 0 1-.866-2.266v-5.884a1.281 1.281 0 0 0-.127-.688c-.076-.1-.28-.153-.586-.153v-.1h2.617v.1a1.108 1.108 0 0 0-.586.127.783.783 0 0 0-.178.611v5.4a3.143 3.143 0 0 0 .789 2.419 2.582 2.582 0 0 0 1.808.713 3.668 3.668 0 0 0 2.827-1.426V237.2a1.976 1.976 0 0 0-.153-1.044.648.648 0 0 0-.484-.153h-.1v-.1h2.6v.1a1.2 1.2 0 0 0-.611.153.769.769 0 0 0-.127.509v8.021a2.615 2.615 0 0 0 .051.611.482.482 0 0 0 .2.255.8.8 0 0 0 .484.1zm4.405-9.753v-.1h6.188v1.35h-.1a2.624 2.624 0 0 0-.331-.891 1.218 1.218 0 0 0-.688-.127h-3.26v4.431h3.03a1.215 1.215 0 0 0 .56-.076.281.281 0 0 0 .127-.255h.1v.942h-.1c-.025-.127-.076-.229-.153-.255a.92.92 0 0 0-.458-.076h-3.107V244a3.009 3.009 0 0 0 .127.993.607.607 0 0 0 .407.382 3.339 3.339 0 0 0 .84.076h1.732a7.846 7.846 0 0 0 1.07-.051.6.6 0 0 0 .382-.229 1.4 1.4 0 0 0 .255-.738h.1v1.35H238.6v-.1a1.132 1.132 0 0 0 .509-.127c.127-.076.178-.255.178-.56v-7.97a1.882 1.882 0 0 0-.1-.764c-.025-.153-.229-.229-.56-.229z" transform="translate(-150.572 -214.206)"/><path id="path21" class="cls-1" d="M100.85 234.974c-.637-.382-1.07-.662-1.273-.815a2.3 2.3 0 0 1-.586-.688 1.949 1.949 0 0 1-.28-.993 2.189 2.189 0 0 1 .764-1.63 2.977 2.977 0 0 1 2.139-.713 3.071 3.071 0 0 1 1.935.535 1.726 1.726 0 0 1 .688 1.426c0 .993-.688 1.808-2.088 2.47a8.217 8.217 0 0 1 1.961 1.477 2.328 2.328 0 0 1 .586 1.579 2.27 2.27 0 0 1-.993 1.935 4.013 4.013 0 0 1-2.419.738 3.764 3.764 0 0 1-2.292-.662 2.149 2.149 0 0 1-.891-1.757 2.094 2.094 0 0 1 .637-1.553 7.21 7.21 0 0 1 2.112-1.349zm1.044-.586a2.277 2.277 0 0 0 1.4-2.012 1.791 1.791 0 0 0-.586-1.35 2.024 2.024 0 0 0-1.426-.535 2.151 2.151 0 0 0-1.273.382 1.218 1.218 0 0 0-.56 1.1 1.371 1.371 0 0 0 .229.789 3.818 3.818 0 0 0 1.019.866c.484.331.891.586 1.2.764zm-.611.815l-.127-.076a5.272 5.272 0 0 0-1.35.917 1.9 1.9 0 0 0-.611 1.452 2.465 2.465 0 0 0 .738 1.706 2.331 2.331 0 0 0 3.234.255 1.68 1.68 0 0 0 .688-1.4 2.006 2.006 0 0 0-.458-1.273 7.221 7.221 0 0 0-2.114-1.579zm9.4-6.977l-.229.586h-.054a.9.9 0 0 0 .025-.153.132.132 0 0 0-.051-.1c-.025-.025-.1-.025-.178-.025h-1.3v4.2a.945.945 0 0 0 .051.357.556.556 0 0 0 .1.127.566.566 0 0 0 .229.025v.051h-1.324v-.051c.178 0 .28-.051.306-.1a.787.787 0 0 0 .051-.331v-4.278h-1.222a.638.638 0 0 0-.255.025.132.132 0 0 0-.051.1.277.277 0 0 0 .025.127h-.051l-.229-.586h.051c.051.076.076.127.127.153a.639.639 0 0 0 .255.025h3.259a.792.792 0 0 0 .28-.025.2.2 0 0 0 .127-.153zm4.966 2.623h-2.7v1.884a.97.97 0 0 0 .025.331.254.254 0 0 0 .1.127.509.509 0 0 0 .229.051v.051h-1.273v-.051a.3.3 0 0 0 .357-.331v-3.947a1.381 1.381 0 0 0-.051-.433c-.025-.051-.127-.1-.306-.1v-.051h1.27v.051a.41.41 0 0 0-.28.076.368.368 0 0 0-.076.28v1.935h2.7v-1.757a1.308 1.308 0 0 0-.051-.407c-.025-.076-.127-.1-.306-.1v-.058h1.273v.051a.566.566 0 0 0-.229.025.2.2 0 0 0-.1.1 1.261 1.261 0 0 0-.025.382v3.769a1.065 1.065 0 0 0 .025.357.447.447 0 0 0 .1.127.508.508 0 0 0 .229.051v.051h-1.273v-.076a.41.41 0 0 0 .28-.076.8.8 0 0 0 .076-.458z" transform="translate(-92.956 -208.541)"/><path id="path23" class="cls-1" d="M78.689 166.8h18.793v1.579H79.453v60.1h14.566v1.579h-15.33a.793.793 0 0 1-.789-.789v-61.68a.793.793 0 0 1 .789-.789zm83.091 61.676h14.566v-60.1h-18.028V166.8h18.793a.793.793 0 0 1 .789.789v61.676a.793.793 0 0 1-.789.789h-15.356v-1.579z" transform="translate(-77.9 -162.777)"/><path id="path25" class="cls-1" d="M250.6 319.511a8.635 8.635 0 0 0-1.986 0c0 .025-.025.025-.051.025-.127.025-.1.255-.076.458a1.121 1.121 0 0 1 .051.255c0 .051.025.076.025.1 0 .051.025.127.025.178v.178c0 .051-.025.1-.025.153a.633.633 0 0 0-.025.2c0 .025 0 .025.025.051 0 .025.025.025.025.051h.025a.577.577 0 0 0 .025-.1v-.025a.561.561 0 0 0 .025-.2.5.5 0 0 1 .025-.2v-.1a.47.47 0 0 1 .127-.407c.025 0 .051-.025.076 0a.089.089 0 0 1 .051.025.372.372 0 0 1 .127.331.561.561 0 0 0 .025.2c0 .025.025.051.025.076.025-.025.025-.1.025-.153v-.051a.215.215 0 0 1 .051-.178.136.136 0 0 1 .1-.076.191.191 0 0 1 .127.025c.1.076.1.229.127.331v.1a.434.434 0 0 0 .025.178.132.132 0 0 0 .051.1h.051c.025 0 .025-.025.051-.051a.323.323 0 0 0 .025-.153.378.378 0 0 1 .051-.229.254.254 0 0 1 .127-.1.168.168 0 0 1 .153.025l.076.076c.025.025.025.051.051.051.076.051.127-.025.178-.1a.193.193 0 0 0 .051-.1.773.773 0 0 1 .178-.127.281.281 0 0 1 .2 0 .582.582 0 0 1 .255.178.458.458 0 0 0 .229.153c.1.025.153-.051.229-.153a.686.686 0 0 1 .178-.2.434.434 0 0 1 .178-.025 1.242 1.242 0 0 1 .178.076c.025.025.051.051.051.076a.093.093 0 0 1 .025.076l.025.051a.863.863 0 0 0 .076.2s.025 0 .025-.051a.472.472 0 0 0 .051-.178.743.743 0 0 1 .051-.229c.025-.051.1-.127.153-.127a.279.279 0 0 1 .2 0 .338.338 0 0 1 .153.255l.025.051c.025.127.076.255.1.357a1.1 1.1 0 0 1 .025.127.3.3 0 0 0 .051.178.089.089 0 0 1 .025.051l.076.076a.048.048 0 0 0 .076 0h.025c.051-.026.051-.1.051-.153v-.255a.368.368 0 0 1 .051-.178l.076-.076a.077.077 0 0 1 .1 0c.025 0 .051.025.1.076a.193.193 0 0 1 .051.1l.051.1a.811.811 0 0 0 .1-.331.769.769 0 0 1 .076-.229.477.477 0 0 1 .178-.153.323.323 0 0 1 .153-.025.2.2 0 0 1 .127.051.358.358 0 0 1 .153.178 2.257 2.257 0 0 1 .076.357v.127a.709.709 0 0 0 .025.255c.051.076.051.1.051.1.025 0 .025-.1.025-.178l.025-.407v-.051c0-.127 0-.331.153-.382.051-.025.076 0 .127.025a.2.2 0 0 1 .1.1.7.7 0 0 1 .025.229v.153c0-.051.025-.1.025-.153v-.076a1.045 1.045 0 0 0 .025-.28c0-.1.025-.178.025-.28s.025-.229-.025-.306c-.025-.076-.076-.127-.2-.127-.637 0-1.273.025-1.91.051-.484.025-.942.025-1.426.051a31.636 31.636 0 0 0-1.1-.076zm-1.833 13.6l-3.209.076a5.261 5.261 0 0 0 .306 1.248h2.572c1.655 0 3.31 0 4.966-.025 1.63-.025 3.259-.025 4.864-.076a5.9 5.9 0 0 1 .153-1.146c.025-.076.025-.153.051-.229h-1.35l-1.452.025c-.84 0-1.681.025-2.546.025-.84.025-1.681.025-2.546.051-.586.025-1.2.025-1.808.051zm-3.234-.076c.764-.051 1.528-.051 2.292-.076h.458c1.706-.051 3.412-.076 5.144-.1l5.093-.076v-.051c0-.076.025-.153.025-.229-.942 0-1.91-.025-2.852-.025h-2.6c-.866 0-1.732 0-2.6.025-.789 0-1.6.026-2.394.051-.891.025-1.757.051-2.648.051a2.185 2.185 0 0 1 .076.433zm-.28-.509v-.051l-.076-.942c-.025-.407-.051-.84-.1-1.248-.025 0-.051-.025-.076-.051s-.051-.051-.051-.076a1.331 1.331 0 0 1-.153-.407l-.025-.127a3.163 3.163 0 0 1-.1-.407 3.474 3.474 0 0 0-.1-.433l-.076-.382a1.965 1.965 0 0 1-.051-.382l-.025-.153a1.509 1.509 0 0 1 0-.586.468.468 0 0 1 .357-.331 1.649 1.649 0 0 1 .484-.051c.306 0 .586.025.891.025h.229l-.076-.535a28.42 28.42 0 0 1-.2-1.553c-.051-.025-.1-.076-.153-.1a1.293 1.293 0 0 1-.229-.458 4.134 4.134 0 0 1-.1-.484v-.051a1.057 1.057 0 0 1 .127-.917 1.205 1.205 0 0 1 .789-.229h.1c.637-.051 1.3-.051 1.961-.076a1.681 1.681 0 0 0-.025-.357v-.05c0-.255-.025-.484-.025-.738a.307.307 0 0 1-.127-.127.524.524 0 0 1-.051-.433c0-.051.025-.127.025-.2a2.454 2.454 0 0 0-.051-.306.753.753 0 0 1-.051-.255c-.076-.331-.076-.637.178-.713h.051a7.542 7.542 0 0 1 1.859-.051c-.025-.357-.051-.713-.051-1.095v-.796c0-.56 0-1.146-.051-1.706 0-.025.025-.051.051-.076l.025-.025c.076 0 .153-.025.2-.025a.715.715 0 0 1-.255-.306.865.865 0 0 1-.076-.509 1.6 1.6 0 0 1 .255-.688 2.336 2.336 0 0 0 .229-.586v-.051h.025a.025.025 0 0 0 .025-.025h.051a.025.025 0 0 1 .025.025c.025.025.051.051.051.076v.025a3.957 3.957 0 0 0 .127.586 4.288 4.288 0 0 1 .153.611V315a.809.809 0 0 1-.076.229 1.4 1.4 0 0 1-.178.229l-.127.127h.076c.1 0 .178.025.28.025.025 0 .025 0 .051.025a.089.089 0 0 1 .025.051c0 .28-.025.56-.025.866v.051c0 .331-.025.637-.025.968a4.314 4.314 0 0 1-.025.586v1.2h.407c0-.229-.025-.484-.025-.713 0-.382-.025-.764-.051-1.12-.025-.306-.051-.611-.051-.891v-.891c0-.025 0-.025.025-.051.025-.025.025-.025.051-.025a.561.561 0 0 0 .2-.025 1.9 1.9 0 0 1-.178-.306 1.33 1.33 0 0 1-.1-.535 1.621 1.621 0 0 1 .178-.688 1.941 1.941 0 0 0 .153-.509l-.025-.051h.025c0-.025 0-.025.025-.025.025-.025.025-.025.051-.025h.051a.055.055 0 0 1 .051.051h.025v.025a5.541 5.541 0 0 1 .28.688 3.038 3.038 0 0 1 .127.662 1.214 1.214 0 0 1-.1.509.374.374 0 0 1-.127.153h.178c.025 0 .025.025.025.051l-.076 1.884v1.808h.306a3.758 3.758 0 0 1-.025-.535v-.051c0-.458 0-.942.025-1.4.025-.407.025-.815.051-1.2a2.459 2.459 0 0 0 0-.433c0-.025 0-.051.025-.051.025-.025.025-.025.051-.025.1 0 .178-.025.28-.025a2.655 2.655 0 0 1-.255-.458 1.074 1.074 0 0 1-.076-.484 2.819 2.819 0 0 1 .178-.662 3.866 3.866 0 0 0 .153-.509l-.025-.025h.025c0-.025 0-.025.025-.051s.025-.025.051-.025h.051a.055.055 0 0 1 .051.051v.025h.025v.025a2.4 2.4 0 0 1 .306.56 1.6 1.6 0 0 1 .153.688 1.321 1.321 0 0 1-.127.611 1.13 1.13 0 0 1-.2.28h.153c.025 0 .051 0 .051.025.025 0 .025.025.025.051a24.265 24.265 0 0 0-.025 2.725c0 .306.025.637.025.942l1.222-.025h.127a2.176 2.176 0 0 1 .407 0c.382.1.306.611.255.942l-.025.153v.051a1.524 1.524 0 0 1-.051.306c-.025.127-.076.229-.153.255v.688c0 .306-.025.611-.051.891.357 0 .713 0 1.07-.025.331 0 .637-.025.968-.025a.99.99 0 0 1 .382.051.548.548 0 0 1 .306.229.972.972 0 0 1-.051.84l-.025.051a.678.678 0 0 0-.076.306 1.567 1.567 0 0 0 .025.331 1.433 1.433 0 0 0 .1.306c.025.076.051.127.076.2a1.468 1.468 0 0 1 .076.357.323.323 0 0 1-.178.331.323.323 0 0 1-.153.025 4.166 4.166 0 0 1-.051.56l-.025.127-.025.153a2.3 2.3 0 0 1-.076.407c.255 0 .484-.025.738-.025h.076c.382 0 .84 0 1.019.407a1.427 1.427 0 0 1-.1.968 1.65 1.65 0 0 0-.1.331 4.864 4.864 0 0 0-.153.84 4.925 4.925 0 0 0-.025.866.323.323 0 0 0 .025.153 1.034 1.034 0 0 1 0 .484.2.2 0 0 1-.229.153c-.025.28-.051.535-.076.815s-.076.586-.127.866l-.076.484a8.655 8.655 0 0 0-.153 1.171v.076a32323796379.618 32323796379.618 0 0 0-.051.051h-.076l-1.273.025-1.324.025c-1.681.025-3.387.025-5.067.051h-.942c-1.3 0-2.6 0-3.871-.025a.025.025 0 0 0-.025.025h-.025c-.051 0-.076-.025-.1-.076a9.1 9.1 0 0 1-.407-2.012zm.229-.1c.738-.051 1.5-.051 2.266-.076h.458c1.732-.051 3.489-.076 5.22-.076s3.463 0 5.195.025l.051-.331h-2.852c-.866 0-1.732 0-2.6.025-.866 0-1.732.025-2.6.051l-2.546.076c-.866.025-1.732.076-2.572.076zm-.051-.356c.789-.051 1.579-.076 2.394-.127l.407-.025c1.732-.076 3.489-.1 5.22-.127s3.463-.025 5.195-.025c.025-.255.076-.509.1-.738-.407-.153-.407-.611-.382-.968v-.484a1.442 1.442 0 0 0-.076-.458v-.051a.068.068 0 0 0-.076-.076c-.076 0-.1.1-.1.178a1.241 1.241 0 0 0 .025.306v.076a1.15 1.15 0 0 1-.025.509.41.41 0 0 1-.382.331c-.306.025-.407-.229-.433-.484v-.407a1.345 1.345 0 0 0-.025-.331c-.025-.025-.051-.025-.1 0s-.076.153-.1.229a1.928 1.928 0 0 0-.025.382v.22a.754.754 0 0 1-.051.255.414.414 0 0 1-.127.229.433.433 0 0 1-.153.153.311.311 0 0 1-.229.076c-.255-.051-.306-.433-.331-.688a.9.9 0 0 0-.025-.153.764.764 0 0 0-.1-.255c-.025-.025-.051 0-.076.025a.368.368 0 0 0-.051.178v.025c0 .051-.025.1-.025.153a.605.605 0 0 1-.076.306c-.025.076-.076.1-.153.127a.323.323 0 0 1-.153.025.194.194 0 0 1-.127-.051.657.657 0 0 1-.229-.229l-.051-.1a4.762 4.762 0 0 0-.306-.637c-.153-.229-.357-.356-.611-.178a1.208 1.208 0 0 0-.255.255c-.076.076-.127.153-.2.229a2.125 2.125 0 0 1-.306.2.678.678 0 0 1-.306.076.747.747 0 0 1-.484-.178 1.779 1.779 0 0 1-.331-.407l-.025-.025a1.413 1.413 0 0 0-.153-.2c-.051-.051-.127-.076-.229.025a.47.47 0 0 0-.1.331v.076a.744.744 0 0 1-.051.229.4.4 0 0 1-.153.2.193.193 0 0 1-.1.051.3.3 0 0 1-.255 0 .453.453 0 0 1-.2-.178.678.678 0 0 1-.153-.255.362.362 0 0 1-.051-.153.9.9 0 0 0-.331-.509.232.232 0 0 0-.331.025 1.091 1.091 0 0 0-.127.407v.025a2.23 2.23 0 0 0-.051.407 3.885 3.885 0 0 1-.2.942l-.025.025a.776.776 0 0 1-.229.331.447.447 0 0 1-.407.051h-.025a.554.554 0 0 1-.2-.127l-.153-.229c-.025-.025-.025-.1-.051-.2a2.385 2.385 0 0 0-.1-.407c-.051-.127-.1-.2-.153-.178-.076.025-.1.127-.1.229-.025.127-.025.229-.127.28a.154.154 0 0 1-.2-.025.675.675 0 0 1-.153-.127 1 1 0 0 1-.2-.255 1.365 1.365 0 0 1-.127-.28.6.6 0 0 1-.051-.2.911.911 0 0 0-.28-.56.338.338 0 0 0-.178-.076.323.323 0 0 0-.153.025.307.307 0 0 0-.127.127.692.692 0 0 0-.153.433 2.27 2.27 0 0 0 .076.713l.025.127a2.292 2.292 0 0 1 .076.407c.025.255-.025.484-.28.535a.538.538 0 0 1-.433-.153 1.208 1.208 0 0 1-.28-.535c-.051-.2-.076-.433-.127-.637a2.843 2.843 0 0 0-.229-.942c0-.025-.025-.025-.025-.051l-.025-.051a.094.094 0 0 0-.076-.025h-.025v.484c0 .051.025.127.025.178a.561.561 0 0 1 .025.2.5.5 0 0 1-.025.2c0 .025-.025.051-.051.076.1.535.153 1.095.2 1.655zm6.264-5.7a44.2 44.2 0 0 1-5.195-.076l.025.1.076.509h.458c.255 0 .509-.025.764-.025.331-.025.662-.025.993-.051.56 0 1.12 0 1.681.025.306 0 .611 0 .917.025l1.757.025 1.757.025h1.808c.255 0 .535 0 .789-.025a1.6 1.6 0 0 1 .076-.484 91.725 91.725 0 0 0-2.674-.051c-.917 0-1.859.025-2.8.025zm-5.22-.229c1.91.1 3.82.051 5.73.025 1.783-.025 3.591-.051 5.373.025v-.025l.025-.2-.942-.025c-1.553-.051-3.107-.1-4.66-.025q-1.413.076-2.827.076c-.917 0-1.833-.025-2.75-.1zm-.051-.433q1.375.076 2.75.076 1.413 0 2.827-.076c1.553-.076 3.107-.026 4.66.025l.993.025a.744.744 0 0 1 .051-.229 1.549 1.549 0 0 1-.178-.255v-.025a2.508 2.508 0 0 1-.127-.407l-.051-.178-.025-.076c-.025-.076-.025-.127-.076-.178l-.051-.051h-.025l-.025.025c-.025.025-.025.051-.051.1 0 .051-.026.127-.026.2 0 .229 0 .509-.28.535a.267.267 0 0 1-.229-.127c-.051-.076-.076-.153-.127-.229l-.025-.051a.324.324 0 0 0-.178-.229q-.076-.038-.076 0c0 .025 0 .025-.025.051l-.025.1a.538.538 0 0 1-.1.255.352.352 0 0 1-.1.076.323.323 0 0 1-.153.025.2.2 0 0 1-.127-.051c-.025-.025-.051-.076-.076-.1a.784.784 0 0 1-.076-.331l-.025-.1a.486.486 0 0 0-.076-.2l-.076-.076c-.025 0-.025 0-.051.025a.257.257 0 0 0-.025.076l-.025.1c-.076.2-.127.382-.407.331a.634.634 0 0 1-.458-.382c-.025-.051-.076-.1-.1-.153a.266.266 0 0 0-.433-.051l-.153.153a1 1 0 0 1-.255.2.813.813 0 0 1-.357.076.893.893 0 0 1-.357-.153c-.051-.051-.1-.127-.153-.178a.363.363 0 0 0-.331-.229.452.452 0 0 0-.255.1.535.535 0 0 0-.178.28c-.025.051-.025.1-.051.153-.076.229-.153.509-.433.535a.518.518 0 0 1-.382-.153.529.529 0 0 0-.255-.153c-.153-.025-.229.1-.306.229-.025.025-.051.076-.076.1-.051.051-.076.1-.127.153a.41.41 0 0 1-.178.1.733.733 0 0 1-.331.025 1.558 1.558 0 0 1-.306-.127.254.254 0 0 1-.1-.127l-.076-.153c0-.025-.025-.051-.025-.1l-.025-.1c-.025-.1-.076-.178-.1-.178-.051 0-.076.1-.1.178a1.243 1.243 0 0 1-.076.178c-.025.025-.076.051-.1.076a.191.191 0 0 1-.127.026c-.229-.026-.28-.28-.306-.458l-.025-.051c-.025-.076-.025-.153-.051-.2a.193.193 0 0 1-.051-.1.193.193 0 0 0-.1-.051c-.025 0-.051-.025-.076 0l-.051.051a.528.528 0 0 0-.051.153 1.032 1.032 0 0 0 0 .28v.025a2.453 2.453 0 0 1 0 .433.746.746 0 0 1-.178.407.566.566 0 0 1-.28.127.97.97 0 0 1-.382-.026c-.331-.1-.407-.382-.458-.662l-.178-.662v-.055a.394.394 0 0 0-.051-.2c0 .025-.025.076-.025.1s0 .025-.025.051l.025.1a.95.95 0 0 1 .025.458c0 .025-.025.051-.051.076.051.2.1.509.153.815zm4.533-3.514c-.713.025-1.451.051-2.164.025v.306h3.183c.433 0 .891 0 1.324.025.458 0 .891.025 1.35.025h.484v-.382c-.509-.025-1.019-.051-1.553-.051h-1.655c-.306.025-.637.051-.968.051zm-2.164-.127c.738-.051 1.477-.051 2.215-.051h.891c.56 0 1.12-.025 1.681-.025.535 0 1.07.025 1.6.051v-.28c-.484.025-.968.076-1.477.076-.535.025-1.095.025-1.63 0-.56-.025-1.12-.025-1.706-.025-.535 0-1.044.025-1.579.051-.025.051 0 .127 0 .2zm-.025-.382a14.848 14.848 0 0 1 1.5-.076c.535 0 1.095 0 1.63.025q.84.038 1.681 0l1.579-.076a4.181 4.181 0 0 1 .051-.586.2.2 0 0 1-.051-.127.5.5 0 0 1-.025-.178c-.025.178-.025.357-.051.535 0 .1-.025.28-.178.28a.231.231 0 0 1-.178-.076.314.314 0 0 1-.1-.2 1.491 1.491 0 0 1-.051-.331v-.2c0-.076 0-.178-.051-.2-.025-.051-.051-.076-.1-.076h-.051c-.025 0-.025 0-.051.025a.254.254 0 0 0-.1.127.378.378 0 0 0-.025.178c-.025.153-.051.331-.178.407a.162.162 0 0 1-.153 0 .2.2 0 0 1-.1-.1c-.025-.025-.025-.051-.051-.076s-.025-.076-.051-.076v-.025a1.1 1.1 0 0 0-.025.127v.127c0 .153 0 .357-.178.407a.278.278 0 0 1-.2 0 .324.324 0 0 1-.178-.127.555.555 0 0 1-.076-.127.23.23 0 0 1-.025-.127c-.025-.076-.025-.153-.051-.229a.743.743 0 0 1-.051-.229l-.025-.076a.273.273 0 0 0-.051-.153c-.051-.051-.076-.076-.1-.051-.025 0-.051.051-.076.1a.323.323 0 0 0-.025.153.153.153 0 0 1-.025.1.512.512 0 0 1-.1.2.186.186 0 0 1-.229.051c-.127-.051-.153-.153-.178-.28 0-.025-.025-.076-.025-.1-.051-.127-.1-.153-.153-.153a.553.553 0 0 0-.153.178.555.555 0 0 1-.1.127c-.025.025-.076.051-.1.076a.191.191 0 0 1-.127.025.421.421 0 0 1-.331-.2 1.11 1.11 0 0 0-.178-.153c-.178-.076-.229.025-.306.153-.051.1-.127.229-.28.2a.323.323 0 0 1-.178-.1c-.025-.025-.076-.051-.1-.076-.025 0-.025 0-.051.051a1.1 1.1 0 0 0-.025.127.86.86 0 0 1-.1.306c-.051.076-.153.1-.306-.025a.258.258 0 0 1-.1-.178.561.561 0 0 1-.025-.2v-.283l-.025.025a.434.434 0 0 0-.025.178v.051c-.025.1-.051.153-.1.178a.153.153 0 0 1-.1.025c-.025 0-.076-.025-.1-.025a.518.518 0 0 1-.153-.229v-.076c0-.076-.025-.153-.025-.2v.458a.581.581 0 0 1-.178.484h-.025a.489.489 0 0 1 .1.305zm4.482-2.725a.774.774 0 0 1 .178-.127v-.484l-.025.025a.687.687 0 0 1-.2.178 2.052 2.052 0 0 1-.458.306 2.19 2.19 0 0 0 .025.407l.153-.076a1.458 1.458 0 0 0 .178-.1c.025-.051.1-.076.153-.127zm.178.076a1.457 1.457 0 0 0-.2.178c-.076.051-.127.1-.2.153l.433-.025zm-.178-.789l.153-.153a4.318 4.318 0 0 0-.025-.586.613.613 0 0 1-.2.153l-.2.153c-.051.025-.1.076-.153.1l-.025.025a.193.193 0 0 1-.1.051v.637c.051-.025.076-.051.127-.076s.127-.076.178-.1c.1-.076.178-.153.255-.2zm0-.891c.051-.051.1-.076.153-.127v-.484a1.647 1.647 0 0 1-.229.2l-.1.076a.543.543 0 0 1-.306.178c0 .178-.025.357-.025.56h.025l.127-.076.127-.076a1.094 1.094 0 0 1 .229-.255zm-.076-.662a1.4 1.4 0 0 1 .229-.178 4.51 4.51 0 0 1 .025-.586c-.051.051-.127.1-.178.153l-.051.025a1.368 1.368 0 0 1-.407.255 1.926 1.926 0 0 1-.025.382V317l.1-.076.1-.076c.076-.051.127-.1.2-.153zm-.357-.56c.051-.025.076-.051.127-.076a.556.556 0 0 0 .127-.076 2.7 2.7 0 0 0 .28-.229h-.1a.865.865 0 0 0-.255.026h-.178v.356zm.357-1.553zm-.076.891c0-.306.153-.611.127-.917a.153.153 0 0 1-.1-.025 2.362 2.362 0 0 1-.025.942zm.127-.051a.866.866 0 0 0 .025-.255 2.667 2.667 0 0 0-.025-.637c0-.051-.1-.076-.1-.025a4.19 4.19 0 0 1-.1.789 1.063 1.063 0 0 1-.1-.255.921.921 0 0 1 0-.586 2.24 2.24 0 0 1 .127-.382c.051-.127.076-.229.127-.357l.025.051a2.415 2.415 0 0 1 .306.942.9.9 0 0 1-.28.713zm-1.095 3.565l.025-.025v-.535l-.076.076-.076.076a.722.722 0 0 1-.28.2 3.414 3.414 0 0 0 .025.509l.051-.025c.051-.025.076-.051.127-.076l.2-.2zm.025.229a.351.351 0 0 1-.1.076c-.025.025-.076.051-.1.076h.2zm-.127-.942l.127-.127v-.484a.554.554 0 0 1-.1.127 1.239 1.239 0 0 1-.356.28 3.082 3.082 0 0 0 .025.484c.025-.025.076-.051.1-.076s.076-.051.1-.076a.169.169 0 0 1 .1-.127zm.025-.815c.025-.051.076-.076.1-.127v-.1l.025-.509a1.107 1.107 0 0 1-.153.178l-.025.025a2.055 2.055 0 0 1-.357.306c0 .1.025.178.025.28s.025.229.025.331l.076-.076c.051-.051.1-.076.153-.127.025-.051.076-.1.127-.178zm.076-.968l.051-.076v-.458l-.025.025a1.175 1.175 0 0 1-.178.178 1.455 1.455 0 0 1-.407.28v.178a1.927 1.927 0 0 0 .025.382.555.555 0 0 1 .127-.1c.051-.051.1-.076.153-.127a1.336 1.336 0 0 0 .255-.28zm-.076-.662l.076-.076h-.051a1.043 1.043 0 0 0-.28.026.561.561 0 0 0-.2.025v.407c.025-.025.076-.051.1-.076a.534.534 0 0 0 .153-.1 1.538 1.538 0 0 0 .2-.2zm-.053-1.486v.025a2.8 2.8 0 0 1 .051.662 1.442 1.442 0 0 1-.076.458.554.554 0 0 0 .127-.2 1.04 1.04 0 0 0 .025-.484 1.1 1.1 0 0 0-.025-.127 2.113 2.113 0 0 0-.153-.535l-.076-.229c-.025.076-.076.178-.1.255a1.93 1.93 0 0 0-.153.407 1.046 1.046 0 0 0 0 .56c.025.076.025.127.051.2a2.806 2.806 0 0 1 .051-.458 3.121 3.121 0 0 0 .051-.484v-.051h.025l.025-.025h.076c.076-.025.1 0 .1.025zm-1.019 4.762l.025-.051v-.509c-.025.051-.076.076-.1.127l-.025.051c-.1.1-.2.255-.331.306 0 .1.025.229.025.331h.127c.025-.025.051-.025.051-.051a.447.447 0 0 0 .127-.1l.1-.1zm.025.229zm-.076-.993c.025-.051.076-.1.1-.153v-.433c-.051.051-.076.1-.127.153l-.051.076a1.143 1.143 0 0 1-.331.28 3.081 3.081 0 0 0 .025.484.555.555 0 0 1 .127-.1c.051-.051.1-.076.127-.127s.076-.1.127-.178zm0-.738a.512.512 0 0 0 .1-.2v-.509c-.051.076-.1.127-.153.2l-.025.025a1.2 1.2 0 0 1-.382.331v.586c.025-.025.076-.051.1-.076l.153-.153a1.511 1.511 0 0 0 .2-.2zm.076-.942l.051-.076v-.458a1.412 1.412 0 0 1-.153.2v.025a1.458 1.458 0 0 1-.407.382v.433l.076-.076c.051-.051.127-.1.178-.153a1.334 1.334 0 0 0 .255-.28zm-.051-.662a.512.512 0 0 0 .1-.2c-.025 0-.051-.025-.1-.025h-.076a2.187 2.187 0 0 0-.407-.026 7.156 7.156 0 0 1 .025.738l.127-.127c.051-.051.1-.076.127-.127a.924.924 0 0 0 .2-.229zm-.382-.637a3.518 3.518 0 0 1 .076-.891v-.076h.025l.025-.025h.051a.025.025 0 0 1 .025.025c.025.025.051.051.051.076v.025c0 .076.025.127.025.2a1.754 1.754 0 0 1 .025.509l.025-.025a.912.912 0 0 0 .1-.28v-.299a3.393 3.393 0 0 0-.127-.484l-.076-.229a1.19 1.19 0 0 1-.127.255 1.56 1.56 0 0 0-.127.306 1.148 1.148 0 0 0-.076.28 1.044 1.044 0 0 0-.025.28.913.913 0 0 0 .1.28.2.2 0 0 1 .025.076zm.255-1.757zm-5.908 15.915a1.446 1.446 0 0 0 .178.56v-.025c0-.076-.025-.2-.025-.229-.025-.076-.025-.178-.051-.255 0-.076-.025-.178-.025-.255v-.051c0-.127 0-.306.127-.357a.23.23 0 0 1 .127-.025c.051 0 .076.025.127.051a1.436 1.436 0 0 1 .382.968l.051.28c.025.2.076.407.127.637.025.076.051.178.076.255a.4.4 0 0 0 .153.2 1.241 1.241 0 0 0 .178.076c.051 0 .076 0 .1-.025.051-.025.051-.076.051-.127v-.051a1.893 1.893 0 0 0-.076-.637.9.9 0 0 1-.051-.255c-.025-.1-.025-.178-.051-.28v-.306a1.017 1.017 0 0 1 .178-.458.479.479 0 0 1 .433-.2h.025a.576.576 0 0 1 .433.28 1.627 1.627 0 0 1 .2.484l.025.1c.025.076.051.178.076.255a1.135 1.135 0 0 0 .153.306c.051.051.076.1.127.127s.076-.025.1-.076a1.1 1.1 0 0 0 .025-.127.48.48 0 0 1 .1-.229c.025-.025.076-.051.1-.076a.192.192 0 0 1 .2.025.374.374 0 0 1 .127.153 2.653 2.653 0 0 1 .127.306l.025.1a1.63 1.63 0 0 0 .127.433c.076.153.178.255.382.178a.3.3 0 0 0 .153-.153.906.906 0 0 0 .1-.229 8.674 8.674 0 0 0 .178-.866c.025-.127.025-.28.051-.407.025-.1.051-.229.076-.331.076-.2.2-.382.484-.28.331.1.458.458.586.738l.025.076c.025.051.025.076.051.127.076.127.153.255.306.178a.2.2 0 0 0 .1-.1.362.362 0 0 0 .051-.153.433.433 0 0 0 .025-.178c.025-.153.025-.306.153-.407.025-.051.076-.076.1-.1a.2.2 0 0 1 .2-.025.41.41 0 0 1 .178.1.613.613 0 0 1 .153.2l.025.051c.127.229.28.484.56.535a.784.784 0 0 0 .331-.076 1.148 1.148 0 0 0 .357-.255c.025-.051.076-.076.1-.127.2-.229.433-.484.789-.357a.848.848 0 0 1 .433.357 4.422 4.422 0 0 1 .255.484c.025.051.025.1.051.127l.025.076a.255.255 0 0 0 .1.127.127.127 0 0 0 .153 0 .132.132 0 0 0 .051-.1c.025-.076.025-.153.051-.2a.479.479 0 0 1 .051-.2.511.511 0 0 1 .1-.2.254.254 0 0 1 .127-.1.162.162 0 0 1 .153 0c.025.025.076.051.1.1a.638.638 0 0 1 .1.178.6.6 0 0 1 .051.2.193.193 0 0 0 .025.1 1.067 1.067 0 0 0 .1.407c.025.076.076.1.178.076a.325.325 0 0 0 .127-.178 1 1 0 0 0 .076-.357v-.2a1.451 1.451 0 0 1 .025-.331 1 1 0 0 1 .127-.357c.025-.051.076-.076.1-.1a.168.168 0 0 1 .153-.025.193.193 0 0 1 .1.051.234.234 0 0 1 .1.153 1.624 1.624 0 0 1 .051.178v.28c0 .2-.025.433.1.535.051.051.076.051.1.051a.233.233 0 0 0 .127-.076c.025-.025.051-.051.051-.076.025-.025.025-.051.051-.076a.323.323 0 0 0 .025-.153.434.434 0 0 0-.025-.178l-.025-.127a.93.93 0 0 1 0-.458.492.492 0 0 1 .127-.229c.051-.025.076-.051.127-.076a.245.245 0 0 1 .28.2 2.528 2.528 0 0 1 .127 1.07v.357a1.094 1.094 0 0 0 .051.306.337.337 0 0 0 .229.178.089.089 0 0 0 .127-.076v-.2c0-.127-.025-.255-.025-.382v-.382a3.888 3.888 0 0 1 .076-.764 6.3 6.3 0 0 1 .153-.738c.026-.076.051-.178.076-.255a2.043 2.043 0 0 0 .127-.535.753.753 0 0 0-.051-.255.343.343 0 0 0-.178-.153.755.755 0 0 0-.357-.051h-.076a6.147 6.147 0 0 0-.968.025c-.2 0-.433.025-.637.025H253.1c-.789 0-1.579-.025-2.368-.025h-.332a38.215 38.215 0 0 0-2.394 0c-.255.025-.535.025-.789.025-.28 0-.535.025-.789.025h-.433a2.328 2.328 0 0 1-.433-.025h-.153a1.669 1.669 0 0 0-.509.025.35.35 0 0 0-.28.2.624.624 0 0 0-.025.382 2.228 2.228 0 0 0 .051.407 2.541 2.541 0 0 1 .051.407c.025.153.051.28.076.407a2.383 2.383 0 0 0 .1.407c.025-.1.025-.051.051.025zm1.2-5.22c0-.051-.025-.1-.025-.153a.094.094 0 0 1-.025-.076.153.153 0 0 1 .025-.1.194.194 0 0 1 .051-.127.14.14 0 0 1 .127-.076h.025c.051 0 .076.051.1.076s.025.076.051.1a1.46 1.46 0 0 1 .1.357c0 .051.025.1.025.153l.051.2c.025.127.076.28.1.407a.5.5 0 0 0 .153.28.463.463 0 0 0 .28.1c.331 0 .407-.2.407-.458v-.255c-.025-.306-.051-.637.2-.789a.248.248 0 0 1 .229-.025.449.449 0 0 1 .229.2.556.556 0 0 0 .076.127.362.362 0 0 1 .051.153c0 .051.025.076.025.127a.608.608 0 0 0 .051.229c.051.051.076.076.1.051a.793.793 0 0 0 .1-.153c.051-.127.127-.255.255-.28a.223.223 0 0 1 .229.127 1.5 1.5 0 0 1 .1.2l.025.1c.051.127.076.28.2.331a.743.743 0 0 0 .229.051.411.411 0 0 0 .229-.076 1.857 1.857 0 0 0 .2-.229.538.538 0 0 1 .356-.306.558.558 0 0 1 .433.178c.025.025.076.051.1.076.178.127.28.076.357-.025.051-.076.1-.229.153-.331.025-.1.076-.2.1-.28a.978.978 0 0 1 .28-.28.64.64 0 0 1 .382-.051.72.72 0 0 1 .382.28.5.5 0 0 0 .28.229c.229.076.407-.1.56-.255.229-.2.458-.407.764-.127a.722.722 0 0 1 .2.28l.025.051a.979.979 0 0 0 .229.229c.025 0 .051.025.076.025a.094.094 0 0 0 .076-.025.351.351 0 0 0 .076-.1c.025-.025.025-.076.051-.127.051-.153.076-.306.28-.306a.248.248 0 0 1 .229.1.6.6 0 0 1 .127.255c0 .051.025.1.025.153a.608.608 0 0 0 .051.229.352.352 0 0 0 .076.1h.051l.025-.025c.025-.025.025-.076.051-.127l.025-.076c0-.051.025-.076.025-.127.051-.127.1-.229.28-.178.2.076.28.28.357.458l.025.076a.256.256 0 0 0 .025.076.048.048 0 0 0 .076 0 .256.256 0 0 0 .076-.025.192.192 0 0 0 .025-.2v-.229a.472.472 0 0 1 .051-.178.35.35 0 0 1 .076-.1c.025-.025.076-.051.1-.076a.23.23 0 0 1 .127.025c.025 0 .051.025.076.051a1.322 1.322 0 0 1 .28.637.743.743 0 0 1 .051.229v.026c.025.051.025.127.076.178.051.076.1.153.178.1.025 0 .051-.051.051-.076a.323.323 0 0 0 .025-.153 1.2 1.2 0 0 0-.1-.407l-.025-.1a2.779 2.779 0 0 1-.127-.433 1.39 1.39 0 0 1 .025-.458c.025-.051.025-.1.051-.153a3.081 3.081 0 0 0 .127-.458c.025-.2-.051-.382-.357-.407-.255-.025-.535 0-.815 0-.127 0-.229.025-.357.025a4.909 4.909 0 0 0-.611.025h-.611c-.407 0-.84-.025-1.248-.025s-.84-.025-1.248-.025c-.815-.025-1.655-.025-2.47-.025h-1.528c-.331 0-.637 0-.968.025h-.127c-.382 0-.764.025-1.146.051-.076 0-.153.025-.255.025l-.229.076a.4.4 0 0 0-.153.2.955.955 0 0 0-.025.28 1.241 1.241 0 0 0 .025.306 1.278 1.278 0 0 0 .051.306l.025.076c.025.178.076.458.2.535l.051.025v-.1a.2.2 0 0 0 .025-.2zm2.8-3.9z" transform="translate(-201.99 -272.045)"/></g></g></svg>