<svg xmlns="http://www.w3.org/2000/svg" viewBox="5804.637 493.333 17.363 22.971"><defs><style>.cls-1{fill:#1a1a1a}</style></defs><g id="smartphone" transform="translate(5797.313 493.334)"><path id="Path_3" data-name="Path 3" class="cls-1" d="M34.016 50a1.34 1.34 0 1 0 1.34 1.34 1.341 1.341 0 0 0-1.34-1.34zm0 1.914a.574.574 0 1 1 .574-.574.575.575 0 0 1-.574.573z" transform="translate(-15.646 -30.857)"/><path id="Path_4" data-name="Path 4" class="cls-1" d="M38.207 32.062a1.531 1.531 0 1 0-1.531-1.531 1.533 1.533 0 0 0 1.531 1.531zm0-2.3a.766.766 0 1 1-.766.766.766.766 0 0 1 .766-.763z" transform="translate(-18.115 -17.897)"/><path id="Path_5" data-name="Path 5" class="cls-1" d="M16.059 9.53a.382.382 0 0 0 .271-.112l.766-.766a.383.383 0 1 0-.541-.541l-.766.766a.383.383 0 0 0 .271.654z" transform="translate(-5.154 -4.937)"/><path id="Path_6" data-name="Path 6" class="cls-1" d="M24.687 11.388a1.253 1.253 0 0 0-.369-.892l-.213-.213a1.72 1.72 0 0 0-1.141-3.01 1.684 1.684 0 0 0-.207.015 1.684 1.684 0 0 0 .015-.207 1.725 1.725 0 0 0-1.722-1.722 1.684 1.684 0 0 0-.207.015 1.684 1.684 0 0 0 .015-.207 1.725 1.725 0 0 0-1.723-1.723 1.684 1.684 0 0 0-.207.015 1.684 1.684 0 0 0 .015-.207 1.72 1.72 0 0 0-3.01-1.141l-.3-.3L14.189.368a1.262 1.262 0 0 0-1.783 0L7.692 5.082a1.264 1.264 0 0 0 0 1.784l1.441 1.44 1.88 1.88a1.713 1.713 0 0 0-.1 2.925.567.567 0 0 0 .087.089l4.118 4.1v.688h-.768v4.977h9.95v-4.971h-.766v-1.16A3.239 3.239 0 0 0 24.1 12.5l.219-.219a1.253 1.253 0 0 0 .368-.893zM23.921 9a.956.956 0 0 1-.359.745L22.218 8.4a.956.956 0 0 1 1.7.6zm-1.914-1.918a.956.956 0 0 1-.359.745L20.3 6.483a.956.956 0 0 1 1.7.6zm-1.914-1.914a.956.956 0 0 1-.359.745L18.39 4.569a.956.956 0 0 1 1.7.6zM17.221 2.3a.956.956 0 0 1 .6 1.7l-1.345-1.345a.958.958 0 0 1 .745-.355zM8.234 6.325a.5.5 0 0 1 0-.7L12.947.91A.366.366 0 0 1 13.2.785a.481.481 0 0 1 .2 0 .488.488 0 0 1 .085.015.5.5 0 0 1 .163.108l.9.9-5.415 5.416zm6.855-3.974l.451.451 1.914 1.914.219.219 1.695 1.695.219.219 1.695 1.695.219.219 1.914 1.914.36.36a.5.5 0 0 1 0 .7l-.167.168-4.546 4.546a.5.5 0 0 1-.7 0L15.308 13.4h.381a1.723 1.723 0 0 0 0-3.446h-3.827L9.674 7.765zm-3.434 8.392l.159-.018a.328.328 0 0 1 .047-.006h3.829a.957.957 0 0 1 0 1.914h-3.829a.956.956 0 0 1-.206-1.891zM15.116 22.2v-3.441h3.226a2.137 2.137 0 0 1 2.134 2.134V22.2zm8.423 0h-2.3v-1.307a2.89 2.89 0 0 0-.943-2.134h3.24zm.01-9.155a2.478 2.478 0 0 1-.623 3.294l-.152.115v1.535h-6.893v-1.036l-.135-.114c-.017-.015-.036-.029-.069-.054l-3.4-3.386h1.947l3.595 3.595a1.263 1.263 0 0 0 1.784 0z"/></g></svg>