<?xml version="1.0" encoding="UTF-8" standalone="no"?>
<!-- Created with Inkscape (http://www.inkscape.org/) -->

<svg
   xmlns:dc="http://purl.org/dc/elements/1.1/"
   xmlns:cc="http://creativecommons.org/ns#"
   xmlns:rdf="http://www.w3.org/1999/02/22-rdf-syntax-ns#"
   xmlns:svg="http://www.w3.org/2000/svg"
   xmlns="http://www.w3.org/2000/svg"
   xmlns:sodipodi="http://sodipodi.sourceforge.net/DTD/sodipodi-0.dtd"
   xmlns:inkscape="http://www.inkscape.org/namespaces/inkscape"
   id="svg2"
   version="1.1"
   inkscape:version="0.91 r13725"
   width="66"
   height="62"
   viewBox="0 0 66 62"
   sodipodi:docname="advantages_icon_3.svg">
  <metadata
     id="metadata8">
    <rdf:RDF>
      <cc:Work
         rdf:about="">
        <dc:format>image/svg+xml</dc:format>
        <dc:type
           rdf:resource="http://purl.org/dc/dcmitype/StillImage" />
        <dc:title></dc:title>
      </cc:Work>
    </rdf:RDF>
  </metadata>
  <defs
     id="defs6" />
  <sodipodi:namedview
     pagecolor="#ffffff"
     bordercolor="#666666"
     borderopacity="1"
     objecttolerance="10"
     gridtolerance="10"
     guidetolerance="10"
     inkscape:pageopacity="0"
     inkscape:pageshadow="2"
     inkscape:window-width="1600"
     inkscape:window-height="837"
     id="namedview4"
     showgrid="false"
     inkscape:zoom="3.9333333"
     inkscape:cx="-5.1355932"
     inkscape:cy="30"
     inkscape:window-x="-8"
     inkscape:window-y="-8"
     inkscape:window-maximized="1"
     inkscape:current-layer="svg2" />
  <path
     style="fill:#1d1d1d;fill-opacity:1"
     d="M 24.5,59.837044 C 15.846175,57.502366 7.513159,51.518505 4.2615011,45.303965 1.2462599,39.541263 -0.00423189,31.853565 1.1703879,26.300606 2.5319894,19.8637 4.2044146,16.615194 8.7431159,11.591394 26.701605,-8.2865068 63.467145,3.1149191 65.179397,29.092948 65.428065,32.865694 65.107347,34.210794 63.75,35.087833 60.785518,37.003314 58.594891,34.66934 57.729973,28.673877 55.706887,14.650197 44.038008,5.8849621 28.839497,6.9724101 6.1326866,8.5970741 -3.9451352,34.783679 12,50.728814 c 5.17863,5.17863 10.378631,7.354413 18.674386,7.813732 9.158695,0.507098 15.561757,-1.547309 21.996135,-7.057406 L 57.5,47.349402 54.012493,51.081761 C 49.104524,56.334309 41.762656,59.673711 33.95139,60.206427 30.403126,60.448413 26.15,60.282187 24.5,59.837044 Z M 28.057692,44.298328 C 26.390923,42.289995 28.96738,34.464259 33.525161,27.691424 35.361936,24.961989 36.557682,22.69045 36.182376,22.64356 35.807069,22.59667 33.25,22.60566 30.5,22.66354 c -5.351158,0.112626 -8.184175,-1.018691 -7.069098,-2.822924 0.416669,-0.674184 4.021954,-1.111803 9.1595,-1.111803 10.055999,0 11.099514,1.054438 6.660746,6.730472 -2.835564,3.625952 -5.110401,8.945116 -6.924453,16.191181 -0.976323,3.899833 -2.464103,4.822633 -4.269003,2.647861 z"
     id="path4138"
     inkscape:connector-curvature="0" />
</svg>
