<?xml version="1.0" encoding="UTF-8" standalone="no"?>
<!-- Created with Inkscape (http://www.inkscape.org/) -->

<svg
   xmlns:dc="http://purl.org/dc/elements/1.1/"
   xmlns:cc="http://creativecommons.org/ns#"
   xmlns:rdf="http://www.w3.org/1999/02/22-rdf-syntax-ns#"
   xmlns:svg="http://www.w3.org/2000/svg"
   xmlns="http://www.w3.org/2000/svg"
   xmlns:sodipodi="http://sodipodi.sourceforge.net/DTD/sodipodi-0.dtd"
   xmlns:inkscape="http://www.inkscape.org/namespaces/inkscape"
   id="svg2"
   version="1.1"
   inkscape:version="0.91 r13725"
   width="51"
   height="62"
   viewBox="0 0 51 62"
   sodipodi:docname="advantages_icon_6.svg">
  <metadata
     id="metadata8">
    <rdf:RDF>
      <cc:Work
         rdf:about="">
        <dc:format>image/svg+xml</dc:format>
        <dc:type
           rdf:resource="http://purl.org/dc/dcmitype/StillImage" />
        <dc:title></dc:title>
      </cc:Work>
    </rdf:RDF>
  </metadata>
  <defs
     id="defs6" />
  <sodipodi:namedview
     pagecolor="#ffffff"
     bordercolor="#666666"
     borderopacity="1"
     objecttolerance="10"
     gridtolerance="10"
     guidetolerance="10"
     inkscape:pageopacity="0"
     inkscape:pageshadow="2"
     inkscape:window-width="1600"
     inkscape:window-height="837"
     id="namedview4"
     showgrid="false"
     inkscape:zoom="7.6129032"
     inkscape:cx="-1.1051792"
     inkscape:cy="27.388124"
     inkscape:window-x="-8"
     inkscape:window-y="-8"
     inkscape:window-maximized="1"
     inkscape:current-layer="svg2" />
  <path
     style="fill:#1d1d1d;fill-opacity:1"
     d="m 14.589809,56.635983 c -1.465007,-2.499845 -2.757179,-4.539831 -2.871495,-4.533303 -0.114315,0.0065 -2.5435299,0.633723 -5.3982554,1.393768 l -5.1904091,1.381899 2.5397424,-5.643768 c 1.3968583,-3.104072 3.3875549,-7.576108 4.4237702,-9.937857 1.705805,-3.887881 2.0828979,-4.187656 3.9863139,-3.168979 3.406227,1.822958 3.317051,0.374155 -0.12796,-2.07891 C 6.2260841,29.971967 3.4710147,20.295511 6.0740861,13.405911 8.7109981,6.4267456 17.070718,1.1497306 25.548578,1.1127736 c 9.971558,-0.04347 19.197274,7.450754 20.207683,16.4150794 0.695282,6.168518 -1.917517,12.829418 -6.362289,16.219611 -3.664674,2.795183 -3.94282,4.248235 -0.455995,2.382143 1.962638,-1.050372 2.389893,-0.496069 6.585646,8.543937 2.467765,5.316949 4.486845,9.795219 4.486845,9.951711 0,0.156492 -2.345539,-0.33421 -5.212309,-1.09045 -4.065842,-1.072549 -5.389576,-1.107629 -6.018237,-0.159488 -0.443261,0.668522 -1.753359,2.708631 -2.911329,4.533577 l -2.1054,3.318084 -3.406458,-7.318084 c -2.509026,-5.39013 -3.27637,-8.217422 -2.91267,-10.731776 0.699,-4.832371 -0.572534,-2.973266 -5.412572,7.913693 -2.32289,5.225 -4.34822,9.632827 -4.500736,9.795172 -0.152515,0.162345 -1.475942,-1.750155 -2.940948,-4.25 z M 35.217016,32.557794 c 4.419678,-3.27056 7.105671,-9.004624 6.5456,-13.97356 C 40.812504,10.154863 34.437694,4.7145696 25.510468,4.7145696 c -17.8267599,0 -22.6603491,21.9046854 -6.533639,29.6089074 2.999025,1.432726 13.454104,0.296017 16.240187,-1.765683 z M 19.980487,24.195349 c 0.75636,-2.637273 0.536275,-3.347727 -1.54396,-4.98404 -3.170168,-2.493654 -3.060034,-3.120498 0.548261,-3.120498 2.293386,0 3.329484,-0.686813 4.52568,-3 0.853248,-1.65 1.753248,-3 2,-3 0.246752,0 1.146752,1.35 2,3 1.196196,2.313187 2.232294,3 4.52568,3 3.493647,0 3.802613,1.001629 0.873271,2.831034 -1.639578,1.023933 -2.012336,2.072024 -1.697143,4.771885 0.332548,2.848514 0.129561,3.332255 -1.14895,2.738071 -2.049756,-0.952618 -7.1184,-0.920439 -9.258898,0.05878 -1.496532,0.684623 -1.597715,0.402758 -0.823941,-2.295234 z"
     id="path4138"
     inkscape:connector-curvature="0" />
</svg>
