<?xml version="1.0" encoding="UTF-8" standalone="no"?>
<!-- Created with Inkscape (http://www.inkscape.org/) -->

<svg
   xmlns:dc="http://purl.org/dc/elements/1.1/"
   xmlns:cc="http://creativecommons.org/ns#"
   xmlns:rdf="http://www.w3.org/1999/02/22-rdf-syntax-ns#"
   xmlns:svg="http://www.w3.org/2000/svg"
   xmlns="http://www.w3.org/2000/svg"
   xmlns:sodipodi="http://sodipodi.sourceforge.net/DTD/sodipodi-0.dtd"
   xmlns:inkscape="http://www.inkscape.org/namespaces/inkscape"
   id="svg2"
   version="1.1"
   inkscape:version="0.91 r13725"
   width="40"
   height="46"
   viewBox="0 0 40 46"
   sodipodi:docname="footer_phone.svg">
  <metadata
     id="metadata8">
    <rdf:RDF>
      <cc:Work
         rdf:about="">
        <dc:format>image/svg+xml</dc:format>
        <dc:type
           rdf:resource="http://purl.org/dc/dcmitype/StillImage" />
        <dc:title></dc:title>
      </cc:Work>
    </rdf:RDF>
  </metadata>
  <defs
     id="defs6" />
  <sodipodi:namedview
     pagecolor="#ffffff"
     bordercolor="#666666"
     borderopacity="1"
     objecttolerance="10"
     gridtolerance="10"
     guidetolerance="10"
     inkscape:pageopacity="0"
     inkscape:pageshadow="2"
     inkscape:window-width="1600"
     inkscape:window-height="837"
     id="namedview4"
     showgrid="false"
     inkscape:zoom="10.26087"
     inkscape:cx="23.668123"
     inkscape:cy="21.539816"
     inkscape:window-x="-8"
     inkscape:window-y="-8"
     inkscape:window-maximized="1"
     inkscape:current-layer="svg2" />
  <path
     style="fill:#e7e8ef;fill-opacity:0.94117647"
     d="M 22.588414,42.75 C 12.899329,36.233843 0.19491526,18.066014 0.19491526,10.726385 c 0,-2.8073957 0.78629108,-4.2040267 4.00288074,-7.1100227 4.6707222,-4.21971696 5.920168,-4.41599496 8.697842,-1.366362 5.194764,5.703377 5.521455,9.6485457 1.086396,13.1195007 -3.194697,2.500227 -3.203862,2.533179 -1.619342,5.822478 0.876446,1.819412 3.509809,5.473154 5.851919,8.119427 l 4.25838,4.811405 3.158569,-3.061405 C 27.368773,29.377633 29.501944,28 30.37194,28 c 2.091806,0 9.822975,7.554802 9.822975,9.598889 0,0.880611 -1.53,3.131111 -3.4,5.001111 -4.388725,4.388725 -7.84947,4.425266 -14.206501,0.15 z"
     id="path4138"
     inkscape:connector-curvature="0" />
</svg>
