<svg xmlns="http://www.w3.org/2000/svg" width="80" height="62" viewBox="0 0 80 62"><path d="M68.233 47.877c.502-2.514.33-2.913-1.033-2.39-.9.345-2.742-.097-4.094-.982-3.41-2.235-6.527-2.091-6.527.302 0 2.925-7.156 3.822-12.44 1.559-1.257-.538-2.078-.418-2.33.34-.274.822-.945.877-2.238.184-1.016-.543-2.53-.726-3.367-.405-1.73.664-6.546-2.474-6.594-4.295-.046-1.78-4.499-5.923-7.096-6.602-1.242-.325-3.054-.165-4.026.356-1.353.723-2.196.401-3.59-1.37-2.561-3.257-6.388-4.133-7.046-1.615-.279 1.065-1.106 1.936-1.84 1.936s-1.772.783-2.308 1.741C2.409 38.95 1.805 38.164.997 33.107c-.648-4.052-.574-4.212 1.954-4.212 2.253 0 2.628-.428 2.628-3 0-1.65-.04-3.297-.09-3.66-.049-.363.626-1.06 1.5-1.55.875-.49 1.59-1.494 1.59-2.233 0-1.48 2.13-2.557 5.058-2.557 1.041 0 3.335-.877 5.097-1.948 3.557-2.163 4.845-1.895 4.845 1.007 0 2.114-1.593 2.661-2.226.764-.4-1.2-2.774-.313-2.774 1.035 0 .407 1.687 1.322 3.75 2.034 6.306 2.175 9.25 3.56 9.25 4.352 0 .416.45.756 1 .756s1-.675 1-1.5.436-1.5.969-1.5c1.326 0 .105 3.215-1.807 4.755-1.336 1.076-1.173 1.223 1.138 1.032 2.087-.173 2.569-.626 2.13-2.005-.652-2.056 2.09-2.558 2.908-.532.384.953.523.936.583-.072.117-1.96 2.241-3.751 5.385-4.54 3.552-.892 5.206.04 3.572 2.01-1.048 1.262-.642 1.399 2.889.973 2.525-.304 4.25-.07 4.476.609.215.645 1.177.251 2.313-.947 1.069-1.128 3.493-2.383 5.387-2.789 3.526-.756 6.057-2.573 6.057-4.35 0-1.263 6.123-4.373 6.912-3.512.323.353.025.842-.662 1.088-1.414.505-1.724 3.28-.367 3.28 1.344 0 2.078 5.332.927 6.724-.706.854-.376 2.541 1.088 5.566 2.716 5.61 2.654 6.577-.247 3.852-1.422-1.336-2.383-3.431-2.437-5.311-.048-1.708-.632-3.606-1.298-4.218-.895-.824-1.037-.806-.546.068.364.65.205 1.463-.354 1.809-.559.345-1.016 1.464-1.016 2.485 0 1.022-1.07 2.683-2.376 3.691-1.307 1.009-2.645 3.296-2.975 5.084-.542 2.94-.367 3.25 1.83 3.25 1.952 0 2.55.642 3.042 3.26.656 3.495-.827 8.74-2.471 8.74-.58 0-.746-1.27-.396-3.018z" fill="#1d1d1d"/></svg>