<svg xmlns="http://www.w3.org/2000/svg" width="52" height="62" viewBox="0 0 52 62"><path d="M35.544 59.124c-.825-.3-2.737-1.699-4.25-3.108-2.086-1.945-2.75-3.498-2.75-6.441 0-4.92 1.302-7.335 4.98-9.237 9.966-5.153 20.739 3.048 16.7 12.714-2.1 5.025-9.333 8.017-14.68 6.072zm8.432-8.226c2.454-2.513 3.62-4.495 3.234-5.5-.91-2.372-2.146-1.926-5.62 2.032-3.063 3.488-3.225 3.545-5.128 1.823-1.566-1.417-2.214-1.525-3.191-.532-.972.987-.644 1.75 1.58 3.676 1.542 1.337 3.364 2.43 4.046 2.43.683 0 2.968-1.768 5.079-3.929zM.993 52.553c-.27-.701-.368-10.939-.22-22.75l.271-21.475 4.166-.304c3.469-.252 4.275.04 4.817 1.748.832 2.623 3.388 3.23 12.038 2.857 6.13-.265 7.1-.575 7.967-2.551.758-1.728 1.814-2.25 4.55-2.25 5.583 0 5.962.968 5.962 15.2 0 12.133-.104 12.8-2 12.8-1.86 0-2-.667-2-9.5v-9.5h-32v32.93l10.239.285c8.822.245 10.284.527 10.573 2.035.304 1.588-.78 1.75-11.77 1.75-8.886 0-12.234-.34-12.593-1.275zm6.551-8.725c0-.597 3.853-1 9.56-1 6.118 0 9.336.36 8.94 1-.34.55-4.641 1-9.559 1-5.294 0-8.94-.408-8.94-1zm0-7.5c0-1.234 1.778-1.5 10-1.5 8.223 0 10 .266 10 1.5 0 1.233-1.777 1.5-10 1.5-8.222 0-10-.267-10-1.5zm0-6.5c0-.614 4.834-1 12.5-1 7.667 0 12.5.386 12.5 1 0 .613-4.833 1-12.5 1-7.666 0-12.5-.387-12.5-1zm0-8c0-.611 4.647-1 11.941-1 6.882 0 12.203.423 12.56 1 .399.646-3.823 1-11.942 1-7.706 0-12.559-.387-12.559-1zm4.498-12.004c-.902-1.46 1.323-3.996 3.508-3.996.969 0 1.997-.9 2.284-2 .657-2.511 3.186-2.585 4.904-.144.718 1.021 2.345 2.185 3.613 2.586 1.42.449 2.185 1.368 1.99 2.393-.258 1.349-1.772 1.72-7.973 1.955-4.73.18-7.912-.124-8.326-.794zm9.502-4.996c0-.55-.675-1-1.5-1s-1.5.45-1.5 1 .675 1 1.5 1 1.5-.45 1.5-1z" fill="#1d1d1d"/></svg>