<svg xmlns="http://www.w3.org/2000/svg" width="55" height="62" viewBox="0 0 55 62"><path d="M13.5 47.296C6.35 41.236.5 35.739.5 35.082c0-.69 1.794-1.324 4.25-1.502L9 33.273l.015-13.693c.009-7.53.38-14.266.824-14.967.616-.97 4.963-1.209 18.235-1l17.426.275.276 14.694.277 14.693 4.146.307c2.28.168 4.294.759 4.476 1.313.345 1.054-25.814 23.52-27.313 23.457-.474-.02-6.712-4.995-13.862-11.056zm24.825-2.908c6.927-5.82 7.497-6.557 5.455-7.044-2.23-.532-2.286-.871-2.557-15.25l-.276-14.706H14.053l-.276 14.706c-.27 14.369-.33 14.718-2.552 15.25-2.013.48-1.213 1.433 6.916 8.234 7.731 6.467 9.452 7.5 10.82 6.5.896-.655 5.11-4.115 9.364-7.69zM25 38.11c0-.703-.9-2.048-2-2.99-3.248-2.781-2.504-4.069 1.94-3.358 5.324.852 6.18-1.01 1.382-3.008-2.102-.875-4.153-2.103-4.557-2.729-1.367-2.117-.775-5.648 1.235-7.37 1.1-.941 2-2.287 2-2.99 0-.702 1.125-1.277 2.5-1.277s2.5.566 2.5 1.26c0 .692.9 1.82 2 2.508 1.1.687 2 1.92 2 2.74 0 1.702-3.084 2.007-4.633.459-1.254-1.254-4.595-.15-4.094 1.351.196.59 1.594 1.403 3.106 1.808 1.512.404 3.395 1.271 4.185 1.927 2.14 1.776 1.8 6.702-.564 8.179-1.1.687-2 2.04-2 3.008 0 1.21-.78 1.76-2.5 1.76-1.375 0-2.5-.575-2.5-1.278z" fill="#1d1d1d"/></svg>