<svg xmlns="http://www.w3.org/2000/svg" width="51" height="62" viewBox="0 0 51 62"><path d="M14.59 56.636c-1.465-2.5-2.757-4.54-2.872-4.533-.114.006-2.543.633-5.398 1.393l-5.19 1.382 2.54-5.643a1424.88 1424.88 0 0 0 4.423-9.938c1.706-3.888 2.083-4.188 3.986-3.17 3.407 1.824 3.318.375-.127-2.078-5.726-4.077-8.481-13.753-5.878-20.643C8.711 6.426 17.071 1.15 25.55 1.113c9.971-.044 19.197 7.45 20.207 16.415.696 6.168-1.917 12.83-6.362 16.22-3.665 2.795-3.943 4.248-.456 2.382 1.963-1.05 2.39-.496 6.586 8.544 2.467 5.316 4.486 9.795 4.486 9.951 0 .157-2.345-.334-5.212-1.09-4.066-1.073-5.39-1.108-6.018-.16-.443.669-1.753 2.709-2.911 4.534l-2.106 3.318-3.406-7.318c-2.51-5.39-3.277-8.218-2.913-10.732.7-4.832-.572-2.973-5.413 7.914-2.322 5.225-4.348 9.633-4.5 9.795-.153.162-1.476-1.75-2.941-4.25zm20.627-24.078c4.42-3.27 7.106-9.005 6.546-13.974-.95-8.43-7.325-13.87-16.253-13.87-17.826 0-22.66 21.905-6.533 29.61 2.999 1.432 13.454.295 16.24-1.766zM19.98 24.195c.757-2.637.537-3.347-1.543-4.984-3.17-2.493-3.06-3.12.548-3.12 2.293 0 3.33-.687 4.525-3 .854-1.65 1.754-3 2-3 .247 0 1.147 1.35 2 3 1.197 2.313 2.233 3 4.526 3 3.494 0 3.803 1.001.873 2.83-1.64 1.025-2.012 2.073-1.697 4.773.333 2.848.13 3.332-1.149 2.738-2.05-.953-7.118-.92-9.259.059-1.496.684-1.597.402-.824-2.296z" fill="#1d1d1d"/></svg>