<svg xmlns="http://www.w3.org/2000/svg" width="72" height="62" viewBox="0 0 72 62"><path d="M21.435 46.578c-1.965-1.964-2.005-2.579-.318-4.885 2.741-3.75 9.542.236 7.086 4.154-1.48 2.361-4.781 2.718-6.768.731zm36.576.319c-.66-.66-1.2-1.92-1.2-2.8 0-3.958 6.104-5.541 7.964-2.066 1.34 2.501 1.323 2.635-.536 4.494-1.871 1.872-4.568 2.033-6.228.372zM11.477 44.43c-.366-.367-.666-3.493-.666-6.948v-6.28l-5.25-.303c-2.888-.166-5.25-.752-5.25-1.302s2.362-1.136 5.25-1.303c5.295-.304 7.164-1.786 3-2.378-1.238-.176-2.25-.77-2.25-1.32s1.012-1.143 2.25-1.319c3.843-.546 2.468-2.18-1.834-2.18-5.176 0-4.881-2.363.35-2.807 3.085-.262 3.657-.7 3.923-3l.31-2.693h38v32l-9.25.287c-8.492.264-9.25.134-9.25-1.595 0-2.717-3.18-5.192-6.673-5.192-3.234 0-6.326 2.604-6.326 5.328 0 1.169-.853 1.672-2.834 1.672-1.558 0-3.133-.3-3.5-.667zm39.334-11.833v-11.5h13.902l3.549 6.346c2.785 4.98 3.549 7.455 3.549 11.5 0 4.487-.26 5.154-2 5.154-1.1 0-2-.606-2-1.345 0-2.178-3.715-4.905-6.681-4.905-1.854 0-3.596 1.016-5.356 3.125-4.394 5.262-4.963 4.3-4.963-8.375zm14.146-4.75c-1.68-2.663-2.782-3.306-6.099-3.558-4.03-.306-4.047-.291-4.047 3.25v3.558h12.196l-2.05-3.25z" fill="#1d1d1d"/></svg>