<svg xmlns="http://www.w3.org/2000/svg" width="66" height="62" viewBox="0 0 66 62"><path d="M24.5 59.837c-8.654-2.335-16.987-8.318-20.238-14.533-3.016-5.763-4.266-13.45-3.092-19.003 1.362-6.437 3.034-9.686 7.573-14.71C26.702-8.287 63.467 3.115 65.18 29.093c.25 3.773-.072 5.118-1.429 5.995-2.964 1.915-5.155-.419-6.02-6.414C55.707 14.65 44.038 5.885 28.84 6.972 6.132 8.597-3.946 34.784 12 50.73c5.179 5.178 10.379 7.354 18.674 7.814 9.16.507 15.562-1.548 21.997-7.058L57.5 47.35l-3.488 3.733c-4.907 5.252-12.25 8.592-20.06 9.124-3.549.242-7.802.076-9.452-.369zm3.558-15.539c-1.667-2.008.91-9.834 5.467-16.607 1.837-2.729 3.033-5 2.657-5.047-.375-.047-2.932-.038-5.682.02-5.351.112-8.184-1.02-7.07-2.823.418-.675 4.023-1.112 9.16-1.112 10.056 0 11.1 1.054 6.661 6.73-2.835 3.626-5.11 8.945-6.924 16.191-.977 3.9-2.464 4.823-4.27 2.648z" fill="#1d1d1d"/></svg>