<svg xmlns="http://www.w3.org/2000/svg" width="64" height="46" viewBox="0 0 64 46"><path d="M21.793 38.937c-2.452-1.556-6.393-5.025-8.756-7.71C7.673 25.133-.958 8.184.54 6.686c.573-.573 3.237-.902 5.92-.732l4.878.31 5.245 8c2.884 4.4 5.794 8 6.466 8 1.514 0 2.582-3.65 2.713-9.281.083-3.564-.275-4.421-2.129-5.107-2.162-.8-2.134-.872.95-2.468 1.749-.904 5.21-1.643 7.694-1.643 5.547 0 7.108 2.165 6.221 8.632-.746 5.442.193 10.368 1.976 10.368.75 0 2.954-3.162 4.9-7.026C50.2 6.156 51.964 4.525 56.65 5.314c5.925.998 7.211 1.505 7.211 2.84 0 .69-2.47 4.805-5.491 9.144l-5.492 7.89 4.975 4.949c8.304 8.26 7.75 11.628-1.911 11.628-5.303 0-5.93-.262-9.58-4-5.632-5.767-10.5-4.87-10.5 1.934 0 3.345-8.302 2.895-14.069-.762z" fill="#e7e8ef" fill-opacity=".941"/></svg>