<svg xmlns="http://www.w3.org/2000/svg" xmlns:xlink="http://www.w3.org/1999/xlink" width="590" height="246" viewBox="0 0 590 246"><defs><path id="79yya" d="M908 4043.42v16.49h-24.58v65.67h-21.67v-65.67h-24.57v-16.5zm-99.57 57.09h20.03c-2.38 15.9-17.2 26.49-37.16 26.49-24.94 0-40.21-16.04-40.21-42.16 0-26.12 15.34-42.84 39.4-42.84 23.6 0 38.64 15.82 38.64 40.82v6.72h-56.6v1.34c0 11.87 7.68 19.85 19.15 19.85 8.19 0 14.67-3.88 16.75-10.22zm-17.72-42.24c-9.9 0-17.2 7.24-17.95 17.76h35.37c-.37-10.75-7.37-17.76-17.42-17.76zM693 4086.4c-1.42 24.26-7.98 40.15-28.08 40.15-3.36 0-5.81-.6-6.93-1.04v-18.44c.9.23 2.53.6 4.7.6 7.89 0 10.27-9.55 11.01-22.61l2.39-41.64h61.8v82.16h-21.66v-65.67H694.7z"/><path id="79yyb" d="M534.6 4217.24c33.05 0 51.83-34.18 51.83-90.18 0-55.2-19.1-89.71-51.84-89.71-32.73 0-51.99 34.66-51.99 89.7 0 55.85 18.94 90.2 52 90.2zm-.58 30.34c-55.52 0-88.42-46.54-88.42-120.36 0-73.33 33.22-119.87 88.42-119.87 55.37 0 88.1 46.38 88.1 119.71 0 73.82-32.57 120.52-88.1 120.52zm-152.12-4.33V4047.3h-.8l-60.5 43v-35.3l60.98-43.33h35.47v231.57z"/></defs><g><g transform="translate(-318 -4004)"><use fill="#fff" xlink:href="#79yya"/></g><g transform="translate(-318 -4004)"><use fill="#fff" xlink:href="#79yyb"/><use fill="#fff" fill-opacity="0" stroke="#fff" stroke-miterlimit="50" stroke-width="5" xlink:href="#79yyb"/></g></g></svg>