<svg xmlns="http://www.w3.org/2000/svg" xmlns:xlink="http://www.w3.org/1999/xlink" width="681" height="395" viewBox="0 0 681 395"><defs><path id="w0eea" d="M1114 2376.54h12.81v39h12.9v-48.8h-36.78l-1.42 24.73c-.44 7.76-1.86 13.43-6.56 13.43-1.28 0-2.26-.22-2.79-.35v10.94a12 12 0 0 0 4.12.62c11.97 0 15.87-9.44 16.7-23.84zm-48.38 30.18c-6.83 0-11.4-4.74-11.4-11.8v-.79h33.69v-3.99c0-14.84-8.95-24.24-23-24.24-14.32 0-23.44 9.93-23.44 25.44 0 15.51 9.08 25.04 23.93 25.04 11.87 0 20.69-6.3 22.1-15.73h-11.91c-1.24 3.76-5.1 6.07-9.97 6.07zm9.79-20.6h-21.05c.44-6.26 4.79-10.56 10.68-10.56 5.98 0 10.15 4.17 10.37 10.55zm-83.13 29.42h33.14v12.62h11.8v-22.46h-7.28v-38.95h-38.68l-1.6 24.72c-.44 6.56-1.81 12.23-5.4 14.23h-3.77v22.46h11.79zm5.18-9.84v-.36c2.22-3.28 3.24-7.8 3.64-13.07l1.1-15.78h14.9v29.2zm-53.04 9.84h14.13l-15.24-24.64 15.33-24.15H944.6l-8.9 16.61h-.27l-8.95-16.61H911.9l15.29 24.46-15.42 24.33h13.65l9.35-17.07h.26zm-75.56 0c11.52 0 18.88-6.74 18.88-17.29 0-10.59-7.36-17.32-18.88-17.32h-9.48v-14.18h-12.9v48.79zm6.07-17.38c0 4.57-3.19 7.67-8.1 7.67h-7.45v-15.29h7.44c4.92 0 8.11 3.06 8.11 7.62zm30.54 17.38v-48.8h-12.9v48.8zm-68.65 0v-48.8h-12.9v18.84H804.4v-18.83h-12.9v48.79h12.9v-20.12h19.54v20.12zm-66.87-7.54h.27v7.54h12.5v-33.46c0-9.75-8.2-16.18-20.74-16.18-12.19 0-20.61 6.43-20.96 15.73h11.83c.62-3.54 3.9-6.02 8.6-6.02 5.31 0 8.55 2.57 8.55 7.27v3.23l-12.19.75c-12.45.76-19.23 5.76-19.23 14.63 0 8.73 7.04 14.62 16.44 14.62 6.25 0 12.27-3.01 14.93-8.1zm-18.48-7.18c0-3.59 2.88-5.71 8.3-6.07l10.23-.7v3.58c0 5.32-4.79 9.04-10.77 9.04-4.7 0-7.76-2.26-7.76-5.85zm-54.15-9.66c0-8.73 4.39-14.53 11-14.53 6.68 0 11.07 5.71 11.07 14.49 0 8.86-4.39 14.53-11.08 14.53-6.6 0-10.99-5.71-10.99-14.49zm.14-16.08h-.27v-8.33h-12.76v64.12h12.94v-23.53h.26c2.66 5.54 8.11 8.77 15.16 8.77 12.23 0 19.85-9.48 19.85-25 0-15.5-7.67-24.94-20.03-24.94-6.87 0-12.58 3.41-15.15 8.9zm-20.74-8.33h-33.86v48.79h12.9v-39h20.96zm-56.55 17.54h.36v31.25h12.67v-48.8h-12.67l-20.21 30.9h-.36v-30.9H587.3v48.8h12.67zm-79.14 31.25c11.52 0 18.87-6.74 18.87-17.29 0-10.59-7.35-17.32-18.87-17.32h-9.49v-14.18h-12.9v48.79zm6.07-17.38c0 4.57-3.2 7.67-8.11 7.67h-7.45v-15.29H539c4.92 0 8.1 3.06 8.1 7.62zm30.53 17.38v-48.8h-12.9v48.8zM473.09 2387h11.61c7.9 0 12.19 3.19 12.19 9.17 0 6.12-4.17 9.4-11.88 9.4H473.1zm11.4-25.44c6.24 0 9.83 2.93 9.83 8.07 0 5.4-4.08 8.55-11.21 8.55h-10.02v-16.62zm26.05 35.67c0-8.46-6.38-14.8-15.07-15.46v-.36a14.1 14.1 0 0 0 12.01-13.87c0-9.79-7.53-15.95-19.54-15.95H459.7v63.95h28.72c13.64 0 22.1-7.05 22.1-18.3z"/><path id="w0eeb" d="M1038.05 2268.69c26.9 0 48.14-21.05 48.14-47.6 0-27.27-20.32-47.22-47.96-47.22-27.46 0-48.32 19.95-48.32 46.68 0 26.9 21.05 48.14 48.14 48.14zm.54 44.11c-37.88 0-69.18-17.2-87.67-48.69-14.65-22.33-22.15-52.17-22.15-87.31 0-87.5 42.47-140.21 110.74-140.21 50.34 0 89.7 29.84 97.01 73.03h-54.36c-5.3-17.57-22.33-29.28-43.02-29.28-36.79 0-59.12 35.32-57.84 95h1.1c10.62-25.81 36.6-43.02 70.29-43.02 50.15 0 87.31 36.98 87.31 87.13 0 54.36-42.28 93.35-101.4 93.35zm-306.4-97.2v1.47h84V2081.8h-1.09c-38.44 56.38-61.5 92.44-82.92 133.8zm82.91 91.16v-47.04H683.68v-47.04c23.06-43.93 51.8-90.24 105.98-170.05h77.97v172.8h34.42v44.29h-34.42v47.04zM460 2122.07c0-49.97 39.9-85.3 97.56-85.3 55.65 0 93.9 32.22 93.9 76.33 0 32.95-21.96 57.66-51.07 86.58l-64.43 62.05v1.1h119.16v43.93h-192v-37.16l99.57-95.91c26.72-26.73 34.96-40.09 34.96-58.4 0-19.76-17.4-35.5-41.92-35.5-25.63 0-44.48 17.94-44.48 42.28v.92H460z"/><linearGradient id="w0eec" x1="460" x2="1140" y1="2174.69" y2="2174.69" gradientUnits="userSpaceOnUse"><stop offset="0" stop-color="#e2b272"/><stop offset="1" stop-color="#dab99d"/></linearGradient></defs><g><g transform="translate(-459 -2036)"><use fill="#fff" xlink:href="#w0eea"/></g><g transform="translate(-459 -2036)"><use fill="url(#w0eec)" xlink:href="#w0eeb"/></g></g></svg>