<svg xmlns="http://www.w3.org/2000/svg" xmlns:xlink="http://www.w3.org/1999/xlink" width="150" height="221" viewBox="0 0 150 221"><defs><path id="m8u5a" d="M725 5309.25l19.72-30.17s18.82 22.85 50.37 22.85c23.67 0 39.45-16.15 39.45-35.95 0-24.07-21.85-36.87-46.73-36.87-23.36 0-40.36 9.75-40.36 9.75l-13.95-7 7.58-92.03c1.52-14.32 6.07-20.72 20.64-20.72h79.5c14.26 0 20.33 6.4 20.33 20.72v32.9h-35.8v-13.1c0-4.26-2.44-6.7-6.68-6.7h-35.5c-4.25 0-6.38 2.44-6.68 6.7l-3.04 29.87c-.6 5.79-1.21 10.05-1.21 10.05h.6s10.02-3.96 22.77-3.96c49.46 0 78.89 31.39 78.89 71 0 37.78-29.43 72.82-79.8 72.82-45.82 0-70.1-30.16-70.1-30.16z"/></defs><g><g clip-path="url(#clip-55324E12-541F-4902-9907-00032825258A)" transform="translate(-725 -5119)"><use fill="#fff" xlink:href="#m8u5a"/></g></g></svg>