<svg xmlns="http://www.w3.org/2000/svg" xmlns:xlink="http://www.w3.org/1999/xlink" width="918" height="661" viewBox="0 0 918 661"><defs><path id="zbpba" d="M1237.6 574.8c0 127.8 90 225 202.5 225 111.6 0 201.6-97.2 201.6-225 0-122.4-90-216-201.6-216-112.5 0-202.5 93.6-202.5 216zm-339.1 324V379.5c0-12.6-7.2-19.8-19.8-19.8H840v-99.9h115.2c43.2 0 61.2 18.9 61.2 61.2v209.7h99c17.1-161.1 148.5-281.7 317.7-281.7 184.5 0 324 143.1 324 325.8 0 188.1-139.5 334.8-324 334.8-165.6 0-294.3-118.8-315.9-279h-100.8v268.2z"/><radialGradient id="zbpbb" cx="863.96" cy="293.96" r="859.91" gradientUnits="userSpaceOnUse"><stop offset="0" stop-color="#edcdaa"/><stop offset="1" stop-color="#fff6eb"/></radialGradient></defs><g><g transform="translate(-840 -249)"><use fill="url(#zbpbb)" xlink:href="#zbpba"/></g></g></svg>